<?xml version="1.0" encoding="utf-8"?>
<!-- Generator: Adobe Illustrator 18.1.1, SVG Export Plug-In . SVG Version: 6.00 Build 0)  -->
<!DOCTYPE svg PUBLIC "-//W3C//DTD SVG 1.1//EN" "http://www.w3.org/Graphics/SVG/1.1/DTD/svg11.dtd">
<svg version="1.1" id="Layer_1" xmlns="http://www.w3.org/2000/svg" xmlns:xlink="http://www.w3.org/1999/xlink" x="0px" y="0px"
	 viewBox="0 0 100 90" enable-background="new 0 0 100 90" xml:space="preserve">
<g>
	<path fill="#999999" d="M103.6,261.2c0-0.3,0.2-1.2,0.7-2.5c0.9-2.5,2.8-6.1,6.2-7.2l0,1c0,0-3.4,1.1-5.9,6.4
		C104.1,259.8,103.7,260.9,103.6,261.2L103.6,261.2z M108.3,260.3c3.7-0.9,4.4-5.1,4.4-8.6c0-2.6-0.4-4.7-0.4-4.7
		c-8.2,3.2-10,6.2-10,8.2c0,0.8,0.2,1.4,0.4,1.6l0,0c-0.1-0.2-0.1-0.6-0.1-1c0-1.8,1.5-4.5,8.9-7.3c0,0,0.4,1.9,0.4,4.2
		C111.8,255.7,111.3,259.3,108.3,260.3L108.3,260.3z"/>
	<path fill="#999999" d="M112.7,246.4c-3.1,1.2-5.5,2.4-7.2,3.6c-1.7,1.2-2.8,2.4-3.3,3.8c-0.1,0.3-0.3,0.8-0.3,1.2
		c-0.4-0.3-0.5-0.4-0.7-0.6c-0.6-0.5-1.1-1-1.1-1.8c0-0.8,0.6-1.4,1.1-1.8c1.2-1,7.9-6.6,8.4-7c0.2-0.1,0.3-0.2,0.4-0.2
		c0.1,0,0.2,0.1,0.4,0.2c0.5,0.4,7.2,6,8.4,7c0.5,0.5,1.1,1,1.1,1.8c0,0.8-0.6,1.4-1.1,1.8c-1.2,1-7.9,6.6-8.4,7
		c-0.2,0.1-0.3,0.2-0.4,0.2c-0.1,0-0.2-0.1-0.4-0.2c-0.1-0.1-0.3-0.3-0.9-0.7c1.7-0.5,2.9-1.8,3.6-3.6c0.6-1.4,0.9-3.2,0.9-5.4
		C113.2,249.1,112.8,246.9,112.7,246.4"/>
	<path fill="#999999" d="M102.5,265.7c-0.7,0-1.2,0.4-1.2,0.8c0,0.3,0.3,0.4,0.7,0.4c0.6,0,1.2-0.4,1.2-0.8
		C103.2,265.9,102.9,265.7,102.5,265.7"/>
	<path fill="#999999" d="M102.3,263.3L102.3,263.3l-2.3,5.3h-1l2.8-6h1.1l2.8,6h-1.1L102.3,263.3z M107.1,267.9h1.4
		c1.8,0,2.6-1,2.6-2.3c0-1.4-0.9-2.3-2.6-2.3h-1.5V267.9z M106.2,262.5h2.4c2.2,0,3.5,1.1,3.5,3c0,1.8-1.3,3-3.5,3h-2.4V262.5z
		 M116.7,267.6l-2.3-5.1h-1.3v6h0.9v-5h0l2.3,5h0.8l2.3-5h0v5h0.9v-6H119L116.7,267.6L116.7,267.6z"/>
	<path fill="#999999" d="M113.7,261.1c-0.3,0-0.6-0.3-0.6-0.6c0-0.4,0.3-0.6,0.6-0.6c0.4,0,0.6,0.3,0.6,0.6
		C114.3,260.8,114,261.1,113.7,261.1 M113.7,259.9c-0.3,0-0.5,0.2-0.5,0.5c0,0.3,0.2,0.5,0.5,0.5c0.3,0,0.5-0.2,0.5-0.5
		C114.2,260.2,114,259.9,113.7,259.9 M113.7,260.1c0.1,0,0.1,0,0.2,0c0.1,0,0.1,0.1,0.1,0.2c0,0.1-0.1,0.2-0.2,0.2
		c0.1,0,0.1,0.1,0.1,0.2c0,0.1,0,0.1,0.1,0.2h-0.1c0,0,0-0.1,0-0.1c0,0,0-0.1,0-0.1c0-0.1-0.1-0.1-0.2-0.1h-0.1v0.3h-0.1v-0.7H113.7
		z M113.5,260.4h0.1c0,0,0.2,0,0.2-0.1c0,0,0-0.1,0-0.1c0,0-0.1,0-0.2,0h-0.1V260.4z"/>
</g>
<g>
	<path fill="#999999" d="M30.4,61.6c0.1-1,0.8-3.9,2.3-8.2c2.9-8,8.9-19.7,20.2-23.4l0,3.2c0,0-10.9,3.5-19.2,20.6
		C32.1,57.3,31,60.8,30.4,61.6L30.4,61.6z M45.9,58.9C57.7,56,60.3,42.3,60.2,31.1c0-8.3-1.4-15.3-1.4-15.3
		C32.4,26.1,26.5,35.8,26.4,42.4c0,2.5,0.7,4.4,1.3,5.3l0,0c-0.2-0.7-0.5-2-0.5-3.2c-0.1-5.9,5-14.5,28.7-23.6c0,0,1.3,6.2,1.3,13.6
		C57.2,43.9,55.3,55.5,45.9,58.9L45.9,58.9z"/>
	<path fill="#999999" d="M59.9,13.8c-10.1,3.8-17.7,7.7-23.3,11.6c-5.6,3.9-9.1,7.9-10.8,12.2c-0.4,1-0.8,2.5-0.9,3.9
		c-1.2-1-1.6-1.3-2.1-1.8c-1.8-1.5-3.7-3.2-3.7-5.9c0-2.7,1.9-4.4,3.7-5.9c3.9-3.2,25.6-21.3,27.2-22.7c0.5-0.4,0.9-0.6,1.3-0.6
		c0.4,0,0.8,0.2,1.3,0.6c1.7,1.4,23.4,19.5,27.2,22.7c1.8,1.5,3.7,3.2,3.7,5.9c0,2.7-1.9,4.4-3.7,5.9C76.1,42.9,54.4,61,52.7,62.4
		c-0.5,0.4-0.9,0.6-1.3,0.6c-0.5,0-0.8-0.2-1.3-0.6c-0.4-0.3-1-0.8-2.8-2.3c5.5-1.7,9.4-5.8,11.7-11.6c1.8-4.6,2.8-10.4,2.8-17.3
		C61.8,22.6,60.3,15.4,59.9,13.8"/>
	<path fill="#999999" d="M27,76.4c-2.1,0-4,1.4-4,2.5c0,1,1.1,1.4,2.2,1.4c2,0,4-1.3,4-2.5C29.2,77,28.3,76.4,27,76.4"/>
	<path fill="#999999" d="M26.3,68.4L26.3,68.4l-7.6,17.1h-3.3L24.6,66h3.6l9.1,19.5h-3.5L26.3,68.4z M41.9,83.3h4.7
		c5.7,0,8.4-3.2,8.4-7.5c0-4.6-2.9-7.6-8.3-7.6h-4.7V83.3z M38.8,66h7.8c7,0,11.5,3.6,11.5,9.7c0,5.8-4.2,9.7-11.5,9.7h-7.8V66z
		 M72.9,82.4L65.5,66h-4.3v19.5h2.9V69.3h0.1l7.3,16.2h2.7l7.3-16.2h0.1v16.2h2.9V66h-4.3L72.9,82.4L72.9,82.4z"/>
	<path fill="#999999" d="M63.1,61.4c-1,0-2-0.8-2-2c0-1.2,0.9-2,2-2c1.2,0,2,0.9,2,2C65.1,60.5,64.3,61.4,63.1,61.4 M63.2,57.6
		c-1,0-1.8,0.8-1.8,1.8c0,1,0.8,1.8,1.8,1.8c1,0,1.8-0.8,1.8-1.8C64.9,58.4,64.2,57.6,63.2,57.6 M63.1,58.2c0.3,0,0.4,0,0.6,0.1
		c0.3,0.1,0.4,0.3,0.4,0.5c0,0.3-0.2,0.5-0.6,0.5c0.3,0.1,0.4,0.2,0.4,0.5c0.1,0.3,0.1,0.5,0.2,0.7h-0.4c-0.1-0.1-0.1-0.2-0.1-0.3
		c0,0-0.1-0.3-0.1-0.4c-0.1-0.3-0.3-0.4-0.6-0.4h-0.2v1h-0.4v-2.2H63.1z M62.7,59.2h0.4c0.2,0,0.6,0,0.6-0.4c0-0.1,0-0.2-0.1-0.2
		c-0.1-0.1-0.2-0.1-0.5-0.1h-0.3V59.2z"/>
</g>
</svg>
