<?xml version="1.0" encoding="utf-8"?>
<!-- Generator: Adobe Illustrator 18.1.1, SVG Export Plug-In . SVG Version: 6.00 Build 0)  -->
<!DOCTYPE svg PUBLIC "-//W3C//DTD SVG 1.1//EN" "http://www.w3.org/Graphics/SVG/1.1/DTD/svg11.dtd">
<svg version="1.1" id="Layer_1" xmlns="http://www.w3.org/2000/svg" xmlns:xlink="http://www.w3.org/1999/xlink" x="0px" y="0px"
	 viewBox="0 0 100 42" enable-background="new 0 0 100 42" xml:space="preserve">
<g>
	<g>
		<path fill="#999999" d="M16.5,19.8l-11.5,0c-0.1-1-0.1-1.8,0-2.6l11.5,2.4C16.5,19.7,16.5,19.7,16.5,19.8"/>
	</g>
	<g>
		<path fill="#999999" d="M24.3,18.5l9.8-3.7c0.2,0.7,0.3,1.5,0.4,2.3l-10,1.5C24.4,18.6,24.4,18.6,24.3,18.5"/>
		<path fill="#999999" d="M16.7,18.4L5.2,15.7c0.2-1,0.6-2.4,1-3.3l10.6,5.8C16.8,18.3,16.7,18.4,16.7,18.4"/>
		<path fill="#999999" d="M23.1,16.6l6.5-9.2c0.7,0.7,1.6,1.5,2.1,2.3l-8.4,7C23.2,16.7,23.2,16.7,23.1,16.6"/>
		<path fill="#999999" d="M17.5,17L7.2,10.5c0.5-1,2.1-2.7,3-3.4l7.5,9.8C17.6,16.9,17.6,17,17.5,17"/>
		<path fill="#999999" d="M21.3,15.7l0.3-11.9c1.3,0.1,3.2,0.6,4.2,1.1l-4.3,10.8C21.4,15.7,21.3,15.7,21.3,15.7"/>
		<path fill="#999999" d="M19.1,15.9L12.5,5.6c1.7-0.9,3.6-1.5,5.3-1.7l1.5,12C19.3,15.9,19.2,15.9,19.1,15.9"/>
		<path fill="#999999" d="M6,23.5c0,0-0.2-0.5-0.4-1.2C5.4,21.7,5.2,21,5.2,21c3.8-0.5,9.6-0.5,13.7-0.5C18.9,20.5,11.1,21.2,6,23.5
			"/>
		<path fill="#999999" d="M14.4,31.6c0,0-0.9-0.3-2.1-0.9c-1.1-0.6-2-1.4-2-1.4c2.3-2.8,9.6-8.5,16.5-8.8
			C26.8,20.5,19.7,23,14.4,31.6"/>
		<path fill="#999999" d="M23.6,32.1c0,0-1.7,0.5-3.9,0.5c-2.1,0-3-0.3-3-0.3c0.4-1.5,5.4-10,11.3-11.8C28,20.5,23.4,25.3,23.6,32.1
			"/>
		<path fill="#999999" d="M8.7,27.8c0,0-0.5-0.4-1.2-1.5c-0.7-1-1-1.6-1-1.6c1.9-1.2,8.4-4.2,17.7-4.2C24.3,20.5,16.2,21.9,8.7,27.8
			"/>
		<path fill="#999999" d="M25.1,38l8.3-17.5H38L37.2,38h-3.7l0.3-3.5h-3.4L28.9,38H25.1z M34.8,24.2l-3.3,7.7H34L34.8,24.2z"/>
		<path fill="#999999" d="M38,38l3.3-13.4H45l-0.2,1c0.3-0.2,1.6-1.2,3.2-1.2c1.7,0,2,1.1,2.1,1.4c0.4-0.2,2-1.4,3.5-1.4
			c2.5,0,2,1.9,1.8,2.6l-2.8,11h-3.6l2.6-10.5c0.1-0.3,0-0.7-0.7-0.7c-0.5,0-0.9,0.3-1.1,0.5L47.1,38h-3.6l2.6-10.5
			c0-0.1,0.2-0.7-0.7-0.7c-0.3,0-0.9,0.3-1.1,0.4L41.7,38H38z"/>
		<path fill="#999999" d="M58.7,38.2c-3.4,0-4.4-1.3-3.7-4l1.5-6c0.5-2.1,2.4-3.9,5.6-3.9c4.1,0,4,2.8,3.8,3.5l-1.1,4.1H59l-0.7,2.8
			c-0.2,0.7,0,1.2,0.8,1.2c0.8,0,1.4-0.5,1.5-1.2l0.3-1.4h3.5l-0.3,1.3C63.6,36.1,62.2,38.2,58.7,38.2 M60,27.6l-0.5,2h2.3l0.5-2
			c0.1-0.3,0.2-1-0.8-1C60.7,26.6,60.2,27.1,60,27.6"/>
		<path fill="#999999" d="M64.6,38L68,24.6h3.5l-0.3,1.3c1.4-1.1,2.5-1.6,4.6-1.6L75,26.9c-0.5-0.1-0.9-0.1-1.4-0.1
			c-2.7,0-3.2,1.7-3.4,2.6L68.1,38H64.6z"/>
	</g>
	<g>
		<path fill="#999999" d="M77.1,38.2c-3.4,0-4.4-1.3-3.7-4l1.5-6c0.5-2.1,2.4-3.9,5.6-3.9c4.1,0,4,2.8,3.8,3.5l-1.1,4.1h-5.9
			l-0.7,2.8c-0.2,0.7,0,1.2,0.8,1.2s1.4-0.5,1.5-1.2l0.3-1.4h3.5l-0.3,1.3C82,36.1,80.6,38.2,77.1,38.2 M78.5,27.6l-0.5,2h2.3l0.5-2
			c0.1-0.3,0.2-1-0.8-1C79.1,26.6,78.6,27.1,78.5,27.6"/>
		<path fill="#999999" d="M83.1,38l3.3-13.4h3.6l-0.3,1c0.4-0.3,1.5-1.3,3.2-1.3c2.7,0,2.1,2.2,1.8,3.5L92.2,38h-3.6l2.4-9.5
			c0.3-1.1,0.4-1.6-0.4-1.6c-0.4,0-0.8,0.2-1.2,0.4L86.7,38H83.1z"/>
	</g>
</g>
</svg>
