<?xml version="1.0" encoding="utf-8"?>
<!-- Generator: Adobe Illustrator 18.1.1, SVG Export Plug-In . SVG Version: 6.00 Build 0)  -->
<!DOCTYPE svg PUBLIC "-//W3C//DTD SVG 1.1//EN" "http://www.w3.org/Graphics/SVG/1.1/DTD/svg11.dtd">
<svg version="1.1" id="Layer_1" xmlns="http://www.w3.org/2000/svg" xmlns:xlink="http://www.w3.org/1999/xlink" x="0px" y="0px"
	 viewBox="0 0 85 85" enable-background="new 0 0 85 85" xml:space="preserve">
<g>
	<path fill="#FFFFFF" d="M42.5,83.5c-22.6,0-41-18.4-41-41c0-22.6,18.4-41,41-41s41,18.4,41,41C83.5,65.1,65.1,83.5,42.5,83.5z
		 M42.5,3.5c-21.5,0-39,17.5-39,39c0,21.5,17.5,39,39,39s39-17.5,39-39C81.5,21,64,3.5,42.5,3.5z"/>
	<path fill="#FFFFFF" d="M41,33.5c0.7,0.9,1,2.1,1,3.4c0,1.4-0.3,2.5-1,3.3c-0.4,0.5-1,0.9-1.7,1.3c1.1,0.4,2,1.1,2.6,2
		c0.6,0.9,0.9,2,0.9,3.3c0,1.3-0.3,2.5-1,3.5c-0.4,0.7-0.9,1.3-1.6,1.8c-0.7,0.5-1.5,0.9-2.5,1.1c-1,0.2-2,0.3-3.1,0.3h-10V31.1
		h10.8C38,31.1,39.9,31.9,41,33.5z M28.9,35v4.9h5.4c1,0,1.7-0.2,2.4-0.6c0.6-0.4,0.9-1,0.9-2c0-1-0.4-1.7-1.2-2.1
		c-0.7-0.2-1.6-0.3-2.6-0.3H28.9z M28.9,43.5v5.9h5.4c1,0,1.7-0.1,2.3-0.4c1-0.5,1.5-1.4,1.5-2.8c0-1.2-0.5-2-1.4-2.4
		c-0.5-0.2-1.3-0.4-2.2-0.4H28.9z M56.2,37.2c1.1,0.5,2.1,1.3,2.8,2.4c0.7,1,1.1,2.1,1.3,3.4c0.1,0.8,0.2,1.8,0.1,3.3h-12
		c0.1,1.7,0.6,2.8,1.7,3.5c0.7,0.4,1.4,0.6,2.4,0.6c1,0,1.8-0.3,2.4-0.8c0.3-0.3,0.6-0.6,0.9-1.1h4.4c-0.1,1-0.6,2-1.6,3
		c-1.5,1.6-3.5,2.4-6.2,2.4c-2.2,0-4.1-0.7-5.8-2c-1.7-1.4-2.5-3.5-2.5-6.6c0-2.9,0.8-5,2.3-6.6c1.5-1.5,3.5-2.3,5.9-2.3
		C53.8,36.5,55.1,36.7,56.2,37.2z M49.8,40.9c-0.6,0.6-1,1.5-1.1,2.5H56c-0.1-1.1-0.5-2-1.1-2.6c-0.7-0.6-1.5-0.9-2.6-0.9
		C51.2,40,50.4,40.3,49.8,40.9z M57,32.1h-9.5v2.8H57V32.1z"/>
</g>
</svg>
