<?xml version="1.0" encoding="utf-8"?>
<!-- Generator: Adobe Illustrator 18.1.1, SVG Export Plug-In . SVG Version: 6.00 Build 0)  -->
<!DOCTYPE svg PUBLIC "-//W3C//DTD SVG 1.1//EN" "http://www.w3.org/Graphics/SVG/1.1/DTD/svg11.dtd">
<svg version="1.1" id="Layer_1" xmlns="http://www.w3.org/2000/svg" xmlns:xlink="http://www.w3.org/1999/xlink" x="0px" y="0px"
	 viewBox="0 0 85 85" enable-background="new 0 0 85 85" xml:space="preserve">
<g>
	<path fill="#FFFFFF" d="M42.5,83.5c-22.6,0-41-18.4-41-41c0-22.6,18.4-41,41-41c22.6,0,41,18.4,41,41
		C83.5,65.1,65.1,83.5,42.5,83.5z M42.5,3.5c-21.5,0-39,17.5-39,39c0,21.5,17.5,39,39,39s39-17.5,39-39C81.5,21,64,3.5,42.5,3.5z"/>
	<path fill-rule="evenodd" clip-rule="evenodd" fill="#FFFFFF" d="M60.1,38.9c-0.2-1.2-0.6-2.3-1-3.4c-0.5-1.1-1-2.1-1.7-3.1
		c-0.6-1-1.4-1.8-2.2-2.7c-0.8-0.8-1.7-1.6-2.7-2.2c-1-0.7-2-1.2-3.1-1.7c-1.1-0.5-2.2-0.8-3.4-1c-1.2-0.2-2.4-0.4-3.6-0.4
		c-1.2,0-2.4,0.1-3.6,0.4c-1.2,0.2-2.3,0.6-3.4,1c-1.1,0.5-2.1,1-3.1,1.7c-1,0.6-1.8,1.4-2.7,2.2c-0.8,0.8-1.6,1.7-2.2,2.7
		c-0.7,1-1.2,2-1.7,3.1c-0.5,1.1-0.8,2.2-1,3.4c-0.2,1.2-0.4,2.4-0.4,3.6c0,1.2,0.1,2.4,0.4,3.6c0.2,1.2,0.6,2.3,1,3.4
		c0.5,1.1,1,2.1,1.7,3.1c0.6,1,1.4,1.8,2.2,2.7c0.8,0.8,1.7,1.6,2.7,2.2c1,0.6,2,1.2,3.1,1.7c1.1,0.5,2.2,0.8,3.4,1
		c1.2,0.2,2.4,0.4,3.6,0.4c1.2,0,2.4-0.1,3.6-0.4c1.2-0.2,2.3-0.6,3.4-1c1.1-0.5,2.1-1,3.1-1.7c1-0.6,1.8-1.4,2.7-2.2
		c0.8-0.8,1.6-1.7,2.2-2.7c0.6-1,1.2-2,1.7-3.1c0.5-1.1,0.8-2.2,1-3.4c0.2-1.2,0.4-2.4,0.4-3.6C60.5,41.3,60.4,40.1,60.1,38.9z
		 M57.9,42.3c-0.2,0-5.4-1.2-10.7-0.5c-0.1-0.3-0.2-0.5-0.3-0.8c-0.3-0.8-0.7-1.5-1-2.2c6.1-2.5,8.5-6,8.6-6.1
		C56.5,35.4,57.8,38.7,57.9,42.3z M52.6,31c0,0.1-2.2,3.4-8,5.6c-2.6-4.8-5.5-8.7-5.7-9c1.2-0.3,2.4-0.4,3.6-0.4
		C46.4,27.1,49.9,28.6,52.6,31z M38.8,27.6C38.8,27.6,38.8,27.6,38.8,27.6C38.8,27.6,38.8,27.6,38.8,27.6
		C38.8,27.6,38.8,27.6,38.8,27.6z M35.9,28.6c0.2,0.3,3,4.1,5.7,8.9c-7.4,2-13.8,1.9-14.2,1.9C28.5,34.6,31.7,30.6,35.9,28.6z
		 M27.1,42.5c0-0.2,0-0.3,0-0.5c0.3,0,7.9,0.2,15.8-2.2c0.4,0.9,0.9,1.7,1.2,2.6c-0.2,0.1-0.4,0.1-0.6,0.2
		c-8.3,2.7-12.5,10.1-12.5,10.1s0,0,0,0C28.6,50,27.1,46.4,27.1,42.5z M42.5,57.9c-3.7,0-7.1-1.3-9.8-3.5c0.2,0.2,0.3,0.3,0.3,0.3
		S36,48.2,45.1,45c0,0,0.1,0,0.1,0c2.2,5.6,3.1,10.3,3.3,11.7C46.7,57.4,44.6,57.9,42.5,57.9z M51.1,55.2c-0.2-0.9-1-5.4-3-11
		c5-0.8,9.3,0.6,9.6,0.7C57,49.2,54.5,52.9,51.1,55.2z"/>
</g>
</svg>
