<?xml version="1.0" encoding="utf-8"?>
<!-- Generator: Adobe Illustrator 18.1.1, SVG Export Plug-In . SVG Version: 6.00 Build 0)  -->
<!DOCTYPE svg PUBLIC "-//W3C//DTD SVG 1.1//EN" "http://www.w3.org/Graphics/SVG/1.1/DTD/svg11.dtd">
<svg version="1.1" id="Layer_1" xmlns="http://www.w3.org/2000/svg" xmlns:xlink="http://www.w3.org/1999/xlink" x="0px" y="0px"
	 viewBox="0 0 100 33" enable-background="new 0 0 100 33" xml:space="preserve">
<g>
	<g>
		<path fill="#999999" d="M23.4,16.5c0,5.8-4.7,10.6-10.6,10.6S2.2,22.3,2.2,16.5c0-5.8,4.7-10.6,10.6-10.6S23.4,10.7,23.4,16.5"/>
		<path fill="#FFFFFF" d="M12.8,6.2c-5.7,0-10.3,4.6-10.3,10.3c0,5.7,4.6,10.3,10.3,10.3c5.7,0,10.3-4.6,10.3-10.3
			C23.1,10.8,18.5,6.2,12.8,6.2 M12.8,27.3c-6,0-10.8-4.9-10.8-10.8c0-6,4.9-10.8,10.8-10.8c6,0,10.8,4.9,10.8,10.8
			C23.6,22.5,18.8,27.3,12.8,27.3"/>
	</g>
	<rect x="2.2" y="15.5" fill="#FFFFFF" width="21.2" height="0.5"/>
	<rect x="5.5" y="8.6" fill="#FFFFFF" width="14.6" height="0.5"/>
	<rect x="4.6" y="22.9" fill="#FFFFFF" width="16.3" height="0.5"/>
	<polygon fill="#999999" points="26.9,18.3 26.9,13.4 29.6,13.4 29.5,14.1 27.7,14.1 27.7,15.4 29.2,15.4 29.2,16.1 27.8,16.1 
		27.8,17.6 29.7,17.6 29.7,18.3 	"/>
	<polygon fill="#999999" points="33.8,18.3 32.8,16.4 31.9,18.3 30.9,18.3 32.4,15.7 31.1,13.4 32,13.4 32.8,14.9 33.6,13.4 
		34.5,13.4 33.3,15.6 34.8,18.3 	"/>
	<g>
		<path fill="#999999" d="M38.5,14.3c-0.1-0.2-0.4-0.2-0.7-0.2h-0.6v1.7h0.6c0.6,0,0.9-0.3,0.9-0.9C38.7,14.7,38.6,14.5,38.5,14.3
			 M38,16.4h-0.8v1.9h-0.8v-4.9h1.3c0.7,0,1,0.1,1.2,0.2c0.4,0.3,0.7,0.7,0.7,1.2C39.6,15.8,38.9,16.4,38,16.4"/>
		<path fill="#999999" d="M42.6,14.1h-0.4v1.5h0.4c0.4,0,0.6-0.1,0.8-0.2c0.1-0.1,0.2-0.3,0.2-0.6C43.6,14.3,43.3,14.1,42.6,14.1
			 M43.7,18.3l-0.4-0.8c-0.3-0.6-0.6-0.9-0.8-1.2c-0.1-0.1-0.2-0.1-0.3-0.1v2.1h-0.8v-4.9h1.5c1.1,0,1.6,0.6,1.6,1.4
			c0,0.7-0.5,1.3-1.2,1.3c0.2,0.1,0.5,0.6,0.8,1l0.7,1.2H43.7z"/>
	</g>
	<polygon fill="#999999" points="46.4,18.3 46.4,13.4 49.1,13.4 49,14.1 47.3,14.1 47.3,15.4 48.8,15.4 48.8,16.1 47.3,16.1 
		47.3,17.6 49.2,17.6 49.2,18.3 	"/>
	<g>
		<path fill="#999999" d="M52.3,18.4c-0.6,0-1.1-0.1-1.6-0.4l0.3-0.6c0.4,0.3,0.8,0.4,1.3,0.4c0.6,0,1-0.3,1-0.8
			c0-0.4-0.2-0.6-0.7-0.7L52,16.1c-0.4-0.1-0.8-0.3-0.9-0.6c-0.1-0.2-0.2-0.4-0.2-0.7c0-0.9,0.7-1.4,1.7-1.4c0.6,0,1.1,0.2,1.5,0.5
			l-0.4,0.6C53.3,14.1,53,14,52.6,14c-0.5,0-0.8,0.3-0.8,0.7c0,0.3,0.2,0.5,0.6,0.6l0.6,0.2c0.7,0.2,1.2,0.7,1.2,1.4
			C54.2,17.6,53.5,18.4,52.3,18.4"/>
		<path fill="#999999" d="M57.4,18.4c-0.6,0-1.1-0.1-1.6-0.4l0.3-0.6c0.4,0.3,0.8,0.4,1.3,0.4c0.6,0,1-0.3,1-0.8
			c0-0.4-0.2-0.6-0.7-0.7l-0.5-0.1c-0.4-0.1-0.8-0.3-0.9-0.6c-0.1-0.2-0.2-0.4-0.2-0.7c0-0.9,0.7-1.4,1.7-1.4c0.6,0,1.1,0.2,1.5,0.5
			l-0.4,0.6C58.3,14.1,58,14,57.6,14c-0.5,0-0.8,0.3-0.8,0.7c0,0.3,0.2,0.5,0.6,0.6l0.6,0.2c0.7,0.2,1.2,0.7,1.2,1.4
			C59.3,17.6,58.6,18.4,57.4,18.4"/>
		<path fill="#999999" d="M65.1,18.4c-0.6,0-1.1-0.1-1.6-0.4l0.3-0.6c0.4,0.3,0.8,0.4,1.3,0.4c0.6,0,1-0.3,1-0.8
			c0-0.4-0.2-0.6-0.7-0.7l-0.5-0.1c-0.4-0.1-0.8-0.3-0.9-0.6c-0.1-0.2-0.2-0.4-0.2-0.7c0-0.9,0.7-1.4,1.7-1.4c0.6,0,1.1,0.2,1.5,0.5
			l-0.4,0.6C66,14.1,65.7,14,65.3,14c-0.5,0-0.8,0.3-0.8,0.7c0,0.3,0.2,0.5,0.6,0.6l0.6,0.2c0.7,0.2,1.2,0.7,1.2,1.4
			C67,17.6,66.3,18.4,65.1,18.4"/>
		<path fill="#999999" d="M70.8,18.4c-0.6,0-1.2-0.2-1.5-0.7c-0.4-0.4-0.6-1-0.6-1.7c0-0.6,0.1-1.1,0.3-1.5c0.4-0.7,1-1.1,1.8-1.1
			c0.5,0,0.9,0.1,1.2,0.4l-0.4,0.5C71.4,14,71.1,14,70.8,14c-0.4,0-0.8,0.2-1,0.6c-0.2,0.3-0.3,0.7-0.3,1.3c0,0.6,0.1,0.9,0.2,1.2
			c0.2,0.5,0.6,0.7,1.1,0.7c0.3,0,0.6-0.1,0.9-0.3l0.4,0.5C71.7,18.2,71.3,18.4,70.8,18.4"/>
		<path fill="#999999" d="M75.2,14.1h-0.4v1.5h0.4c0.4,0,0.6-0.1,0.8-0.2c0.1-0.1,0.2-0.3,0.2-0.6C76.2,14.3,75.9,14.1,75.2,14.1
			 M76.3,18.3l-0.4-0.8c-0.3-0.6-0.6-0.9-0.8-1.2c-0.1-0.1-0.2-0.1-0.3-0.1v2.1H74v-4.9h1.5c1.1,0,1.6,0.6,1.6,1.4
			c0,0.7-0.5,1.3-1.2,1.3c0.2,0.1,0.5,0.6,0.8,1l0.7,1.2H76.3z"/>
	</g>
	<rect x="79.1" y="13.4" fill="#999999" width="0.8" height="4.9"/>
	<g>
		<path fill="#999999" d="M84.2,14.3c-0.1-0.2-0.4-0.2-0.7-0.2h-0.6v1.7h0.6c0.6,0,0.9-0.3,0.9-0.9C84.4,14.7,84.3,14.5,84.2,14.3
			 M83.7,16.4h-0.8v1.9h-0.8v-4.9h1.3c0.7,0,1,0.1,1.2,0.2c0.4,0.3,0.7,0.7,0.7,1.2C85.3,15.8,84.6,16.4,83.7,16.4"/>
	</g>
	<polygon fill="#999999" points="89.7,14.1 88.5,14.1 88.5,18.3 87.7,18.3 87.7,14.1 86.5,14.1 86.5,13.4 89.8,13.4 	"/>
	<g>
		<path fill="#999999" d="M92.6,18.4c-0.6,0-1.1-0.1-1.6-0.4l0.3-0.6c0.4,0.3,0.8,0.4,1.3,0.4c0.6,0,1-0.3,1-0.8
			c0-0.4-0.2-0.6-0.7-0.7l-0.5-0.1c-0.4-0.1-0.8-0.3-0.9-0.6c-0.1-0.2-0.2-0.4-0.2-0.7c0-0.9,0.7-1.4,1.7-1.4c0.6,0,1.1,0.2,1.5,0.5
			L94,14.4c-0.5-0.3-0.8-0.4-1.1-0.4c-0.5,0-0.8,0.3-0.8,0.7c0,0.3,0.2,0.5,0.6,0.6l0.6,0.2c0.7,0.2,1.2,0.7,1.2,1.4
			C94.5,17.6,93.8,18.4,92.6,18.4"/>
		<path fill="#999999" d="M97,14.2c0,0-0.1,0-0.1,0h-0.1v0.4h0.1c0.1,0,0.2,0,0.2,0c0,0,0-0.1,0-0.1C97.1,14.3,97.1,14.3,97,14.2
			 M97.1,15.3c-0.1-0.1-0.1-0.1-0.1-0.2c-0.1-0.2-0.2-0.3-0.2-0.3c0,0,0,0,0,0v0.5h-0.3V14H97c0.2,0,0.4,0.2,0.4,0.4
			c0,0.2-0.1,0.4-0.3,0.4c0,0,0,0,0.1,0.1c0.1,0.1,0.3,0.5,0.3,0.5H97.1z M96.9,13.7c-0.5,0-0.9,0.4-0.9,0.9c0,0.5,0.4,0.9,0.9,0.9
			c0.5,0,0.9-0.4,0.9-0.9C97.8,14.1,97.4,13.7,96.9,13.7 M96.9,15.8c-0.6,0-1.2-0.5-1.2-1.2c0-0.6,0.5-1.2,1.2-1.2
			c0.6,0,1.2,0.5,1.2,1.2C98.1,15.3,97.5,15.8,96.9,15.8"/>
		<path fill="#FFFFFF" d="M11.2,11.4c0.8-1.8,0.7-2-1.3-2.2l0.2-0.5h9.7c0,0,1.1,0.9,1.5,1.5c-0.2,0.6-0.4,1-0.5,1.5L20,11.9
			c0.2-0.9,0.1-1.5-0.2-1.9c-0.3-0.4-1-0.6-2.6-0.6h-2c-0.8,0-0.8,0-1.1,0.7l-2.4,5.1h2.5c2.3,0,2.6-0.2,3.6-1.6h0.7l-1.9,4H16
			c0.3-1.5,0.1-1.6-2.1-1.6h-2.5l-2,4.3c-0.4,1-0.6,1.5-0.2,1.8c0.4,0.3,1.2,0.3,2.5,0.3c1.8,0,2.9-0.2,3.7-0.7
			c0.7-0.4,1.5-1.1,2.4-2l0.7,0.1c-0.4,0.5-2,2.7-2.5,3.3H4.5c0,0-0.2-0.3-0.4-0.5C6,22.3,6.3,22,7,20.4L11.2,11.4z"/>
		<path fill="none" stroke="#FFFFFF" stroke-width="0.268" d="M11.2,11.4c0.8-1.8,0.7-2-1.3-2.2l0.2-0.5h9.7c0,0,1.1,0.9,1.5,1.5
			c-0.2,0.6-0.4,1-0.5,1.5L20,11.9c0.2-0.9,0.1-1.5-0.2-1.9c-0.3-0.4-1-0.6-2.6-0.6h-2c-0.8,0-0.8,0-1.1,0.7l-2.4,5.1h2.5
			c2.3,0,2.6-0.2,3.6-1.6h0.7l-1.9,4H16c0.3-1.5,0.1-1.6-2.1-1.6h-2.5l-2,4.3c-0.4,1-0.6,1.5-0.2,1.8c0.4,0.3,1.2,0.3,2.5,0.3
			c1.8,0,2.9-0.2,3.7-0.7c0.7-0.4,1.5-1.1,2.4-2l0.7,0.1c-0.4,0.5-2,2.7-2.5,3.3H4.5c0,0-0.2-0.3-0.4-0.5C6,22.3,6.3,22,7,20.4
			L11.2,11.4z"/>
		<path fill="#FFFFFF" d="M7.9,11.6l0-0.5c0.3,0,0.5,0,0.8,0c0.2,0,0.3,0,0.5,0l0,0.5c-0.2,0-0.3,0-0.5,0
			C8.4,11.5,8.2,11.5,7.9,11.6 M11.5,12c-0.4-0.1-0.8-0.3-1.2-0.3l0.1-0.5c0.4,0.1,0.9,0.2,1.3,0.4L11.5,12z M5.6,12.1l-0.2-0.5
			c0.4-0.2,0.8-0.3,1.3-0.4l0.1,0.5C6.4,11.8,6,12,5.6,12.1 M13.5,13.1c-0.3-0.2-0.7-0.5-1-0.7l0.2-0.5c0.4,0.2,0.8,0.4,1.1,0.7
			L13.5,13.1z M3.6,13.3l-0.3-0.4c0.3-0.3,0.7-0.5,1.1-0.7l0.3,0.4C4.3,12.8,3.9,13,3.6,13.3 M15.2,14.8c-0.2-0.3-0.5-0.6-0.8-0.9
			l0.4-0.4c0.3,0.3,0.6,0.6,0.9,1L15.2,14.8z M16.3,16.9c-0.1-0.4-0.3-0.8-0.5-1.1l0.4-0.2c0.2,0.4,0.4,0.8,0.5,1.2L16.3,16.9z"/>
		<path fill="#FFFFFF" d="M16.4,19.6c0-0.4-0.1-0.8-0.1-1.2l0.5-0.1c0.1,0.4,0.1,0.9,0.1,1.3L16.4,19.6z M15.7,24.1l-0.4-0.3
			c0.2-0.3,0.4-0.7,0.6-1.1l0.5,0.2C16.1,23.3,15.9,23.7,15.7,24.1 M14.1,26l-0.3-0.4c0.3-0.3,0.6-0.6,0.9-0.9l0.4,0.3
			C14.7,25.4,14.4,25.7,14.1,26"/>
	</g>
	<polygon fill="#FFFFFF" points="5.2,24.3 4.9,23.9 13.4,5.8 13.9,6 5.3,24.2 	"/>
	
		<rect x="11.1" y="5.2" transform="matrix(0.9068 0.4216 -0.4216 0.9068 7.7415 -3.3167)" fill="#FFFFFF" width="0.5" height="21.2"/>
	<path fill="#FFFFFF" d="M12.2,27.2l-0.4-0.3c0.4-0.2,0.8-0.3,1.1-0.5l0.3,0.4C12.8,27.1,12.7,27.1,12.2,27.2L12.2,27.2z"/>
</g>
</svg>
