<?xml version="1.0" encoding="utf-8"?>
<!-- Generator: Adobe Illustrator 18.1.1, SVG Export Plug-In . SVG Version: 6.00 Build 0)  -->
<!DOCTYPE svg PUBLIC "-//W3C//DTD SVG 1.1//EN" "http://www.w3.org/Graphics/SVG/1.1/DTD/svg11.dtd">
<svg version="1.1" id="Layer_1" xmlns="http://www.w3.org/2000/svg" xmlns:xlink="http://www.w3.org/1999/xlink" x="0px" y="0px"
	 viewBox="0 0 100 42" enable-background="new 0 0 100 42" xml:space="preserve">
<g>
	<g>
		<path fill="#999999" d="M64.3,8.3c0.1,0.6,0,0.7,0,1.1c0,0.3,0,0.5,0.1,0.7c0.2,0.4,0.3,0.5,0.6,0.8c0.1,0.1,0.1,0.3-0.1,0.5
			c-0.2,0.1-0.4,0.2-0.4,0.3c0,0.1,0,0.2,0,0.3c0,0,0.1,0,0.1,0.1c0.1,0.1,0,0.2-0.1,0.3c-0.1,0.1-0.3,0.2-0.4,0.2c-0.1,0-0.1,0,0,0
			c0.4,0.1,0.3,0.4,0.2,0.4c-0.1,0-0.1,0-0.2,0.1c-0.1,0.1-0.1,0.2-0.1,0.4c0,0.1,0.1,0.3,0,0.5c-0.1,0.2-0.2,0.3-0.5,0.3
			c-0.4,0-0.7,0-1.2,0c-0.4,0-0.6,0-0.8,0.1c-0.3,0.2-0.7,0.5-1.3,1.3c-0.3,0.4-2.8,3.7-3.7,4.9c0.5,0.3,1,0.5,1.3,0.6
			c1.3-0.4,4.2-2.2,4.2-4.5c0.4,0.3,0.9,0.4,1.3,0.4c2.4,0,3.5-1.9,3.5-4.5C66.8,10.3,66,8.7,64.3,8.3 M59.9,13.6
			c0,0,0.2-0.1,0.9-0.1c0.4,0,0.7,0,1.1,0c0.3,0,0.4-0.1,0.5-0.3c0.1-0.2,0.1-0.4,0-0.5c-0.1-0.2,0-0.3,0.1-0.4c0.1,0,0.1,0,0.2-0.1
			c0.1,0,0.2-0.4-0.2-0.4c-0.1,0-0.1,0,0,0c0.2-0.1,0.3-0.1,0.4-0.2c0.1-0.1,0.2-0.2,0.1-0.3c0,0,0,0-0.1-0.1c0,0-0.1-0.2,0-0.3
			c0-0.1,0.3-0.2,0.4-0.3c0.2-0.1,0.2-0.3,0.1-0.5c-0.3-0.3-0.4-0.4-0.6-0.8c-0.2-0.4-0.1-1-0.1-1.5c-0.1-0.7-0.2-3.6-4.9-3.5
			c-2.5,0-4.5,1.1-4.4,3.6c0,0.3,0,0.4,0.1,0.6c-0.2-0.2-0.6-0.3-1-0.3C50.2,8.1,49,9.9,49,12.6c0,2.5,1,4.4,3.4,4.5
			c0,0,4.5-5.8,4.5-5.8c1.5-2,2.3-2.7,2.4-4.2c0.2,0.5,0.9,1,1.6,1c0,0.3,0.1,0.5,0.2,0.7c0.2,0.4,0.3,0.5,0.6,0.8
			c0.1,0.1,0.1,0.3-0.1,0.5c-0.2,0.1-0.4,0.2-0.4,0.3c0,0.1,0,0.2,0,0.3c0,0,0.1,0,0.1,0.1c0.1,0.1,0,0.2-0.1,0.3
			c-0.1,0.1-0.3,0.2-0.4,0.2c-0.1,0-0.1,0,0,0c0.4,0.1,0.3,0.4,0.2,0.4c-0.1,0-0.1,0-0.2,0.1c-0.1,0.1-0.1,0.2-0.1,0.4
			c0,0.1,0,0.3,0,0.5c-0.1,0.2-0.2,0.3-0.5,0.3c-0.4,0-0.7,0-1.1,0c-0.2,0-0.6,0-0.9,0.1c-0.3,0.1-0.6,0.4-1.2,1.2
			c-0.2,0.3-1.8,2.3-2.9,3.8c0.3,0.6,0.7,1.1,1.1,1.5c0,0,0,0,0,0c0.2-0.2,3.2-4.2,3.4-4.5C59.2,14.1,59.5,13.8,59.9,13.6"/>
		<path fill="#999999" d="M29.2,25.2c-0.8,0-1.3-0.6-1.3-1.4c0-0.8,0.5-1.4,1.3-1.4c0.3,0,0.6,0.2,0.8,0.4c0.2-0.2,1-1.3,1-1.3
			c-0.5-0.4-1.2-0.6-1.8-0.6c-1.7,0-3,1.1-3,2.8c0,1.7,1.3,2.8,3,2.8c0.6,0,1.2-0.2,1.8-0.6c0,0-0.9-1.2-1-1.3
			C29.8,25.1,29.6,25.2,29.2,25.2 M23.2,22.8c0-0.3,0.3-0.4,0.6-0.4c0.4,0,0.7,0.2,1,0.5c0.2-0.2,0.7-1,0.9-1.1
			c-0.5-0.4-1.2-0.6-1.9-0.6c-1.1,0-2.3,0.6-2.3,1.8c0,2.1,2.8,1.3,2.8,2.2c0,0.3-0.4,0.4-0.8,0.4c-0.5,0-0.8-0.2-1.2-0.6
			c-0.2,0.2-0.7,0.9-0.9,1.2c0.5,0.5,1.3,0.6,2,0.6c1.2,0,2.5-0.4,2.5-1.8C26,22.9,23.2,23.6,23.2,22.8 M41.1,23.9
			c0,0.7-0.1,1.4-1,1.4c-0.9,0-0.9-0.8-0.9-1.4v-2.6h-1.7v3c0,1.4,0.3,2.6,2,2.6c0.8,0,1.4-0.4,1.6-0.9h0v0.7h1.6v-5.4h-1.7V23.9z
			 M34,25.2c-0.8,0-1.3-0.6-1.3-1.4c0-0.8,0.5-1.4,1.3-1.4c0.8,0,1.3,0.6,1.3,1.4C35.3,24.7,34.8,25.2,34,25.2 M34,21
			c-1.7,0-3,1.1-3,2.8c0,1.7,1.3,2.8,3,2.8c1.7,0,3-1.1,3-2.8C37,22.1,35.6,21,34,21 M16.7,26.6h1.7v-8.4h-1.7V26.6z M6.2,25.2
			c-0.8,0-1.3-0.6-1.3-1.3c0-0.7,0.6-1.3,1.3-1.3c0.8,0,1.3,0.6,1.3,1.3C7.5,24.5,6.9,25.2,6.2,25.2 M7.5,21.9L7.5,21.9
			C7.2,21.5,6.6,21,5.6,21c-1.5,0-2.5,1.4-2.5,2.8c0,1.6,1.1,2.8,2.7,2.8c0.5,0,1.1-0.2,1.5-0.7h0v0.5c0,0.8-0.5,1.3-1.5,1.3
			c-0.6,0-1.2-0.2-1.7-0.6c-0.2,0.2-1,1.3-1,1.3C4,29.1,5,29.2,5.9,29.2c2.1,0,3.1-1.1,3.1-3.1v-4.9H7.5V21.9z M45.2,19.6h-1.7v5.5
			c0,1.2,0.9,1.6,2,1.6c0.4,0,0.8,0,1.2-0.2v-1.4c-0.1,0.1-0.5,0.2-0.7,0.2c-0.7,0-0.8-0.4-0.8-1v-1.8h1.5v-1.3h-1.5V19.6z
			 M10.7,18.5c-0.5,0-1,0.4-1,1c0,0.5,0.4,1,1,1c0.5,0,1-0.4,1-1C11.7,18.9,11.2,18.5,10.7,18.5 M9.9,26.6h1.7v-5.4H9.9V26.6z
			 M14.1,22L14.1,22l0-0.9h-1.7v5.4H14v-2.3c0-1.1,0.2-1.8,1.4-1.8c0.2,0,0.5,0,0.7,0.1v-1.5C16,21,15.8,21,15.6,21
			C14.9,21,14.4,21.4,14.1,22 M48.8,22.8c0-0.3,0.3-0.4,0.6-0.4c0.4,0,0.7,0.2,1,0.5c0.2-0.2,0.7-1,0.9-1.1C50.8,21.2,50,21,49.4,21
			c-1.1,0-2.3,0.6-2.3,1.8c0,2.1,2.8,1.3,2.8,2.2c0,0.3-0.4,0.4-0.8,0.4c-0.5,0-0.8-0.2-1.2-0.6c-0.2,0.2-0.7,0.9-0.9,1.2
			c0.5,0.5,1.3,0.6,2,0.6c1.2,0,2.5-0.4,2.5-1.8C51.6,22.9,48.8,23.6,48.8,22.8"/>
		<path fill="#999999" d="M96.3,37.5L96.3,37.5c0.3,0,0.4-0.1,0.4-0.3v-4.5c0-0.3-0.1-0.3-0.3-0.3h-0.1c-0.2,0-0.3,0.1-0.3,0.3v4.5
			C96,37.5,96.1,37.5,96.3,37.5 M96.4,31.2c0.3,0,0.5-0.1,0.5-0.5c0-0.3-0.1-0.5-0.4-0.5c-0.3,0-0.5,0.1-0.5,0.5
			C95.9,31,96.1,31.2,96.4,31.2 M93,33.1c0-0.6-0.2-0.7-0.4-0.7c-0.1,0-0.2,0.1-0.2,0.1v4.7c0,0.3,0.1,0.3,0.3,0.3h0.1
			c0.2,0,0.3-0.1,0.3-0.3v-2c0-1.3,0.4-2.2,1.3-2.2c0.3,0,0.5,0.1,0.6,0.2c0,0,0.2-0.1,0.2-0.4c0-0.3-0.3-0.5-0.7-0.5
			c-0.7,0-1.1,0.4-1.3,1.1V33.1z M90.7,37.5c0.1,0,0.2-0.1,0.2-0.1v-4.7c0-0.3-0.1-0.3-0.3-0.3h-0.1c-0.2,0-0.3,0.1-0.3,0.3v3.2
			C90,36.6,89.4,37,88.6,37c-0.9,0-1.4-0.6-1.4-1.6v-2.6c0-0.3-0.1-0.3-0.3-0.3h-0.1c-0.2,0-0.3,0.1-0.3,0.3v2.7
			c0,1.3,0.7,2.2,2,2.2c0.8,0,1.4-0.4,1.7-0.9v0.2C90.3,37.4,90.5,37.5,90.7,37.5 M82.9,37C81.8,37,81,36.1,81,35c0-1.2,0.8-2,1.9-2
			s1.9,0.9,1.9,2.1S84,37,82.9,37 M82.9,37.6c1.5,0,2.6-1.1,2.6-2.6c0-1.5-1.1-2.7-2.6-2.7c-1.5,0-2.6,1.1-2.6,2.6
			C80.3,36.5,81.4,37.6,82.9,37.6 M77.5,37.6c1.2,0,2-0.6,2-1.5c0-1-1-1.3-1.9-1.4c-0.9-0.2-1.4-0.4-1.4-0.9c0-0.5,0.4-0.9,1.3-0.9
			c0.7,0,1.2,0.3,1.5,0.7c0,0,0.4-0.1,0.4-0.4c0-0.4-0.6-1-1.9-1c-1.2,0-1.9,0.6-1.9,1.5c0,1,1,1.2,1.8,1.4c1,0.2,1.5,0.3,1.5,0.9
			c0,0.5-0.5,0.9-1.3,0.9s-1.4-0.4-1.7-0.8c0,0-0.4,0.1-0.4,0.4C75.4,37,76.1,37.6,77.5,37.6 M72.7,37.6c1.2,0,2-0.6,2-1.5
			c0-1-1-1.3-1.9-1.4c-0.9-0.2-1.4-0.4-1.4-0.9c0-0.5,0.4-0.9,1.3-0.9c0.7,0,1.2,0.3,1.5,0.7c0,0,0.4-0.1,0.4-0.4c0-0.4-0.6-1-1.9-1
			c-1.2,0-1.9,0.6-1.9,1.5c0,1,1,1.2,1.8,1.4c1,0.2,1.5,0.3,1.5,0.9c0,0.5-0.5,0.9-1.3,0.9s-1.4-0.4-1.7-0.8c0,0-0.4,0.1-0.4,0.4
			C70.6,37,71.3,37.6,72.7,37.6 M69.1,37.5L69.1,37.5c0.3,0,0.4-0.1,0.4-0.3v-4.5c0-0.3-0.1-0.3-0.3-0.3h-0.1
			c-0.2,0-0.3,0.1-0.3,0.3v4.5C68.8,37.5,68.9,37.5,69.1,37.5 M69.1,31.2c0.3,0,0.5-0.1,0.5-0.5c0-0.3-0.1-0.5-0.4-0.5
			c-0.3,0-0.5,0.1-0.5,0.5C68.7,31,68.8,31.2,69.1,31.2 M60.3,33.1c0-0.6-0.2-0.7-0.4-0.7c-0.1,0-0.2,0.1-0.2,0.1v4.7
			c0,0.3,0.1,0.3,0.3,0.3H60c0.2,0,0.3-0.1,0.3-0.3V34c0.3-0.6,0.9-1,1.5-1c0.9,0,1.3,0.5,1.3,1.6v2.7c0,0.3,0.1,0.3,0.3,0.3h0.1
			c0.2,0,0.3-0.1,0.3-0.3V34c0.3-0.6,0.9-1,1.5-1c0.9,0,1.3,0.5,1.3,1.5v2.7c0,0.3,0.1,0.3,0.3,0.3h0.1c0.2,0,0.3-0.1,0.3-0.3v-2.8
			c0-1.4-0.7-2.1-2-2.1c-0.8,0-1.5,0.5-1.8,1.1c-0.3-0.7-0.9-1.1-1.7-1.1c-0.7,0-1.2,0.4-1.6,0.9V33.1z M52.7,33.1
			c0-0.6-0.2-0.7-0.4-0.7c-0.1,0-0.2,0.1-0.2,0.1v4.7c0,0.3,0.1,0.3,0.3,0.3h0.1c0.2,0,0.3-0.1,0.3-0.3V34c0.3-0.6,0.9-1.1,1.7-1.1
			c0.9,0,1.4,0.6,1.4,1.6v2.6c0,0.3,0.1,0.3,0.3,0.3h0.1c0.2,0,0.3-0.1,0.3-0.3v-2.7c0-1.3-0.7-2.2-2-2.2c-0.8,0-1.4,0.4-1.7,0.9
			V33.1z M49.2,33.1c0-0.6-0.2-0.7-0.4-0.7c-0.1,0-0.2,0.1-0.2,0.1v4.7c0,0.3,0.1,0.3,0.3,0.3h0.1c0.2,0,0.3-0.1,0.3-0.3v-2
			c0-1.3,0.4-2.2,1.3-2.2c0.3,0,0.5,0.1,0.6,0.2c0,0,0.2-0.1,0.2-0.4c0-0.3-0.3-0.5-0.7-0.5c-0.7,0-1.1,0.4-1.3,1.1V33.1z M45,32.9
			c0.9,0,1.6,0.6,1.6,1.6h-3.5C43.4,33.6,44.1,32.9,45,32.9 M45.1,37.6c1.4,0,2.1-0.8,2.1-1.1c0-0.3-0.4-0.4-0.4-0.4
			c-0.3,0.5-0.7,0.9-1.7,0.9c-1.1,0-1.9-0.8-1.9-1.8h3.9c0.2,0,0.3,0,0.3-0.2v-0.1c0-1.5-0.9-2.5-2.4-2.5c-1.5,0-2.5,1.1-2.5,2.7
			C42.5,36.6,43.6,37.6,45.1,37.6 M39.1,33.1h0.5v3c0,1.1,0.4,1.6,1.4,1.6c0.7,0,1-0.3,1-0.6c0-0.3-0.2-0.4-0.2-0.3
			C41.6,36.9,41.3,37,41,37c-0.6,0-0.8-0.4-0.8-1.1v-2.9h1.3c0.3,0,0.3-0.1,0.3-0.3v-0.1c0-0.2-0.1-0.3-0.3-0.3h-1.3v-0.9
			c0-0.3-0.1-0.3-0.3-0.3h-0.1c-0.2,0-0.3,0.1-0.3,0.3v0.9h-0.5c-0.3,0-0.3,0.1-0.3,0.3v0.1C38.7,33,38.8,33.1,39.1,33.1 M36.1,37.6
			c1.2,0,2-0.6,2-1.5c0-1-1-1.3-1.9-1.4c-0.9-0.2-1.4-0.4-1.4-0.9c0-0.5,0.4-0.9,1.3-0.9c0.7,0,1.2,0.3,1.5,0.7c0,0,0.4-0.1,0.4-0.4
			c0-0.4-0.6-1-1.9-1c-1.2,0-1.9,0.6-1.9,1.5c0,1,1,1.2,1.8,1.4c1,0.2,1.5,0.3,1.5,0.9c0,0.5-0.5,0.9-1.3,0.9
			c-0.8,0-1.4-0.4-1.7-0.8c0,0-0.4,0.1-0.4,0.4C34,37,34.7,37.6,36.1,37.6 M30.5,37c-0.7,0-1.1-0.3-1.1-0.8c0-0.8,0.9-1.1,2.6-1.2
			l0.3,0v0.5C32.3,36.4,31.5,37,30.5,37 M30.4,37.6c0.8,0,1.5-0.4,1.9-0.9v0.2c0,0.6,0.2,0.7,0.4,0.7c0.1,0,0.2-0.1,0.2-0.1v-3.2
			c0-1.2-0.8-2-2.1-2c-1.3,0-2.1,0.8-2.1,1.2c0,0.4,0.4,0.4,0.4,0.4c0.3-0.5,0.8-0.9,1.6-0.9c0.9,0,1.4,0.5,1.4,1.3v0.2h-0.1
			c-2.3,0.1-3.5,0.5-3.5,1.7C28.7,37.1,29.3,37.6,30.4,37.6 M25.6,32.9c0.9,0,1.6,0.6,1.6,1.6h-3.5C23.9,33.6,24.6,32.9,25.6,32.9
			 M25.7,37.6c1.4,0,2.1-0.8,2.1-1.1c0-0.3-0.4-0.4-0.4-0.4c-0.3,0.5-0.7,0.9-1.7,0.9c-1.1,0-1.9-0.8-1.9-1.8h3.9
			c0.2,0,0.3,0,0.3-0.2v-0.1c0-1.5-0.9-2.5-2.4-2.5c-1.5,0-2.5,1.1-2.5,2.7C23,36.6,24.1,37.6,25.7,37.6 M17.8,33.1h0.7v4.2
			c0,0.3,0.1,0.3,0.3,0.3h0.1c0.2,0,0.3-0.1,0.3-0.3v-4.2h1c0.3,0,0.3-0.1,0.3-0.3v-0.1c0-0.2-0.1-0.3-0.3-0.3h-1V32
			c0-0.8,0.2-1.2,0.8-1.2c0.3,0,0.7,0.2,0.8,0.3c0,0,0.2-0.1,0.2-0.3c0-0.3-0.3-0.6-1-0.6c-1,0-1.5,0.6-1.5,1.8v0.5h-0.7
			c-0.3,0-0.3,0.1-0.3,0.3v0.1C17.5,33,17.5,33.1,17.8,33.1 M14.4,37c-1.1,0-1.9-0.9-1.9-2.1c0-1.2,0.8-2,1.9-2s1.9,0.9,1.9,2.1
			S15.5,37,14.4,37 M14.4,37.6c1.5,0,2.6-1.1,2.6-2.6c0-1.5-1.1-2.7-2.6-2.7c-1.5,0-2.6,1.1-2.6,2.6C11.8,36.5,12.9,37.6,14.4,37.6"
			/>
	</g>
</g>
</svg>
