<?xml version="1.0" encoding="utf-8"?>
<!-- Generator: Adobe Illustrator 18.1.1, SVG Export Plug-In . SVG Version: 6.00 Build 0)  -->
<!DOCTYPE svg PUBLIC "-//W3C//DTD SVG 1.1//EN" "http://www.w3.org/Graphics/SVG/1.1/DTD/svg11.dtd">
<svg version="1.1" id="Layer_1" xmlns="http://www.w3.org/2000/svg" xmlns:xlink="http://www.w3.org/1999/xlink" x="0px" y="0px"
	 viewBox="0 0 100 43" enable-background="new 0 0 100 43" xml:space="preserve">
<g>
	<g>
		<defs>
			<rect id="SVGID_1_" x="1.9" y="0.7" width="96.1" height="41.7"/>
		</defs>
		<clipPath id="SVGID_2_">
			<use xlink:href="#SVGID_1_"  overflow="visible"/>
		</clipPath>
		<path clip-path="url(#SVGID_2_)" fill="#FFFFFF" d="M50,0.7c16,0,28.5,3.3,37.2,6.3c6.5,2.2,5.5,5.4,5,7.1c-0.5,1.6-1,2.3,0.9,2.8
			c1.6,0.4,1.4,0.4,2.3,0.6c1.7,0.5,3.4,0.9,2.2,5c-0.3,1.2-4.1,13.9-4.6,15.6c-1.2,3.5-0.9,4.3-5.9,4.3c-0.8,0-73.5,0-74.2,0
			c-5.1,0-4.8-0.8-5.9-4.3c-0.6-1.7-4.3-14.4-4.6-15.6c-1.2-4.1,0.5-4.5,2.2-5c0.9-0.3,0.7-0.2,2.3-0.6c1.9-0.5,1.4-1.2,0.9-2.8
			c-0.5-1.7-1.4-4.9,5-7.1C21.5,4,34,0.7,50,0.7L50,0.7"/>
	</g>
	<path fill="#999999" d="M86.5,39.3c2.2,0,3.1-0.4,3.6-2c0.5-1.4,3.6-12.4,4.1-13.9c0.6-2.1,0.4-3-1.7-3.5c-0.8-0.2-2.3-0.6-3.3-0.8
		c-1.4-0.4-1.3-1.9-1-2.7c0.2-0.5,0.7-2.4,1-3.4c0.5-1.5-0.2-2-1.1-2.3C87,10.3,72.9,4.1,50,3.8h0c-22.9,0.3-37,6.5-38.2,6.9
		c-0.9,0.4-1.6,0.8-1.1,2.3c0.3,0.9,0.8,2.9,1,3.4c0.3,0.8,0.4,2.3-1,2.7c-1,0.3-2.5,0.6-3.3,0.8c-2,0.5-2.3,1.4-1.7,3.5
		c0.4,1.5,3.5,12.5,4.1,13.9c0.6,1.6,1.4,2,3.6,2C14.6,39.3,85.4,39.3,86.5,39.3"/>
	<path fill="#FFFFFF" d="M24,30.5c1.8-1,2.6-2.2,3.4-4.5c0.3-0.9,0.6-2.1,0.9-2.8c0.2-0.4,0.4-0.3,0.6-0.4c0.4-0.1,2.4,0,2.6,0
		c0.2,0,0.4,0.2,0.3,0.5c-0.4,1.5-1.1,4.2-1.5,5.9c-0.3,1.2-0.7,3,0.3,3.5c1.7,0.8,5.3-0.8,5.6-1.4c0.2-0.4,0.5-0.7-0.3-1.2
		c-0.7-0.4-0.4-1.7-0.2-2.7c0,0,0.8-3.7,2.8-9.8c0,0,0.4-1.2,0.9-2.5c0.6-1.5,1.3-3.1,1.3-3.1c0.3-0.4,0-0.6,0-0.6
		c-0.2-0.4-3.6-0.2-3.6-0.2c-1.5,0-2.1,1.4-2.6,3.2c0,0-1.6,5.7-1.7,5.9c-0.2,0.2-0.3,0.3-0.7,0.4c-0.8,0.1-2,0.1-2.6,0
		c-0.4,0-0.3-0.4-0.2-0.7c0,0,2.1-7.2,1.9-8.3c-0.1-0.7-0.7-0.8-1.4-0.8c-4-0.2-8,0.3-9.4,0.8c-1.1,0.4-2.7,1.2-3.4,2.6
		c-0.3,0.7-1,1.9-0.2,5c0.2,0.8,0.8,1.7,0.9,1.8c1,1.1,3.5-0.3,3.4-0.2c0.3-0.2,0.4-0.6,0.2-1c-0.3-0.6-0.8-1.9-0.9-3
		c-0.4-4,2.5-4.4,3.1-4.5c1-0.1,1.2-0.1,1.7,0c0.4,0.1,0.7,0.1,0.9,0.4c0.3,0.6-0.3,2.8-0.5,3.9c-0.3,1.3-1.6,6-2.4,8.2
		c-1,2.6-1.8,5.1-3.4,5.7c-0.5,0.2-0.8,0.2-1.4,0c-0.5-0.1-1.2-0.7-1.6-1.1c-1-1-1.4-2.5-1.5-4.1c-0.1-1.9,0.4-3-0.4-3.1
		c-1,0-2.8,0.8-3.6,1.5c-0.4,0.4-0.8,0.9-0.4,2.8C11.6,30.3,13.8,36.6,24,30.5"/>
	<path fill="#FFFFFF" d="M43.7,29.5c0.7,0.3,1.7,0.2,2.5-0.1c0.7-0.2,0.8-0.3,1.3-0.4c0,0,1.1,0.1,0.4,1.1c-0.8,1.2-1.5,1.5-2.7,2.1
		c-1.2,0.6-2.8,0.8-4.1,0.7c-3-0.1-3.4-2.4-3.3-4.8c0.1-1.8,0.7-3.6,0.8-4c0.6-1.7,1.2-3.2,2.5-4.3c2.9-2.4,6.7-2.5,7-2.5
		c0.9,0,1.7,0.4,2,1.2c0.5,1.8-0.5,5.4-7.2,6.6C43,25.1,41.6,28.7,43.7,29.5 M44.9,22.7c0.8-0.7,1.8-3.3,1.2-3.6
		c-1.3-0.5-2.8,3.8-2.6,4.1C43.7,23.4,44.4,23.2,44.9,22.7z"/>
	<path fill="#FFFFFF" d="M72.4,20.5c-0.1,0.6-2.3,6.8-2.4,7.2c-0.1,0.3-0.6,2,0,2.5c0.1,0.1,0.4,0.2,0.5,0.3
		c0.4,0.3,0.6,0.8-0.2,1.3c-0.8,0.6-4.1,1.4-5.1,0.9c-1.1-0.4-0.7-2.4-0.4-3.5c0.2-0.6,0.6-2.4,1.3-4.2c0.5-1.5,0.9-3,1-3.4
		c0.1-0.8,0-1.3-0.8-1.3c-0.9,0.2-1.8,1-2.5,2.8c-0.8,2.2-1.4,4.7-1.4,4.7c-0.6,2.5-0.5,2.9-0.7,3.5c-0.1,0.6-0.4,0.6-0.9,0.8
		c-0.3,0.2-2.6,1.2-3.8,0.6c-0.7-0.5-0.1-2.5,0.2-3.6c0.3-1,2.1-6.6,2.2-7.8c0.1-0.9,0-0.9-0.6-1.4c-0.6-0.6,0.2-1.1,0.4-1.2
		c1-0.6,4.8-1.7,5.3-1.4c0.7,0.5-0.1,1.6,0.5,1.6c0.9,0,2.8-1.5,4.7-1.7C73.1,16.9,72.6,19.4,72.4,20.5"/>
	<path fill="#FFFFFF" d="M51.6,18.8C51,19.1,51,19.7,51.3,20c0.4,0.4,0.5,0.7,0.3,1.6c-0.4,1.5-2.1,6.5-2.5,7.8
		c-0.3,1.2-0.8,3.1,0.3,3.4c0.9,0.5,4.3-0.7,5.1-1.2c0.8-0.5,0.8-0.8,0.6-1.1c-0.2-0.3-0.6-0.6-0.6-0.8c-0.3-0.5-0.1-1.2,0.2-2.4
		l2.5-7.9c0.2-0.7,0.4-1.6-0.2-2C56,17,52.6,18.2,51.6,18.8"/>
	<path fill="#FFFFFF" d="M54.2,15.6c0.6,0.4,2.9-0.3,3.6-0.9c0.2-0.2,0.6-0.6,0.7-1c0.3-0.9,0.4-1.3,0.3-1.8
		c-0.1-0.6-0.5-0.8-0.8-0.8c-0.7-0.1-3,0.4-3.6,1.5C53.4,14.3,53.8,15.4,54.2,15.6"/>
	<path fill="#FFFFFF" d="M74.2,22c0.3-0.1,1.2-0.3,1.6-0.3c0,0,2.3-0.2,3.1,0.2c0.6,0.3-1.6,2.5-3.8,5c-1.3,1.4-2.6,2.9-3.4,4.2
		c-0.4,0.6-0.2,1.4,0.8,1.5c2.9,0.4,8.4,0.2,8.4,0.2c2.1-0.1,2.9-0.2,4-1.8c0,0,3.8-4.4,3.2-6.6c-0.4-1.5-2.9-2.5-3.6-1.2
		c-0.3,0.5-1.1,1.6-0.6,1.7c1.9,0.4,2.4,1.5,2,2.2c-0.7,1.2-1.8,1.1-2.4,1.3c-0.6,0.1-4.9,0.3-6,0.1c-0.4-0.1,0-1.1,0.6-1.9
		c2.2-2.8,6.3-7.8,6.3-8.2c0-0.3,0.1-0.7-0.8-0.8c-3.2-0.3-6.6-0.2-6.6-0.2c-0.7,0-1.3,0.3-1.8,0.9c-0.5,0.6-1.5,2.1-1.6,3.4
		C73.5,21.7,73.3,22.3,74.2,22"/>
</g>
</svg>
