<?xml version="1.0" encoding="utf-8"?>
<!-- Generator: Adobe Illustrator 18.1.1, SVG Export Plug-In . SVG Version: 6.00 Build 0)  -->
<!DOCTYPE svg PUBLIC "-//W3C//DTD SVG 1.1//EN" "http://www.w3.org/Graphics/SVG/1.1/DTD/svg11.dtd">
<svg version="1.1" id="Layer_1" xmlns="http://www.w3.org/2000/svg" xmlns:xlink="http://www.w3.org/1999/xlink" x="0px" y="0px"
	 viewBox="0 0 380 370" enable-background="new 0 0 380 370" xml:space="preserve">
<g>
	<polygon fill="#004B8D" points="139.2,63.1 143.1,63.1 143.1,72.5 153.9,72.5 153.9,63.1 157.9,63.1 157.9,85.7 153.9,85.7 
		153.9,76.2 143.1,76.2 143.1,85.7 139.2,85.7 	"/>
	<g>
		<defs>
			<rect id="SVGID_1_" x="13.6" y="15.7" width="352.9" height="338.5"/>
		</defs>
		<clipPath id="SVGID_2_">
			<use xlink:href="#SVGID_1_"  overflow="visible"/>
		</clipPath>
		<path clip-path="url(#SVGID_2_)" fill="#004B8D" d="M174.3,77.3L174.3,77.3c0-3.1-2.2-5.6-5.2-5.6c-3.1,0-5.1,2.5-5.1,5.4v0.1
			c0,3,2.2,5.5,5.2,5.5C172.3,82.7,174.3,80.2,174.3,77.3 M160.1,77.3L160.1,77.3c0-4.9,3.9-9,9.1-9c5.2,0,9.1,4,9.1,8.9v0.1
			c0,4.8-3.9,8.9-9.1,8.9C163.9,86.1,160.1,82.1,160.1,77.3"/>
		<path clip-path="url(#SVGID_2_)" fill="#004B8D" d="M179.2,83.5l1.7-2.6c1.8,1.4,3.8,2.1,5.6,2.1c1.7,0,2.7-0.7,2.7-1.8V81
			c0-1.3-1.8-1.8-3.8-2.4c-2.5-0.7-5.3-1.7-5.3-5v-0.1c0-3.2,2.7-5.2,6.1-5.2c2.1,0,4.5,0.7,6.3,1.9l-1.6,2.8
			c-1.6-1-3.4-1.6-4.8-1.6c-1.5,0-2.4,0.7-2.4,1.7v0.1c0,1.2,1.8,1.7,3.8,2.4c2.5,0.8,5.3,1.9,5.3,5v0.1c0,3.6-2.8,5.4-6.3,5.4
			C184,86,181.4,85.2,179.2,83.5"/>
		<path clip-path="url(#SVGID_2_)" fill="#004B8D" d="M208.8,77.2L208.8,77.2c0-3.4-2.2-5.5-4.9-5.5c-2.6,0-5,2.2-5,5.5v0.1
			c0,3.3,2.3,5.5,5,5.5C206.6,82.7,208.8,80.6,208.8,77.2 M195.2,68.7h3.9v2.8c1.3-1.8,3-3.2,5.8-3.2c4,0,7.9,3.2,7.9,8.9v0.1
			c0,5.7-3.9,8.9-7.9,8.9c-2.8,0-4.6-1.4-5.8-3v7.8h-3.9V68.7z"/>
	</g>
	<path fill="#004B8D" d="M215.4,68.7h3.9v17.1h-3.9V68.7z M215.3,62.3h4.2V66h-4.2V62.3z"/>
	<g>
		<defs>
			<rect id="SVGID_3_" x="13.6" y="15.7" width="352.9" height="338.5"/>
		</defs>
		<clipPath id="SVGID_4_">
			<use xlink:href="#SVGID_3_"  overflow="visible"/>
		</clipPath>
		<path clip-path="url(#SVGID_4_)" fill="#004B8D" d="M223.6,81v-9h-2.2v-3.4h2.2V64h3.9v4.7h4.6V72h-4.6v8.4c0,1.5,0.8,2.1,2.1,2.1
			c0.9,0,1.6-0.2,2.4-0.6v3.2c-1,0.5-2.1,0.9-3.5,0.9C225.7,86,223.6,84.7,223.6,81"/>
		<path clip-path="url(#SVGID_4_)" fill="#004B8D" d="M245.7,78.6c-1-0.4-2.4-0.7-3.9-0.7c-2.5,0-3.9,1-3.9,2.7v0.1
			c0,1.6,1.5,2.5,3.3,2.5c2.6,0,4.5-1.5,4.5-3.6V78.6z M245.6,85.7v-2.1c-1.2,1.4-2.9,2.5-5.5,2.5c-3.2,0-6.1-1.8-6.1-5.3v-0.1
			c0-3.8,2.9-5.6,6.9-5.6c2.1,0,3.4,0.3,4.7,0.7v-0.3c0-2.4-1.5-3.7-4.2-3.7c-1.9,0-3.3,0.4-4.9,1.1l-1.1-3.1
			c1.9-0.8,3.7-1.4,6.5-1.4c5,0,7.5,2.7,7.5,7.2v10.1H245.6z"/>
	</g>
	<rect x="252.7" y="62.1" fill="#004B8D" width="3.9" height="23.6"/>
	<g>
		<defs>
			<rect id="SVGID_5_" x="13.6" y="15.7" width="352.9" height="338.5"/>
		</defs>
		<clipPath id="SVGID_6_">
			<use xlink:href="#SVGID_5_"  overflow="visible"/>
		</clipPath>
		<path clip-path="url(#SVGID_6_)" fill="#004B8D" d="M268.4,82.4l2.4-2.8c2.2,1.9,4.3,2.9,7.1,2.9c2.5,0,4-1.1,4-2.8v-0.1
			c0-1.6-0.9-2.5-5.1-3.5c-4.8-1.2-7.5-2.6-7.5-6.8v-0.1c0-3.9,3.2-6.6,7.7-6.6c3.3,0,5.9,1,8.2,2.8l-2.1,3c-2-1.5-4.1-2.3-6.1-2.3
			c-2.3,0-3.7,1.2-3.7,2.7V69c0,1.7,1,2.5,5.4,3.6c4.8,1.2,7.3,2.9,7.3,6.6v0.1c0,4.2-3.3,6.8-8.1,6.8
			C274.4,86,271.1,84.8,268.4,82.4"/>
	</g>
	<path fill="#004B8D" d="M288.8,68.7h3.9v17.1h-3.9V68.7z M288.6,62.3h4.2V66h-4.2V62.3z"/>
	<g>
		<defs>
			<rect id="SVGID_7_" x="13.6" y="15.7" width="352.9" height="338.5"/>
		</defs>
		<clipPath id="SVGID_8_">
			<use xlink:href="#SVGID_7_"  overflow="visible"/>
		</clipPath>
		<path clip-path="url(#SVGID_8_)" fill="#004B8D" d="M294.8,83.5l1.7-2.6c1.8,1.4,3.8,2.1,5.6,2.1c1.7,0,2.7-0.7,2.7-1.8V81
			c0-1.3-1.8-1.8-3.8-2.4c-2.5-0.7-5.3-1.7-5.3-5v-0.1c0-3.2,2.7-5.2,6.1-5.2c2.1,0,4.5,0.7,6.3,1.9l-1.6,2.8
			c-1.6-1-3.4-1.6-4.8-1.6c-1.5,0-2.4,0.7-2.4,1.7v0.1c0,1.2,1.8,1.7,3.8,2.4c2.5,0.8,5.3,1.9,5.3,5v0.1c0,3.6-2.8,5.4-6.3,5.4
			C299.6,86,296.9,85.2,294.8,83.5"/>
		<path clip-path="url(#SVGID_8_)" fill="#004B8D" d="M312.5,81v-9h-2.2v-3.4h2.2V64h3.9v4.7h4.6V72h-4.6v8.4c0,1.5,0.8,2.1,2.1,2.1
			c0.9,0,1.6-0.2,2.4-0.6v3.2c-1,0.5-2.1,0.9-3.5,0.9C314.5,86,312.5,84.7,312.5,81"/>
		<path clip-path="url(#SVGID_8_)" fill="#004B8D" d="M335,76c-0.3-2.5-1.7-4.5-4.3-4.5c-2.4,0-4.1,1.8-4.4,4.5H335z M322.4,77.3
			L322.4,77.3c0-4.9,3.5-9,8.3-9c5.4,0,8.2,4.3,8.2,9.2c0,0.4,0,0.7-0.1,1.1h-12.5c0.4,2.8,2.4,4.3,4.9,4.3c1.9,0,3.3-0.7,4.6-2
			l2.3,2c-1.6,1.9-3.8,3.2-7,3.2C326.2,86.1,322.4,82.5,322.4,77.3"/>
		<path clip-path="url(#SVGID_8_)" fill="#004B8D" d="M341.9,68.7h3.9v3.8c1.1-2.6,3-4.3,6-4.2v4.1h-0.2c-3.4,0-5.8,2.2-5.8,6.8v6.5
			h-3.9V68.7z"/>
		<path clip-path="url(#SVGID_8_)" fill="#004B8D" d="M352.9,83.5l1.7-2.6c1.8,1.4,3.8,2.1,5.6,2.1c1.7,0,2.7-0.7,2.7-1.8V81
			c0-1.3-1.8-1.8-3.8-2.4c-2.5-0.7-5.3-1.7-5.3-5v-0.1c0-3.2,2.7-5.2,6.1-5.2c2.1,0,4.5,0.7,6.3,1.9l-1.6,2.8
			c-1.6-1-3.4-1.6-4.8-1.6c-1.5,0-2.4,0.7-2.4,1.7v0.1c0,1.2,1.8,1.7,3.8,2.4c2.5,0.8,5.3,1.9,5.3,5v0.1c0,3.6-2.8,5.4-6.3,5.4
			C357.7,86,355,85.2,352.9,83.5"/>
	</g>
	<polygon points="140,98.5 141.4,98.5 141.4,104.1 148.7,104.1 148.7,98.5 150.1,98.5 150.1,111.1 148.7,111.1 148.7,105.4 
		141.4,105.4 141.4,111.1 140,111.1 	"/>
	<polygon points="154.5,98.5 163.6,98.5 163.6,99.8 155.9,99.8 155.9,104.1 162.8,104.1 162.8,105.4 155.9,105.4 155.9,109.8 
		163.7,109.8 163.7,111.1 154.5,111.1 	"/>
	<path d="M175.6,106.5l-2.8-6.4l-2.9,6.4H175.6z M172.1,98.4h1.3l5.7,12.6h-1.5l-1.5-3.3h-6.8l-1.5,3.3h-1.5L172.1,98.4z"/>
	<polygon points="182.5,98.5 183.9,98.5 183.9,109.8 191,109.8 191,111.1 182.5,111.1 	"/>
	<polygon points="197.8,99.8 193.6,99.8 193.6,98.5 203.5,98.5 203.5,99.8 199.2,99.8 199.2,111.1 197.8,111.1 	"/>
	<polygon points="207,98.5 208.4,98.5 208.4,104.1 215.7,104.1 215.7,98.5 217.1,98.5 217.1,111.1 215.7,111.1 215.7,105.4 
		208.4,105.4 208.4,111.1 207,111.1 	"/>
	<g>
		<defs>
			<rect id="SVGID_9_" x="13.6" y="15.7" width="352.9" height="338.5"/>
		</defs>
		<clipPath id="SVGID_10_">
			<use xlink:href="#SVGID_9_"  overflow="visible"/>
		</clipPath>
		<path clip-path="url(#SVGID_10_)" d="M227,109.3l0.9-1c1.3,1.2,2.6,1.8,4.3,1.8c1.7,0,2.8-0.9,2.8-2.1v0c0-1.2-0.6-1.8-3.3-2.4
			c-2.9-0.6-4.2-1.6-4.2-3.6v0c0-2,1.7-3.4,4.1-3.4c1.8,0,3.1,0.5,4.4,1.5l-0.8,1.1c-1.2-0.9-2.3-1.4-3.6-1.4c-1.6,0-2.7,0.9-2.7,2
			v0c0,1.2,0.6,1.8,3.4,2.4c2.8,0.6,4.1,1.6,4.1,3.5v0c0,2.1-1.8,3.5-4.3,3.5C230.1,111.3,228.5,110.6,227,109.3"/>
	</g>
	<polygon points="244.1,106.1 238.9,98.5 240.6,98.5 244.8,104.8 249.1,98.5 250.8,98.5 245.5,106.1 245.5,111.1 244.1,111.1 	"/>
	<g>
		<defs>
			<rect id="SVGID_11_" x="13.6" y="15.7" width="352.9" height="338.5"/>
		</defs>
		<clipPath id="SVGID_12_">
			<use xlink:href="#SVGID_11_"  overflow="visible"/>
		</clipPath>
		<path clip-path="url(#SVGID_12_)" d="M252.4,109.3l0.9-1c1.3,1.2,2.6,1.8,4.3,1.8c1.7,0,2.8-0.9,2.8-2.1v0c0-1.2-0.6-1.8-3.3-2.4
			c-2.9-0.6-4.2-1.6-4.2-3.6v0c0-2,1.7-3.4,4.1-3.4c1.8,0,3.1,0.5,4.4,1.5l-0.8,1.1c-1.2-0.9-2.3-1.4-3.6-1.4c-1.6,0-2.7,0.9-2.7,2
			v0c0,1.2,0.6,1.8,3.4,2.4c2.8,0.6,4.1,1.6,4.1,3.5v0c0,2.1-1.8,3.5-4.3,3.5C255.5,111.3,253.9,110.6,252.4,109.3"/>
	</g>
	<polygon points="268.9,99.8 264.7,99.8 264.7,98.5 274.5,98.5 274.5,99.8 270.3,99.8 270.3,111.1 268.9,111.1 	"/>
	<polygon points="278.1,98.5 287.2,98.5 287.2,99.8 279.5,99.8 279.5,104.1 286.4,104.1 286.4,105.4 279.5,105.4 279.5,109.8 
		287.3,109.8 287.3,111.1 278.1,111.1 	"/>
	<polygon points="291,98.5 292.4,98.5 297,105.4 301.6,98.5 303,98.5 303,111.1 301.6,111.1 301.6,100.9 297,107.6 297,107.6 
		292.4,100.9 292.4,111.1 291,111.1 	"/>
	<g>
		<defs>
			<rect id="SVGID_13_" x="13.6" y="15.7" width="352.9" height="338.5"/>
		</defs>
		<clipPath id="SVGID_14_">
			<use xlink:href="#SVGID_13_"  overflow="visible"/>
		</clipPath>
		<path clip-path="url(#SVGID_14_)" fill="#61B4E4" d="M122.8,66.8c-0.1-0.8-0.2-1.6-0.3-2.4c-22.5-7.7-34.4-8.7-44.1-8.9l0,0l0,0
			c0,0.1-0.1,1.6-0.1,4.2c-0.1,8.9,0.3,30.9,6.4,57.3c2.2-1.1,4.3-2.4,6.4-3.8c-3.1-10.3-7.8-29.2-8.7-53.2
			c18.9,1.8,37.8,9.6,40.6,10.8C123,69.4,122.9,68,122.8,66.8"/>
		<path clip-path="url(#SVGID_14_)" fill="#61B4E4" d="M78.3,55.5C78.3,55.5,78.3,55.5,78.3,55.5L78.3,55.5L78.3,55.5z"/>
		<path clip-path="url(#SVGID_14_)" fill="#004B8D" d="M124.3,61.6c-1.9-26.1-22.6-45.1-49-43.6c-6,0.3-13.3,1.9-19.3,4.4
			c-2.2,0.9-2,1.3,0.3,0.7c5.1-1.4,11.1-2.3,15.6-2.5c24.2-1.1,46.8,19.3,50.6,43.9c0.1,0.8,0.2,1.6,0.3,2.4c0.1,1.2,0.2,2.6,0.2,4
			c0,1.2,0,2.5-0.1,3.8c-0.2,3.1,0.5,3.2,0.9,0.1C124.4,70.3,124.6,65.4,124.3,61.6"/>
		<path clip-path="url(#SVGID_14_)" fill="#004B8D" d="M73.6,121.7c-1.9,0.3-1.4,0.9,0.6,0.7c3.9-0.5,7.6-1.3,11.2-2.5
			c2.4-0.8,4.7-1.7,7-2.7c15.6-7.3,26.3-21,26-37.8c0-1,0-2.5-0.1-4c0-1.3-0.6-1.1-0.8-0.1c-3.5,16.6-13.4,29.4-26.4,38
			c-2.1,1.4-4.2,2.6-6.4,3.8C81.1,118.9,77.4,120.5,73.6,121.7"/>
		<path clip-path="url(#SVGID_14_)" fill="#61B4E4" d="M24.7,39.5c0,0,34.1,12.8,90-16.8l-0.9,3.6c0,0-36.3,28.6-93.7,20.7
			L24.7,39.5z"/>
		<path clip-path="url(#SVGID_14_)" fill="#61B4E4" d="M60.6,56c-17,1.2-44.1,12.3-44.1,12.3l0.3,1.3C32.1,64.9,51.1,62,61,61.5
			L60.6,56z"/>
		<path clip-path="url(#SVGID_14_)" fill="#004B8D" d="M71.6,116.7C41.1,120,21.3,94.4,19.4,70.6c-1.9-24.1,14-48,37.6-54.2
			c2-0.5,1.1-0.8-0.2-0.6c-26.1,4-45.1,27.9-43.1,55.2c2,27.2,25.3,53.8,57.8,46.8C73.3,117.3,73.4,116.5,71.6,116.7"/>
		<path clip-path="url(#SVGID_14_)" fill="#61B4E4" d="M45.2,127.6c0,0,11.1-26.8,11.8-66.3l3.9-0.2c0,0,2.1,33.9-9.6,74.2
			L45.2,127.6z"/>
	</g>
	<polygon fill="#004B8D" points="73,306.1 77,306.1 77,315.5 87.8,315.5 87.8,306.1 91.8,306.1 91.8,328.7 87.8,328.7 87.8,319.2 
		77,319.2 77,328.7 73,328.7 	"/>
	<g>
		<defs>
			<rect id="SVGID_15_" x="13.6" y="15.7" width="352.9" height="338.5"/>
		</defs>
		<clipPath id="SVGID_16_">
			<use xlink:href="#SVGID_15_"  overflow="visible"/>
		</clipPath>
		<path clip-path="url(#SVGID_16_)" fill="#004B8D" d="M108.2,320.3L108.2,320.3c0-3.1-2.2-5.6-5.2-5.6c-3.1,0-5.1,2.5-5.1,5.4v0.1
			c0,3,2.2,5.5,5.2,5.5C106.2,325.7,108.2,323.2,108.2,320.3 M94,320.3L94,320.3c0-4.9,3.9-9,9.1-9c5.2,0,9.1,4,9.1,8.9v0.1
			c0,4.8-3.9,8.9-9.1,8.9C97.8,329.1,94,325.1,94,320.3"/>
		<path clip-path="url(#SVGID_16_)" fill="#004B8D" d="M113.1,326.5l1.7-2.6c1.8,1.4,3.8,2.1,5.6,2.1c1.7,0,2.7-0.7,2.7-1.8V324
			c0-1.3-1.8-1.8-3.8-2.4c-2.5-0.7-5.3-1.7-5.3-5v-0.1c0-3.2,2.7-5.2,6.1-5.2c2.1,0,4.5,0.7,6.3,1.9l-1.6,2.8
			c-1.6-1-3.4-1.6-4.8-1.6c-1.5,0-2.4,0.7-2.4,1.7v0.1c0,1.2,1.8,1.7,3.8,2.4c2.5,0.8,5.3,1.9,5.3,5v0.1c0,3.6-2.8,5.4-6.3,5.4
			C117.9,329,115.3,328.2,113.1,326.5"/>
		<path clip-path="url(#SVGID_16_)" fill="#004B8D" d="M142.7,320.2L142.7,320.2c0-3.4-2.2-5.5-4.9-5.5c-2.6,0-5,2.2-5,5.5v0.1
			c0,3.3,2.3,5.5,5,5.5C140.5,325.7,142.7,323.6,142.7,320.2 M129.1,311.7h3.9v2.8c1.3-1.8,3-3.2,5.8-3.2c4,0,7.9,3.2,7.9,8.9v0.1
			c0,5.7-3.9,8.9-7.9,8.9c-2.8,0-4.6-1.4-5.8-3v7.8h-3.9V311.7z"/>
	</g>
	<path fill="#004B8D" d="M149.3,311.7h3.9v17.1h-3.9V311.7z M149.2,305.3h4.2v3.7h-4.2V305.3z"/>
	<g>
		<defs>
			<rect id="SVGID_17_" x="13.6" y="15.7" width="352.9" height="338.5"/>
		</defs>
		<clipPath id="SVGID_18_">
			<use xlink:href="#SVGID_17_"  overflow="visible"/>
		</clipPath>
		<path clip-path="url(#SVGID_18_)" fill="#004B8D" d="M157.5,324v-9h-2.2v-3.4h2.2V307h3.9v4.7h4.6v3.4h-4.6v8.4
			c0,1.5,0.8,2.1,2.1,2.1c0.9,0,1.6-0.2,2.4-0.6v3.2c-1,0.5-2.1,0.9-3.5,0.9C159.6,329,157.5,327.8,157.5,324"/>
		<path clip-path="url(#SVGID_18_)" fill="#004B8D" d="M179.5,321.6c-1-0.4-2.4-0.7-3.9-0.7c-2.5,0-3.9,1-3.9,2.7v0.1
			c0,1.6,1.5,2.5,3.3,2.5c2.6,0,4.5-1.5,4.5-3.6V321.6z M179.4,328.7v-2.1c-1.2,1.4-2.9,2.5-5.5,2.5c-3.2,0-6.1-1.8-6.1-5.3v-0.1
			c0-3.8,2.9-5.6,6.9-5.6c2.1,0,3.4,0.3,4.7,0.7v-0.3c0-2.4-1.5-3.7-4.2-3.7c-1.9,0-3.3,0.4-4.9,1.1l-1.1-3.1
			c1.9-0.8,3.7-1.4,6.5-1.4c5,0,7.5,2.6,7.5,7.2v10.1H179.4z"/>
	</g>
	<rect x="186.6" y="305.1" fill="#004B8D" width="3.9" height="23.6"/>
	<g>
		<defs>
			<rect id="SVGID_19_" x="13.6" y="15.7" width="352.9" height="338.5"/>
		</defs>
		<clipPath id="SVGID_20_">
			<use xlink:href="#SVGID_19_"  overflow="visible"/>
		</clipPath>
		<path clip-path="url(#SVGID_20_)" fill="#004B8D" d="M202.3,325.4l2.4-2.8c2.2,1.9,4.3,2.9,7.1,2.9c2.5,0,4-1.1,4-2.8v-0.1
			c0-1.6-0.9-2.5-5.1-3.5c-4.8-1.2-7.5-2.6-7.5-6.8v-0.1c0-3.9,3.2-6.6,7.7-6.6c3.3,0,5.9,1,8.2,2.8l-2.1,3c-2-1.5-4.1-2.3-6.1-2.3
			c-2.3,0-3.7,1.2-3.7,2.7v0.1c0,1.7,1,2.5,5.4,3.6c4.8,1.2,7.3,2.9,7.3,6.6v0.1c0,4.2-3.3,6.8-8.1,6.8
			C208.3,329,205,327.8,202.3,325.4"/>
	</g>
	<path fill="#004B8D" d="M222.7,311.7h3.9v17.1h-3.9V311.7z M222.5,305.3h4.2v3.7h-4.2V305.3z"/>
	<g>
		<defs>
			<rect id="SVGID_21_" x="13.6" y="15.7" width="352.9" height="338.5"/>
		</defs>
		<clipPath id="SVGID_22_">
			<use xlink:href="#SVGID_21_"  overflow="visible"/>
		</clipPath>
		<path clip-path="url(#SVGID_22_)" fill="#004B8D" d="M228.7,326.5l1.7-2.6c1.8,1.4,3.8,2.1,5.6,2.1c1.7,0,2.7-0.7,2.7-1.8V324
			c0-1.3-1.8-1.8-3.8-2.4c-2.5-0.7-5.3-1.7-5.3-5v-0.1c0-3.2,2.7-5.2,6.1-5.2c2.1,0,4.5,0.7,6.3,1.9l-1.6,2.8
			c-1.6-1-3.4-1.6-4.8-1.6c-1.5,0-2.4,0.7-2.4,1.7v0.1c0,1.2,1.8,1.7,3.8,2.4c2.5,0.8,5.3,1.9,5.3,5v0.1c0,3.6-2.8,5.4-6.3,5.4
			C233.5,329,230.8,328.2,228.7,326.5"/>
		<path clip-path="url(#SVGID_22_)" fill="#004B8D" d="M246.4,324v-9h-2.2v-3.4h2.2V307h3.9v4.7h4.6v3.4h-4.6v8.4
			c0,1.5,0.8,2.1,2.1,2.1c0.9,0,1.6-0.2,2.4-0.6v3.2c-1,0.5-2.1,0.9-3.5,0.9C248.4,329,246.4,327.8,246.4,324"/>
		<path clip-path="url(#SVGID_22_)" fill="#004B8D" d="M268.9,319c-0.3-2.5-1.7-4.5-4.3-4.5c-2.4,0-4.1,1.8-4.4,4.5H268.9z
			 M256.3,320.3L256.3,320.3c0-4.9,3.5-9,8.3-9c5.4,0,8.2,4.3,8.2,9.2c0,0.4,0,0.7-0.1,1.1h-12.5c0.4,2.8,2.4,4.3,4.9,4.3
			c1.9,0,3.3-0.7,4.6-2l2.3,2c-1.6,1.9-3.8,3.2-7,3.2C260.1,329.1,256.3,325.5,256.3,320.3"/>
		<path clip-path="url(#SVGID_22_)" fill="#004B8D" d="M275.8,311.7h3.9v3.8c1.1-2.6,3-4.3,6-4.2v4.1h-0.2c-3.4,0-5.8,2.2-5.8,6.8
			v6.5h-3.9V311.7z"/>
		<path clip-path="url(#SVGID_22_)" fill="#004B8D" d="M286.8,326.5l1.7-2.6c1.8,1.4,3.8,2.1,5.6,2.1c1.7,0,2.7-0.7,2.7-1.8V324
			c0-1.3-1.8-1.8-3.8-2.4c-2.5-0.7-5.3-1.7-5.3-5v-0.1c0-3.2,2.7-5.2,6.1-5.2c2.1,0,4.5,0.7,6.3,1.9l-1.6,2.8
			c-1.6-1-3.4-1.6-4.8-1.6c-1.5,0-2.4,0.7-2.4,1.7v0.1c0,1.2,1.8,1.7,3.8,2.4c2.5,0.8,5.3,1.9,5.3,5v0.1c0,3.6-2.8,5.4-6.3,5.4
			C291.6,329,288.9,328.2,286.8,326.5"/>
	</g>
	<polygon points="113.8,341.5 113.8,347.1 106.6,347.1 106.6,341.5 105.2,341.5 105.2,354.1 106.6,354.1 106.6,348.4 113.8,348.4 
		113.8,354.1 115.3,354.1 115.3,341.5 	"/>
	<polygon points="119.7,341.5 119.7,354.1 128.9,354.1 128.9,352.8 121.1,352.8 121.1,348.4 128,348.4 128,347.1 121.1,347.1 
		121.1,342.8 128.8,342.8 128.8,341.5 	"/>
	<path d="M137.9,343.1l2.8,6.4H135L137.9,343.1z M137.3,341.4l-5.7,12.6h1.5l1.5-3.3h6.8l1.5,3.3h1.5l-5.7-12.6H137.3z"/>
	<polygon points="147.7,341.5 147.7,354.1 156.2,354.1 156.2,352.8 149.1,352.8 149.1,341.5 	"/>
	<polygon points="158.8,341.5 158.8,342.8 163,342.8 163,354.1 164.4,354.1 164.4,342.8 168.6,342.8 168.6,341.5 	"/>
	<polygon points="180.8,341.5 180.8,347.1 173.6,347.1 173.6,341.5 172.2,341.5 172.2,354.1 173.6,354.1 173.6,348.4 180.8,348.4 
		180.8,354.1 182.3,354.1 182.3,341.5 	"/>
	<g>
		<defs>
			<rect id="SVGID_23_" x="13.6" y="15.7" width="352.9" height="338.5"/>
		</defs>
		<clipPath id="SVGID_24_">
			<use xlink:href="#SVGID_23_"  overflow="visible"/>
		</clipPath>
		<path clip-path="url(#SVGID_24_)" d="M192.2,352.3l0.9-1c1.3,1.2,2.6,1.8,4.3,1.8c1.7,0,2.8-0.9,2.8-2.1v0c0-1.2-0.6-1.8-3.3-2.4
			c-2.9-0.6-4.2-1.6-4.2-3.6v0c0-2,1.7-3.4,4.1-3.4c1.8,0,3.1,0.5,4.4,1.5l-0.8,1.1c-1.2-1-2.3-1.4-3.6-1.4c-1.6,0-2.7,0.9-2.7,2v0
			c0,1.2,0.6,1.8,3.4,2.4c2.8,0.6,4.1,1.6,4.1,3.5v0c0,2.1-1.8,3.5-4.3,3.5C195.3,354.3,193.7,353.6,192.2,352.3"/>
	</g>
	<polygon points="214.3,341.5 210,347.8 205.8,341.5 204.1,341.5 209.3,349.1 209.3,354.1 210.7,354.1 210.7,349.1 215.9,341.5 	"/>
	<g>
		<defs>
			<rect id="SVGID_25_" x="13.6" y="15.7" width="352.9" height="338.5"/>
		</defs>
		<clipPath id="SVGID_26_">
			<use xlink:href="#SVGID_25_"  overflow="visible"/>
		</clipPath>
		<path clip-path="url(#SVGID_26_)" d="M217.6,352.3l0.9-1c1.3,1.2,2.6,1.8,4.3,1.8c1.7,0,2.8-0.9,2.8-2.1v0c0-1.2-0.6-1.8-3.3-2.4
			c-2.9-0.6-4.2-1.6-4.2-3.6v0c0-2,1.7-3.4,4.1-3.4c1.8,0,3.1,0.5,4.4,1.5l-0.8,1.1c-1.2-1-2.3-1.4-3.6-1.4c-1.6,0-2.7,0.9-2.7,2v0
			c0,1.2,0.6,1.8,3.4,2.4c2.8,0.6,4.1,1.6,4.1,3.5v0c0,2.1-1.8,3.5-4.3,3.5C220.7,354.3,219.1,353.6,217.6,352.3"/>
	</g>
	<polygon points="229.9,341.5 229.9,342.8 234.1,342.8 234.1,354.1 235.5,354.1 235.5,342.8 239.7,342.8 239.7,341.5 	"/>
	<polygon points="243.3,341.5 243.3,354.1 252.4,354.1 252.4,352.8 244.7,352.8 244.7,348.4 251.5,348.4 251.5,347.1 244.7,347.1 
		244.7,342.8 252.3,342.8 252.3,341.5 	"/>
	<polygon points="266.8,341.5 262.2,348.4 257.6,341.5 256.2,341.5 256.2,354.1 257.6,354.1 257.6,343.9 262.1,350.6 262.2,350.6 
		266.8,343.9 266.8,354.1 268.2,354.1 268.2,341.5 	"/>
	<g>
		<defs>
			<rect id="SVGID_27_" x="13.6" y="15.7" width="352.9" height="338.5"/>
		</defs>
		<clipPath id="SVGID_28_">
			<use xlink:href="#SVGID_27_"  overflow="visible"/>
		</clipPath>
		<path clip-path="url(#SVGID_28_)" fill="#61B4E4" d="M240.5,226.8c-0.1-0.8-0.2-1.6-0.3-2.4c-22.5-7.7-34.4-8.7-44.1-8.9l0,0l0,0
			c0,0.1-0.1,1.6-0.1,4.2c-0.1,8.9,0.3,30.9,6.4,57.3c2.2-1.1,4.3-2.4,6.4-3.8c-3.1-10.3-7.8-29.2-8.7-53.2
			c18.9,1.8,37.8,9.6,40.6,10.8C240.6,229.4,240.6,228,240.5,226.8"/>
		<path clip-path="url(#SVGID_28_)" fill="#61B4E4" d="M196,215.5C196,215.5,196,215.5,196,215.5L196,215.5L196,215.5z"/>
		<path clip-path="url(#SVGID_28_)" fill="#004B8D" d="M242,221.6c-1.9-26.1-22.6-45.1-49-43.6c-6,0.3-13.3,1.9-19.3,4.4
			c-2.2,0.9-2,1.3,0.3,0.7c5.1-1.4,11.1-2.3,15.6-2.5c24.2-1.1,46.8,19.3,50.6,43.9c0.1,0.8,0.2,1.6,0.3,2.4c0.1,1.2,0.2,2.6,0.2,4
			c0,1.2,0,2.5-0.1,3.8c-0.2,3.1,0.5,3.2,0.9,0.1C242.1,230.3,242.3,225.4,242,221.6"/>
		<path clip-path="url(#SVGID_28_)" fill="#004B8D" d="M191.3,281.7c-1.9,0.3-1.4,0.9,0.6,0.7c3.9-0.5,7.6-1.3,11.2-2.5
			c2.4-0.8,4.7-1.7,7-2.7c15.6-7.3,26.3-21,26-37.8c0-1,0-2.5-0.1-4c0-1.3-0.6-1.1-0.8-0.1c-3.5,16.6-13.4,29.4-26.4,38
			c-2.1,1.4-4.2,2.6-6.4,3.8C198.8,278.9,195.1,280.5,191.3,281.7"/>
		<path clip-path="url(#SVGID_28_)" fill="#61B4E4" d="M142.4,199.5c0,0,34.1,12.8,90-16.8l-0.9,3.6c0,0-36.3,28.6-93.7,20.7
			L142.4,199.5z"/>
		<path clip-path="url(#SVGID_28_)" fill="#61B4E4" d="M178.3,216c-17,1.2-44.1,12.3-44.1,12.3l0.3,1.3c15.3-4.8,34.4-7.6,44.2-8.1
			L178.3,216z"/>
		<path clip-path="url(#SVGID_28_)" fill="#004B8D" d="M189.3,276.7c-30.5,3.3-50.3-22.3-52.2-46.1c-1.9-24.1,14-48,37.6-54.2
			c2-0.5,1.1-0.8-0.2-0.6c-26.1,4-45.1,27.9-43.1,55.2c2,27.2,25.3,53.8,57.8,46.8C191,277.3,191.1,276.5,189.3,276.7"/>
		<path clip-path="url(#SVGID_28_)" fill="#61B4E4" d="M162.9,287.6c0,0,11.1-26.8,11.8-66.3l3.9-0.2c0,0,2.1,33.9-9.6,74.2
			L162.9,287.6z"/>
	</g>
</g>
</svg>
