<?xml version="1.0" encoding="utf-8"?>
<!-- Generator: Adobe Illustrator 18.1.1, SVG Export Plug-In . SVG Version: 6.00 Build 0)  -->
<!DOCTYPE svg PUBLIC "-//W3C//DTD SVG 1.1//EN" "http://www.w3.org/Graphics/SVG/1.1/DTD/svg11.dtd">
<svg version="1.1" id="Layer_1" xmlns="http://www.w3.org/2000/svg" xmlns:xlink="http://www.w3.org/1999/xlink" x="0px" y="0px"
	 viewBox="0 0 100 35" enable-background="new 0 0 100 35" xml:space="preserve">
<g>
	<path fill="#999999" d="M28.9,5.4c0-0.1,0-0.1,0-0.1c0.3-1.5,0.3-1.5,1.8-1.5c4,0,8.1,0,12.1-0.1c0.2,0,0.5,0,0.8,0
		c-0.1,0.6-0.3,1.2-0.4,1.8c-1.9,0.1-3.2,1.4-4.5,2.5c-3.3,2.7-6.7,5.3-10,8c-0.1,0.1-0.2,0.2-0.4,0.3c1,1.6,2,3.1,3,4.7
		c1.2,1.9,2.4,3.7,3.7,5.5c1,1.4,2.2,2.4,4,2.5c-0.2,0.6-0.3,1.2-0.5,2c-3.1-0.1-6.3-0.1-9.4-0.4c-2.5-0.2-4.3-1.8-5.7-3.7
		c-1.8-2.4-3.4-4.9-5.1-7.4c-0.2-0.2-0.3-0.5-0.5-0.8c-0.1,0.2-0.1,0.3-0.2,0.4c-0.7,2.5-1.4,4.9-2,7.4c-0.3,1,0,1.6,0.9,2.1
		c0.2,0.1,0.5,0.2,0.8,0.4c-0.1,0.6-0.3,1.2-0.4,1.7c0,0.1-0.3,0.2-0.5,0.2c-1.2,0-2.5,0-3.7,0c-3.2,0-6.3,0-9.5,0
		c-0.2,0-0.4,0-0.7,0c0.1-0.6,0.3-1.2,0.4-1.7c0-0.1,0.2-0.2,0.3-0.2c1.3-0.1,2.2-0.9,2.7-2c0.6-1.3,1-2.7,1.4-4.1
		c1.3-4.6,2.5-9.3,3.8-13.9c0.5-1.8,0.3-2.9-1.7-3.4C9.7,5,9.8,4.5,10,4c0-0.1,0.3-0.2,0.5-0.2c1.1,0,2.3,0,3.4,0c3,0,5.9,0,8.9,0
		c0.3,0,0.6,0,0.9,0c-0.1,0.6-0.2,1.1-0.4,1.5c0,0.1-0.2,0.2-0.4,0.3c-1.1,0.3-1.8,1-2.1,2.2c-0.7,2.6-1.4,5.3-2.2,7.9
		c0,0.2-0.1,0.3-0.1,0.6c1-0.8,1.9-1.4,2.8-2.1c2.8-2.1,5.6-4.3,8.4-6.4c0.2-0.1,0.4-0.3,0.5-0.5c0.4-0.5,0.4-0.9-0.1-1.3
		C29.8,5.8,29.4,5.7,28.9,5.4z"/>
	<path fill="#999999" d="M53.3,30.9c-4.1,0-8.1,0-12.3,0c0.1-0.3,0.1-0.6,0.2-0.9c1.9-7.1,3.9-14.2,5.8-21.3
		c0.5-1.8,0.1-2.6-1.6-3.2c0,0-0.1,0-0.1-0.1c0.1-0.5,0.2-0.9,0.4-1.4c0-0.1,0.2-0.2,0.3-0.3c0.1,0,0.3,0,0.4,0c7.8,0,15.5,0,23.3,0
		c0.2,0,0.4,0,0.7,0c-0.5,1.9-1,3.8-1.4,5.7c-0.1,0.3-0.1,0.5-0.2,0.8c-0.2,0.8-0.2,0.8-1.1,0.8c-0.4-1.3-1.5-1.7-2.7-1.8
		c-2.6,0-5.2,0-7.9,0c-0.1,0-0.3,0.1-0.4,0.2c-0.5,1.6-0.9,3.2-1.3,4.9c3.2,0,6.3,0,9.5,0c-0.5,2.2-1.1,4.4-1.6,6.6
		c-1.4-1.4-3.1-1.5-4.9-1.4c-1.3,0-2.6,0-4,0c-0.4,0-0.6,0.1-0.7,0.5c-0.5,2.1-1.1,4.1-1.6,6.1c-0.3,1.1,0.1,2,1.1,2.4
		c0.5,0.2,0.6,0.5,0.4,0.9C53.5,30.1,53.4,30.5,53.3,30.9z"/>
	<path fill="#999999" d="M93.9,24.9c-0.4,1.8-0.8,3.6-1.3,5.3c0,0.1-0.2,0.2-0.4,0.3c-3.7,0.7-7.4,1.1-11.2,0.9
		c-2.5-0.2-5-0.6-7.3-1.6c-2.9-1.3-5.1-3.2-6.3-6.2c-1.4-3.5-0.9-6.9,0.9-10.1c2.3-4.1,6-6.6,10.3-8.2c4.4-1.6,8.9-2.1,13.6-1.5
		c1.5,0.2,3,0.5,4.4,0.8c0.2,0,0.4,0.1,0.6,0.2c-0.1,0.4-0.2,0.7-0.3,1c-0.5,1.7-0.9,3.4-1.4,5.1c-0.2,0.6-0.9,0.8-1.3,0.3
		c-1.6-1.9-3.7-2.4-6-2.5c-2.8,0-5.5,0.4-7.8,2c-3.5,2.2-4.9,6.2-3.5,9.9c0.8,2.1,2.4,3.6,4.4,4.5c2.5,1.1,5,1.3,7.6,0.8
		C90.7,25.7,92.3,25.3,93.9,24.9z"/>
</g>
</svg>
