<?xml version="1.0" encoding="utf-8"?>
<!-- Generator: Adobe Illustrator 18.1.1, SVG Export Plug-In . SVG Version: 6.00 Build 0)  -->
<!DOCTYPE svg PUBLIC "-//W3C//DTD SVG 1.1//EN" "http://www.w3.org/Graphics/SVG/1.1/DTD/svg11.dtd">
<svg version="1.1" id="Layer_1" xmlns="http://www.w3.org/2000/svg" xmlns:xlink="http://www.w3.org/1999/xlink" x="0px" y="0px"
	 viewBox="0 0 85 85" enable-background="new 0 0 85 85" xml:space="preserve">
<g>
	<path fill="#FFFFFF" d="M42.5,83.5c-22.6,0-41-18.4-41-41s18.4-41,41-41c22.6,0,41,18.4,41,41S65.1,83.5,42.5,83.5z M42.5,3.5
		c-21.5,0-39,17.5-39,39s17.5,39,39,39s39-17.5,39-39S64,3.5,42.5,3.5z"/>
	<path fill="#FFFFFF" d="M32.4,57.4h-7V34.9h7V57.4z M28.7,32.1L28.7,32.1c-2.6,0-4.2-1.7-4.2-3.9c0-2.2,1.7-3.9,4.3-3.9
		c2.6,0,4.2,1.7,4.2,3.9C33,30.4,31.4,32.1,28.7,32.1z M60.5,57.4h-8V45.8c0-3-1.2-5.1-4-5.1c-2.1,0-3.3,1.4-3.8,2.8
		c-0.2,0.5-0.2,1.2-0.2,1.8v12.2h-7.9c0,0,0.1-20.6,0-22.5h7.9v3.5c0.5-1.5,3-3.7,7-3.7c5,0,8.9,3.2,8.9,10.2V57.4z"/>
</g>
</svg>
