<?xml version="1.0" encoding="utf-8"?>
<!-- Generator: Adobe Illustrator 18.1.1, SVG Export Plug-In . SVG Version: 6.00 Build 0)  -->
<!DOCTYPE svg PUBLIC "-//W3C//DTD SVG 1.1//EN" "http://www.w3.org/Graphics/SVG/1.1/DTD/svg11.dtd">
<svg version="1.1" id="Layer_1" xmlns="http://www.w3.org/2000/svg" xmlns:xlink="http://www.w3.org/1999/xlink" x="0px" y="0px"
	 viewBox="0 0 600 600" enable-background="new 0 0 600 600" xml:space="preserve">
<path fill="#FFFFFF" d="M75,158.8h450c20.6,0,37.5-16.9,37.5-37.5S545.6,83.8,525,83.8H75c-20.6,0-37.5,16.9-37.5,37.5
	S54.4,158.8,75,158.8z M525,262.5H75c-20.6,0-37.5,16.9-37.5,37.5s16.9,37.5,37.5,37.5h450c20.6,0,37.5-16.9,37.5-37.5
	S545.6,262.5,525,262.5z M525,441.2H75c-20.6,0-37.5,16.9-37.5,37.5s16.9,37.5,37.5,37.5h450c20.6,0,37.5-16.9,37.5-37.5
	S545.6,441.2,525,441.2z"/>
</svg>
