<?xml version="1.0" encoding="utf-8"?>
<!-- Generator: Adobe Illustrator 18.1.1, SVG Export Plug-In . SVG Version: 6.00 Build 0)  -->
<!DOCTYPE svg PUBLIC "-//W3C//DTD SVG 1.1//EN" "http://www.w3.org/Graphics/SVG/1.1/DTD/svg11.dtd">
<svg version="1.1" id="Layer_1" xmlns="http://www.w3.org/2000/svg" xmlns:xlink="http://www.w3.org/1999/xlink" x="0px" y="0px"
	 viewBox="0 0 100 33" enable-background="new 0 0 100 33" xml:space="preserve">
<g>
	<g>
		<path fill="#999999" d="M9.8,9.5c0-3.8,3.1-7,6.9-7c3.8,0,6.9,3.1,6.9,7H9.8z"/>
		<path fill="#999999" d="M2.9,16.5c0-3.8,3.1-7,6.9-7c0,3.8,3.1,7,6.9,7c-3.8,0-6.9,3.1-6.9,7C6,23.5,2.9,20.3,2.9,16.5"/>
		<path fill="#999999" d="M23.5,23.5c0,3.8-3.1,7-6.9,7c-3.8,0-6.9-3.1-6.9-7H23.5z"/>
		<path fill="#999999" d="M23.5,9.5c3.8,0,6.9,3.1,6.9,7c0,3.8-3.1,7-6.9,7c0-3.8-3.1-7-6.9-7C20.4,16.5,23.5,13.4,23.5,9.5"/>
		<polygon fill="#999999" points="51.8,23.5 48.7,23.5 48.7,14.1 44.7,23.5 40.4,14.1 40.4,23.5 37.5,23.5 37.5,9.5 41.7,9.5 
			44.7,16.7 47.6,9.5 51.8,9.5 		"/>
		<polygon fill="#999999" points="55.7,9.5 56.5,9.5 61.4,9.5 61.4,12 56.5,12 56.5,15.2 61.2,15.2 61.2,17.6 56.5,17.6 56.5,21.1 
			61.4,21.1 61.4,23.5 56.5,23.5 55.7,23.5 53.4,23.5 53.4,9.5 		"/>
		<path fill="#999999" d="M84.2,10.2c-4.1-2.4-11,0.2-11,6.3c0,5.2,5.3,9.3,11,6.5v-3c-4.3,3.1-8.1,0-8-3.4c0-2.3,1.6-4.5,4.5-4.6
			c1.4-0.1,2.4,0.3,3.5,1.4V10.2z"/>
		<rect x="85.5" y="9.7" fill="#999999" width="2.9" height="13.8"/>
		<polygon fill="#999999" points="93.8,23.5 88.7,16 93.1,9.7 96.5,9.7 92.1,16 97.1,23.5 		"/>
		<path fill="#999999" d="M62.7,9.5h3.1h2.3c3.2,0,4.5,2.6,4.5,4.2c0,1.6-0.6,3.2-2.5,3.9l4,5.8h-3.3L65.8,16v7.5h-3.1V9.5z
			 M67.5,15.9c1.2,0,2.1-0.9,2.1-2c0-0.6-0.1-2.1-2.4-2.1h-1.3v4.1H67.5z"/>
	</g>
</g>
</svg>
