<?xml version="1.0" encoding="utf-8"?>
<!-- Generator: Adobe Illustrator 18.1.1, SVG Export Plug-In . SVG Version: 6.00 Build 0)  -->
<!DOCTYPE svg PUBLIC "-//W3C//DTD SVG 1.1//EN" "http://www.w3.org/Graphics/SVG/1.1/DTD/svg11.dtd">
<svg version="1.1" id="Layer_1" xmlns="http://www.w3.org/2000/svg" xmlns:xlink="http://www.w3.org/1999/xlink" x="0px" y="0px"
	 viewBox="0 0 415 100" enable-background="new 0 0 415 100" xml:space="preserve">
<path fill="#FFFFFF" d="M117,53c0,0.7-0.1,0.8-0.8,0.8h-2.4c-0.5,0-0.6-0.1-0.8-0.5l-6.6-12.4c-1.1-2-1.7-3.3-2.1-4.9h-0.1
	c0,0.5,0.1,2.3,0.1,4V53c0,0.7-0.1,0.8-0.8,0.8h-2.6c-0.6,0-0.8-0.1-0.8-0.8V29.6c0-0.7,0.1-0.8,0.8-0.8h3c0.5,0,0.6,0.1,0.8,0.5
	l6,11.2c1,1.9,1.7,3.8,2.1,5.3h0.1c0-1.2-0.1-3.7-0.1-4.7V29.6c0-0.7,0.1-0.8,0.8-0.8h2.6c0.6,0,0.8,0.1,0.8,0.8V53z"/>
<path fill="#FFFFFF" d="M143.4,53c0,0.7-0.1,0.8-0.7,0.8h-11.9c-0.6,0-0.8-0.1-0.8-0.8V29.6c0-0.7,0.1-0.8,0.8-0.8h11.9
	c0.7,0,0.9,0.1,0.9,0.4c0,0.2,0,0.3-0.1,0.5l-0.7,2.4c-0.1,0.5-0.5,0.6-0.8,0.6h-7v6h6.2c0.7,0,0.8,0.1,0.8,0.8v2.4
	c0,0.7-0.1,0.8-0.8,0.8h-6.2v7.1h7.8c0.7,0,0.8,0.1,0.8,0.8V53z"/>
<path fill="#FFFFFF" d="M172.1,45.3c0,5.4-1.9,9-8.7,9s-8.7-3.6-8.7-9V29.6c0-0.7,0.1-0.8,0.8-0.8h3.4c0.6,0,0.8,0.1,0.8,0.8v15.7
	c0,2.6,0.2,5.1,3.8,5.1s3.8-2.5,3.8-5.1V29.6c0-0.7,0.1-0.8,0.8-0.8h3.4c0.6,0,0.8,0.1,0.8,0.8V45.3z"/>
<path fill="#FFFFFF" d="M190.7,39.6c2.4,0,4.4-0.4,4.4-3.7c0-3.2-2.1-3.3-4-3.3h-1.3v7H190.7z M189.8,53c0,0.7-0.1,0.8-0.8,0.8h-3.4
	c-0.6,0-0.8-0.1-0.8-0.8V29.6c0-0.7,0.1-0.8,0.8-0.8h5.9c2.8,0,8.4,0.2,8.4,7c0,4.7-2.8,6-4.1,6.7l5.4,9.7c0.1,0.2,0.3,0.5,0.3,0.7
	c0,0.2-0.4,0.3-0.7,0.4l-3,0.9c-0.1,0-0.4,0.1-0.5,0.1c-0.2,0-0.5-0.4-0.8-1.1l-4.9-9.8h-1.7V53z"/>
<path fill="#FFFFFF" d="M224,41.3c0-5.7-1.2-9.2-3.9-9.2c-2.7,0-3.9,3.6-3.9,9.2s1.2,9.2,3.9,9.2C222.9,50.5,224,47,224,41.3
	 M220.2,54.3c-5.6,0-9-4.2-9-13c0-8.8,3.4-13.1,9-13.1c5.6,0,9,4.3,9,13.1S225.8,54.3,220.2,54.3"/>
<path fill="#FFFFFF" d="M252.8,33.4c-0.1,0.2-0.3,0.4-0.4,0.4c-0.2,0-2.5-1.6-5.1-1.6c-1.7,0-3.4,0.7-3.4,2.8c0,2.8,4.2,3.3,7.4,5.6
	c1.8,1.4,3.1,3.3,3.1,6.1c0,4.6-3.3,7.7-7.8,7.7c-3.7,0-7.6-1.6-7.6-2.2c0-0.1,0.1-0.4,0.2-0.6l0.8-2.4c0.1-0.2,0.3-0.4,0.4-0.4
	c0.2,0,2.9,1.6,6,1.6c2,0,3.3-1.1,3.3-3.3c0-3.2-3.7-3.6-7.4-5.8c-1.9-1.2-3.2-2.6-3.2-5.6c0-5.2,3.8-7.4,8-7.4c3.4,0,7,1.6,7,2.2
	c0,0.1,0,0.3-0.2,0.5L252.8,33.4z"/>
<path fill="#FFFFFF" d="M279.9,51.5c0.1,0.2,0.2,0.4,0.2,0.5c0,0.6-2.5,2.3-6,2.3c-6.3,0-9.4-4.1-9.4-12.8c0-8.3,3.1-13.2,9.4-13.2
	c2.7,0,5.9,2,5.9,2.7c0,0.1,0,0.3-0.2,0.5l-1.3,2c-0.1,0.2-0.3,0.4-0.4,0.4c-0.6,0-1.8-1.7-3.7-1.7c-3.1,0-4.5,2.1-4.5,8.4
	c0,6.2,0.8,9.9,4.5,9.9c2,0,3.3-1.3,4.1-1.3c0.1,0,0.3,0.1,0.4,0.4L279.9,51.5z"/>
<path fill="#FFFFFF" d="M300.1,53c0,0.7-0.1,0.8-0.8,0.8h-8.9c-0.6,0-0.8-0.1-0.8-0.8v-2c0-0.7,0.1-0.8,0.8-0.8h2V32.4h-2
	c-0.6,0-0.8-0.1-0.8-0.8v-2c0-0.7,0.1-0.8,0.8-0.8h8.9c0.6,0,0.8,0.1,0.8,0.8v2c0,0.7-0.1,0.8-0.8,0.8h-2v17.9h2
	c0.6,0,0.8,0.1,0.8,0.8V53z"/>
<path fill="#FFFFFF" d="M325.1,53c0,0.7-0.1,0.8-0.7,0.8h-11.9c-0.6,0-0.8-0.1-0.8-0.8V29.6c0-0.7,0.1-0.8,0.8-0.8h11.9
	c0.7,0,0.9,0.1,0.9,0.4c0,0.2,0,0.3-0.1,0.5l-0.7,2.4c-0.1,0.5-0.5,0.6-0.8,0.6h-7v6h6.2c0.7,0,0.8,0.1,0.8,0.8v2.4
	c0,0.7-0.1,0.8-0.8,0.8h-6.2v7.1h7.8c0.7,0,0.8,0.1,0.8,0.8V53z"/>
<path fill="#FFFFFF" d="M353.4,53c0,0.7-0.1,0.8-0.8,0.8h-2.4c-0.5,0-0.6-0.1-0.8-0.5l-6.6-12.4c-1.1-2-1.7-3.3-2.1-4.9h-0.1
	c0,0.5,0.1,2.3,0.1,4V53c0,0.7-0.1,0.8-0.8,0.8h-2.6c-0.6,0-0.8-0.1-0.8-0.8V29.6c0-0.7,0.1-0.8,0.8-0.8h3c0.5,0,0.6,0.1,0.8,0.5
	l6,11.2c1,1.9,1.7,3.8,2.1,5.3h0.1c0-1.2-0.1-3.7-0.1-4.7V29.6c0-0.7,0.1-0.8,0.8-0.8h2.6c0.6,0,0.8,0.1,0.8,0.8V53z"/>
<path fill="#FFFFFF" d="M380.7,51.5c0.1,0.2,0.2,0.4,0.2,0.5c0,0.6-2.5,2.3-6,2.3c-6.3,0-9.4-4.1-9.4-12.8c0-8.3,3.1-13.2,9.4-13.2
	c2.7,0,5.9,2,5.9,2.7c0,0.1,0,0.3-0.2,0.5l-1.3,2c-0.1,0.2-0.3,0.4-0.4,0.4c-0.6,0-1.8-1.7-3.7-1.7c-3.1,0-4.5,2.1-4.5,8.4
	c0,6.2,0.8,9.9,4.5,9.9c2,0,3.3-1.3,4.1-1.3c0.1,0,0.3,0.1,0.4,0.4L380.7,51.5z"/>
<path fill="#FFFFFF" d="M405.3,53c0,0.7-0.1,0.8-0.7,0.8h-11.9c-0.6,0-0.8-0.1-0.8-0.8V29.6c0-0.7,0.1-0.8,0.8-0.8h11.9
	c0.7,0,0.9,0.1,0.9,0.4c0,0.2,0,0.3-0.1,0.5l-0.7,2.4c-0.1,0.5-0.5,0.6-0.8,0.6h-7v6h6.2c0.7,0,0.8,0.1,0.8,0.8v2.4
	c0,0.7-0.1,0.8-0.8,0.8h-6.2v7.1h7.8c0.7,0,0.8,0.1,0.8,0.8V53z"/>
<path fill="#FFFFFF" d="M104.7,19.5c0,1.2-0.7,2-2.2,2c-1.5,0-2.1-0.8-2.1-2v-4.9c0-0.1,0-0.1,0.1-0.1h0.6c0.1,0,0.1,0,0.1,0.1v4.9
	c0,0.8,0.3,1.3,1.3,1.3c0.9,0,1.4-0.4,1.4-1.3v-4.9c0-0.1,0-0.1,0.1-0.1h0.6c0.1,0,0.1,0,0.1,0.1V19.5z"/>
<path fill="#FFFFFF" d="M113,21.2c0,0.1,0,0.1-0.1,0.1h-0.6c-0.1,0-0.1,0-0.2-0.1l-2.3-4.9c-0.1-0.3-0.2-0.6-0.3-0.9l0,0
	c0.1,0.4,0.1,0.7,0.1,0.9v4.9c0,0.1,0,0.1-0.1,0.1H109c-0.1,0-0.1,0-0.1-0.1v-6.6c0-0.1,0-0.1,0.1-0.1h0.7c0.1,0,0.1,0,0.1,0.1
	l2.2,4.7c0.1,0.2,0.1,0.5,0.2,0.8l0,0c0-0.2-0.1-0.4-0.1-0.6v-4.8c0-0.1,0-0.1,0.1-0.1h0.5c0.1,0,0.1,0,0.1,0.1V21.2z"/>
<path fill="#FFFFFF" d="M119.7,21.2c0,0.1,0,0.1-0.1,0.1H117c-0.1,0-0.1,0-0.1-0.1v-0.4c0-0.1,0-0.1,0.1-0.1h0.9v-5.5H117
	c-0.1,0-0.1,0-0.1-0.1v-0.4c0-0.1,0-0.1,0.1-0.1h2.6c0.1,0,0.1,0,0.1,0.1V15c0,0.1,0,0.1-0.1,0.1h-0.9v5.5h0.9c0.1,0,0.1,0,0.1,0.1
	V21.2z"/>
<path fill="#FFFFFF" d="M125.7,21.3c0,0.1-0.1,0.1-0.2,0.1h-0.7c-0.1,0-0.1,0-0.2-0.1l-1.7-6.5c0,0,0-0.1,0-0.1
	c0-0.1,0.1-0.1,0.1-0.1l0.6-0.1c0,0,0.1,0,0.1,0c0,0,0.1,0.1,0.1,0.2l1.3,5.2c0,0.2,0.1,0.5,0.1,0.8h0c0-0.2,0.1-0.6,0.2-0.8
	l1.3-5.2c0-0.1,0-0.2,0.1-0.2c0,0,0.1,0,0.1,0l0.6,0.1c0,0,0.1,0,0.1,0.1c0,0,0,0.1,0,0.1L125.7,21.3z"/>
<path fill="#FFFFFF" d="M134.6,21.2c0,0.1,0,0.1-0.1,0.1h-3.1c-0.1,0-0.1,0-0.1-0.1v-6.6c0-0.1,0-0.1,0.1-0.1h3.1
	c0.1,0,0.1,0,0.1,0.1s0,0.1,0,0.1l-0.1,0.4c0,0.1-0.1,0.1-0.2,0.1h-2.2v2.2h2c0.1,0,0.1,0,0.1,0.1V18c0,0.1,0,0.1-0.1,0.1h-2v2.5
	h2.4c0.1,0,0.1,0,0.1,0.1V21.2z"/>
<path fill="#FFFFFF" d="M139.9,17.6c0.7,0,1.4-0.2,1.4-1.2c0-1.1-0.7-1.1-1.3-1.1h-0.8v2.4H139.9z M142.5,21.2c0,0,0,0.1,0,0.1
	c0,0,0,0.1-0.1,0.1l-0.6,0.1c-0.1,0-0.1,0-0.1-0.1l-1.6-3.2h-0.7v3c0,0.1,0,0.1-0.1,0.1h-0.6c-0.1,0-0.1,0-0.1-0.1v-6.6
	c0-0.1,0-0.1,0.1-0.1h1.6c0.8,0,2,0,2,1.8c0,1.1-0.8,1.7-1.3,1.8L142.5,21.2z"/>
<path fill="#FFFFFF" d="M149.3,15.3c0,0.1,0,0.1-0.1,0.1c0,0-0.1,0-0.1-0.1c-0.2-0.1-0.7-0.3-1.3-0.3c-0.6,0-1.1,0.3-1.1,1
	c0,1,1.3,1.2,2.1,1.9c0.5,0.4,0.8,0.9,0.8,1.6c0,1.2-0.9,2-2.1,2c-0.9,0-1.7-0.4-1.8-0.5c-0.1,0-0.1-0.1-0.1-0.1c0,0,0-0.1,0-0.1
	l0.1-0.3c0-0.1,0.1-0.1,0.1-0.1c0,0,0.1,0,0.1,0c0.2,0.1,0.8,0.4,1.5,0.4c0.8,0,1.2-0.5,1.2-1.1c0-1.7-2.9-1.4-2.9-3.5
	c0-1.2,0.9-1.8,2-1.8c0.8,0,1.4,0.4,1.6,0.4c0.1,0,0.1,0.1,0.1,0.1s0,0.1,0,0.1L149.3,15.3z"/>
<path fill="#FFFFFF" d="M155.9,21.2c0,0.1,0,0.1-0.1,0.1h-2.6c-0.1,0-0.1,0-0.1-0.1v-0.4c0-0.1,0-0.1,0.1-0.1h0.9v-5.5h-0.9
	c-0.1,0-0.1,0-0.1-0.1v-0.4c0-0.1,0-0.1,0.1-0.1h2.6c0.1,0,0.1,0,0.1,0.1V15c0,0.1,0,0.1-0.1,0.1h-0.9v5.5h0.9c0.1,0,0.1,0,0.1,0.1
	V21.2z"/>
<path fill="#FFFFFF" d="M161.5,15.2v6c0,0.1,0,0.1-0.1,0.1h-0.6c-0.1,0-0.1,0-0.1-0.1v-6h-1.5c-0.1,0-0.1,0-0.1-0.1v-0.5
	c0-0.1,0-0.1,0.1-0.1h3.9c0.1,0,0.1,0,0.1,0.1c0,0,0,0.1,0,0.1l-0.1,0.4c0,0.1-0.1,0.1-0.2,0.1H161.5z"/>
<path fill="#FFFFFF" d="M168.7,21.2c0,0.1,0,0.1-0.1,0.1H168c-0.1,0-0.1,0-0.1-0.1v-2.8l-1.9-3.7c0,0,0-0.1,0-0.1
	c0-0.1,0.1-0.1,0.1-0.1l0.6-0.1c0,0,0.1,0,0.1,0c0.1,0,0.1,0.1,0.1,0.1l1.3,2.6c0,0.1,0.2,0.3,0.3,0.5c0.1-0.3,0.2-0.4,0.3-0.6
	l1.2-2.5c0-0.1,0.1-0.1,0.1-0.1c0,0,0.1,0,0.1,0l0.6,0.1c0,0,0.1,0,0.1,0.1c0,0,0,0.1,0,0.1l-2,3.7V21.2z"/>
<path fill="#FFFFFF" d="M183,17.9c0-1.7-0.2-2.9-1.4-2.9c-1.1,0-1.4,1.2-1.4,2.9c0,1.8,0.2,2.9,1.4,2.9
	C182.8,20.8,183,19.7,183,17.9 M181.7,21.5c-1.6,0-2.3-1.4-2.3-3.6c0-2.1,0.7-3.6,2.3-3.6c1.6,0,2.3,1.4,2.3,3.6
	C183.9,20,183.3,21.5,181.7,21.5"/>
<path fill="#FFFFFF" d="M188.8,21.2c0,0.1,0,0.1-0.1,0.1h-0.6c-0.1,0-0.1,0-0.1-0.1v-6.6c0-0.1,0-0.1,0.1-0.1h3.1
	c0.1,0,0.1,0,0.1,0.1l0,0.1l-0.1,0.4c0,0,0,0,0,0.1c0,0-0.1,0-0.1,0h-2.2v2.2h2c0.1,0,0.1,0,0.1,0.1V18c0,0.1,0,0.1-0.1,0.1h-2V21.2
	z"/>
<path fill="#FFFFFF" d="M202.8,21.2c0,0.1,0,0.1-0.1,0.1H200c-0.1,0-0.1,0-0.1-0.1v-0.4c0-0.1,0-0.1,0.1-0.1h0.9v-5.5H200
	c-0.1,0-0.1,0-0.1-0.1v-0.4c0-0.1,0-0.1,0.1-0.1h2.6c0.1,0,0.1,0,0.1,0.1V15c0,0.1,0,0.1-0.1,0.1h-0.9v5.5h0.9c0.1,0,0.1,0,0.1,0.1
	V21.2z"/>
<path fill="#FFFFFF" d="M210.1,20.6c0.1,0,0.1,0,0.1,0.1c0,0,0,0.1,0,0.1l-0.1,0.4c0,0.1-0.1,0.1-0.2,0.1h-3c-0.1,0-0.1,0-0.1-0.1
	v-6.6c0-0.1,0-0.1,0.1-0.1h0.6c0.1,0,0.1,0,0.1,0.1v6H210.1z"/>
<path fill="#FFFFFF" d="M217.1,20.6c0.1,0,0.1,0,0.1,0.1c0,0,0,0.1,0,0.1l-0.1,0.4c0,0.1-0.1,0.1-0.2,0.1h-3c-0.1,0-0.1,0-0.1-0.1
	v-6.6c0-0.1,0-0.1,0.1-0.1h0.6c0.1,0,0.1,0,0.1,0.1v6H217.1z"/>
<path fill="#FFFFFF" d="M223.1,21.2c0,0.1,0,0.1-0.1,0.1h-2.6c-0.1,0-0.1,0-0.1-0.1v-0.4c0-0.1,0-0.1,0.1-0.1h0.9v-5.5h-0.9
	c-0.1,0-0.1,0-0.1-0.1v-0.4c0-0.1,0-0.1,0.1-0.1h2.6c0.1,0,0.1,0,0.1,0.1V15c0,0.1,0,0.1-0.1,0.1h-0.9v5.5h0.9c0.1,0,0.1,0,0.1,0.1
	V21.2z"/>
<path fill="#FFFFFF" d="M231.1,21.2c0,0.1,0,0.1-0.1,0.1h-0.6c-0.1,0-0.1,0-0.2-0.1l-2.3-4.9c-0.1-0.3-0.2-0.6-0.3-0.9l0,0
	c0.1,0.4,0.1,0.7,0.1,0.9v4.9c0,0.1,0,0.1-0.1,0.1h-0.5c-0.1,0-0.1,0-0.1-0.1v-6.6c0-0.1,0-0.1,0.1-0.1h0.7c0.1,0,0.1,0,0.1,0.1
	l2.2,4.7c0.1,0.2,0.1,0.5,0.2,0.8l0,0c0-0.2-0.1-0.4-0.1-0.6v-4.8c0-0.1,0-0.1,0.1-0.1h0.5c0.1,0,0.1,0,0.1,0.1V21.2z"/>
<path fill="#FFFFFF" d="M238.5,17.9c0-1.7-0.2-2.9-1.4-2.9c-1.1,0-1.4,1.2-1.4,2.9c0,1.8,0.2,2.9,1.4,2.9
	C238.2,20.8,238.5,19.7,238.5,17.9 M237.1,21.5c-1.6,0-2.3-1.4-2.3-3.6c0-2.1,0.7-3.6,2.3-3.6c1.6,0,2.3,1.4,2.3,3.6
	C239.3,20,238.7,21.5,237.1,21.5"/>
<path fill="#FFFFFF" d="M245.8,21.2c0,0.1,0,0.1-0.1,0.1H243c-0.1,0-0.1,0-0.1-0.1v-0.4c0-0.1,0-0.1,0.1-0.1h0.9v-5.5H243
	c-0.1,0-0.1,0-0.1-0.1v-0.4c0-0.1,0-0.1,0.1-0.1h2.6c0.1,0,0.1,0,0.1,0.1V15c0,0.1,0,0.1-0.1,0.1h-0.9v5.5h0.9c0.1,0,0.1,0,0.1,0.1
	V21.2z"/>
<path fill="#FFFFFF" d="M252.5,15.3c0,0.1,0,0.1-0.1,0.1c0,0-0.1,0-0.1-0.1c-0.2-0.1-0.7-0.3-1.3-0.3c-0.6,0-1.1,0.3-1.1,1
	c0,1,1.3,1.2,2.1,1.9c0.5,0.4,0.8,0.9,0.8,1.6c0,1.2-0.9,2-2.1,2c-0.9,0-1.7-0.4-1.8-0.5c0,0-0.1-0.1-0.1-0.1c0,0,0-0.1,0-0.1
	l0.1-0.3c0-0.1,0.1-0.1,0.1-0.1c0,0,0.1,0,0.1,0c0.2,0.1,0.8,0.4,1.5,0.4c0.7,0,1.2-0.5,1.2-1.1c0-1.7-2.9-1.4-2.9-3.5
	c0-1.2,0.9-1.8,2-1.8c0.8,0,1.4,0.4,1.6,0.4c0,0,0.1,0.1,0.1,0.1s0,0.1,0,0.1L252.5,15.3z"/>
<path fill="#FFFFFF" d="M264.4,16.4c-0.1-0.3-0.2-0.7-0.2-1h0c0,0.2-0.1,0.7-0.2,1l-0.6,2.2h1.7L264.4,16.4z M266.6,21.1
	c0,0.1,0,0.1,0,0.2c0,0,0,0.1-0.1,0.1h-0.6c-0.1,0-0.2,0-0.2-0.1l-0.6-1.9h-2.1l-0.5,1.9c0,0.1-0.1,0.1-0.2,0.1h-0.6
	c-0.1,0-0.1,0-0.1-0.1c0-0.1,0-0.1,0-0.2l2-6.5c0-0.1,0-0.1,0.2-0.1h0.6c0.1,0,0.1,0,0.1,0.1L266.6,21.1z"/>
<path fill="#FFFFFF" d="M271.5,15.2v6c0,0.1,0,0.1-0.1,0.1h-0.6c-0.1,0-0.1,0-0.1-0.1v-6h-1.5c-0.1,0-0.1,0-0.1-0.1v-0.5
	c0-0.1,0-0.1,0.1-0.1h3.9c0.1,0,0.1,0,0.1,0.1c0,0,0,0.1,0,0.1l-0.1,0.4c0,0.1-0.1,0.1-0.2,0.1H271.5z"/>
<path fill="#FFFFFF" d="M286.5,19.5c0,1.2-0.7,2-2.2,2c-1.5,0-2.1-0.8-2.1-2v-4.9c0-0.1,0-0.1,0.1-0.1h0.6c0.1,0,0.1,0,0.1,0.1v4.9
	c0,0.8,0.3,1.3,1.3,1.3c0.9,0,1.4-0.4,1.4-1.3v-4.9c0-0.1,0-0.1,0.1-0.1h0.6c0.1,0,0.1,0,0.1,0.1V19.5z"/>
<path fill="#FFFFFF" d="M292.3,17.6c0.7,0,1.4-0.2,1.4-1.2c0-1.1-0.7-1.1-1.3-1.1h-0.8v2.4H292.3z M294.9,21.2c0,0,0,0.1,0,0.1
	c0,0,0,0.1-0.1,0.1l-0.6,0.1c-0.1,0-0.1,0-0.2-0.1l-1.6-3.2h-0.7v3c0,0.1,0,0.1-0.1,0.1h-0.6c-0.1,0-0.1,0-0.1-0.1v-6.6
	c0-0.1,0-0.1,0.1-0.1h1.6c0.8,0,2,0,2,1.8c0,1.1-0.8,1.7-1.3,1.8L294.9,21.2z"/>
<path fill="#FFFFFF" d="M300.5,20.6c0.6,0,1.3-0.2,1.3-1.2c0-1-0.7-1.2-1.4-1.2h-0.9v2.5H300.5z M300.2,17.5c0.6,0,1.3-0.1,1.3-1.3
	c0-0.9-0.5-1-1.1-1h-0.9v2.3H300.2z M300.4,14.5c0.8,0,2,0.1,2,1.6c0,1-0.7,1.5-1,1.6c0.5,0.2,1.2,0.5,1.2,1.7
	c0,0.8-0.4,1.3-0.7,1.5c-0.4,0.3-0.9,0.4-1.7,0.4h-1.5c-0.1,0-0.1,0-0.1-0.1v-6.6c0-0.1,0-0.1,0.1-0.1H300.4z"/>
<path fill="#FFFFFF" d="M308.7,16.4c-0.1-0.3-0.2-0.7-0.2-1h0c0,0.2-0.1,0.7-0.2,1l-0.6,2.2h1.7L308.7,16.4z M310.9,21.1
	c0,0.1,0,0.1,0,0.2c0,0,0,0.1-0.1,0.1h-0.6c-0.1,0-0.2,0-0.2-0.1l-0.6-1.9h-2.1l-0.5,1.9c0,0.1-0.1,0.1-0.2,0.1h-0.6
	c-0.1,0-0.1,0-0.1-0.1c0-0.1,0-0.1,0-0.2l2-6.5c0-0.1,0-0.1,0.1-0.1h0.6c0.1,0,0.1,0,0.2,0.1L310.9,21.1z"/>
<path fill="#FFFFFF" d="M318.8,21.2c0,0.1,0,0.1-0.1,0.1h-0.6c-0.1,0-0.1,0-0.2-0.1l-2.3-4.9c-0.1-0.3-0.2-0.6-0.3-0.9l0,0
	c0.1,0.4,0.1,0.7,0.1,0.9v4.9c0,0.1,0,0.1-0.1,0.1h-0.5c-0.1,0-0.1,0-0.1-0.1v-6.6c0-0.1,0-0.1,0.1-0.1h0.7c0.1,0,0.1,0,0.1,0.1
	l2.2,4.7c0.1,0.2,0.1,0.5,0.2,0.8l0,0c0-0.2-0.1-0.4-0.1-0.6v-4.8c0-0.1,0-0.1,0.1-0.1h0.5c0.1,0,0.1,0,0.1,0.1V21.2z"/>
<path fill="#FFFFFF" d="M325.2,16.4c-0.1-0.3-0.2-0.7-0.2-1h0c0,0.2-0.1,0.7-0.2,1l-0.6,2.2h1.7L325.2,16.4z M327.4,21.1
	c0,0.1,0,0.1,0,0.2c0,0,0,0.1-0.1,0.1h-0.6c-0.1,0-0.2,0-0.2-0.1l-0.6-1.9h-2.1l-0.5,1.9c0,0.1-0.1,0.1-0.2,0.1h-0.6
	c-0.1,0-0.1,0-0.1-0.1c0-0.1,0-0.1,0-0.2l2-6.5c0-0.1,0-0.1,0.1-0.1h0.6c0.1,0,0.1,0,0.2,0.1L327.4,21.1z"/>
<path fill="#FFFFFF" d="M333.2,19.1c0,0.1,0,0.1-0.1,0.1h-2.2c-0.1,0-0.1,0-0.1-0.1v-0.5c0-0.1,0-0.2,0.1-0.2h2.2
	c0.1,0,0.1,0,0.1,0.1V19.1z"/>
<path fill="#FFFFFF" d="M340.7,20.6c0,0.1,0.1,0.1,0.1,0.1c0,0.2-0.7,0.8-1.6,0.8c-1.7,0-2.3-1.6-2.3-3.6c0-1.9,0.5-3.5,2.2-3.5
	c0.9,0,1.6,0.6,1.6,0.8c0,0.1,0,0.1-0.1,0.1l-0.2,0.3c0,0-0.1,0.1-0.1,0.1c-0.1,0-0.6-0.6-1.2-0.6c-1.1,0-1.4,1-1.4,2.7
	c0,1.9,0.4,3.1,1.4,3.1c0.6,0,1.1-0.6,1.2-0.6c0,0,0.1,0.1,0.1,0.1L340.7,20.6z"/>
<path fill="#FFFFFF" d="M345.3,18.1v3.1c0,0.1,0,0.1-0.1,0.1h-0.6c-0.1,0-0.1,0-0.1-0.1v-6.6c0-0.1,0-0.1,0.1-0.1h0.6
	c0.1,0,0.1,0,0.1,0.1v2.8h2.6v-2.8c0-0.1,0-0.1,0.1-0.1h0.6c0.1,0,0.1,0,0.1,0.1v6.6c0,0.1,0,0.1-0.1,0.1H348c-0.1,0-0.1,0-0.1-0.1
	v-3.1H345.3z"/>
<path fill="#FFFFFF" d="M355.2,16.4c-0.1-0.3-0.2-0.7-0.2-1h0c0,0.2-0.1,0.7-0.2,1l-0.6,2.2h1.7L355.2,16.4z M357.5,21.1
	c0,0.1,0,0.1,0,0.2c0,0,0,0.1-0.1,0.1h-0.6c-0.1,0-0.2,0-0.2-0.1l-0.6-1.9H354l-0.5,1.9c0,0.1-0.1,0.1-0.2,0.1h-0.6
	c-0.1,0-0.1,0-0.1-0.1c0-0.1,0-0.1,0-0.2l2-6.5c0-0.1,0-0.1,0.1-0.1h0.6c0.1,0,0.1,0,0.2,0.1L357.5,21.1z"/>
<path fill="#FFFFFF" d="M366.3,21.2c0,0.1,0,0.1-0.1,0.1h-0.6c-0.1,0-0.1,0-0.1-0.1l-0.2-5.1c0-0.2,0-0.4,0-0.6l0,0
	c0,0.2,0,0.5-0.1,0.7l-1.2,3.5c0,0.1-0.1,0.1-0.1,0.1h-0.3c-0.1,0-0.1,0-0.1-0.1l-1.2-3.5c-0.1-0.2-0.1-0.5-0.1-0.7l0,0
	c0,0.2,0,0.4,0,0.6l-0.1,5.1c0,0.1,0,0.1-0.1,0.1h-0.6c-0.1,0-0.1,0-0.1-0.1l0.4-6.6c0-0.1,0-0.1,0.1-0.1h0.6c0.1,0,0.1,0,0.1,0.1
	l1.2,3.5c0.1,0.1,0.1,0.4,0.1,0.6h0c0.1-0.2,0.1-0.5,0.1-0.6l1.2-3.5c0-0.1,0-0.1,0.1-0.1h0.7c0.1,0,0.1,0,0.1,0.1L366.3,21.2z"/>
<path fill="#FFFFFF" d="M372.1,17.8c0.7,0,1.4-0.2,1.4-1.4c0-1.1-0.7-1.1-1.3-1.1h-0.8v2.6H372.1z M371.5,21.2c0,0.1,0,0.1-0.1,0.1
	h-0.6c-0.1,0-0.1,0-0.1-0.1v-6.6c0-0.1,0-0.1,0.1-0.1h1.5c0.8,0,2,0.1,2,1.8c0,1.7-1.1,2.1-2.2,2.1h-0.7V21.2z"/>
<path fill="#FFFFFF" d="M379.7,16.4c-0.1-0.3-0.2-0.7-0.2-1h0c0,0.2-0.1,0.7-0.2,1l-0.6,2.2h1.7L379.7,16.4z M382,21.1
	c0,0.1,0,0.1,0,0.2c0,0,0,0.1-0.1,0.1h-0.6c-0.1,0-0.2,0-0.2-0.1l-0.6-1.9h-2.1l-0.5,1.9c0,0.1-0.1,0.1-0.2,0.1h-0.6
	c-0.1,0-0.1,0-0.1-0.1c0-0.1,0-0.1,0-0.2l2-6.5c0-0.1,0-0.1,0.1-0.1h0.6c0.1,0,0.1,0,0.2,0.1L382,21.1z"/>
<path fill="#FFFFFF" d="M388.2,21.2c0,0.1,0,0.1-0.1,0.1h-2.6c-0.1,0-0.1,0-0.1-0.1v-0.4c0-0.1,0-0.1,0.1-0.1h0.9v-5.5h-0.9
	c-0.1,0-0.1,0-0.1-0.1v-0.4c0-0.1,0-0.1,0.1-0.1h2.6c0.1,0,0.1,0,0.1,0.1V15c0,0.1,0,0.1-0.1,0.1h-0.9v5.5h0.9c0.1,0,0.1,0,0.1,0.1
	V21.2z"/>
<path fill="#FFFFFF" d="M395.7,20.7c0,0.3,0,0.3-0.1,0.4c-0.4,0.2-1,0.4-1.6,0.4c-1.8,0-2.4-1.6-2.4-3.6c0-1.9,0.7-3.5,2.4-3.5
	c0.9,0,1.7,0.5,1.7,0.6c0,0,0,0.1,0,0.1l-0.1,0.3c0,0.1-0.1,0.1-0.1,0.1c-0.1,0-0.5-0.5-1.3-0.5c-1.1,0-1.5,1-1.5,2.7
	c0,1.8,0.4,3.1,1.5,3.1c0.5,0,0.7-0.1,0.9-0.2v-2.1h-0.8c-0.1,0-0.1,0-0.1-0.1V18c0-0.1,0-0.1,0.1-0.1h1.5c0.1,0,0.1,0,0.1,0.1V20.7
	z"/>
<path fill="#FFFFFF" d="M403.9,21.2c0,0.1,0,0.1-0.1,0.1h-0.6c-0.1,0-0.1,0-0.2-0.1l-2.3-4.9c-0.1-0.3-0.2-0.6-0.3-0.9l0,0
	c0.1,0.4,0.1,0.7,0.1,0.9v4.9c0,0.1,0,0.1-0.1,0.1h-0.5c-0.1,0-0.1,0-0.1-0.1v-6.6c0-0.1,0-0.1,0.1-0.1h0.7c0.1,0,0.1,0,0.1,0.1
	l2.2,4.7c0.1,0.2,0.1,0.5,0.2,0.8l0,0c0-0.2-0.1-0.4-0.1-0.6v-4.8c0-0.1,0-0.1,0.1-0.1h0.5c0.1,0,0.1,0,0.1,0.1V21.2z"/>
<path fill="#FFFFFF" d="M106.3,73.5c2.7,0,5.1-0.7,5.1-5.1c0-4-2.6-4.1-4.7-4.1h-2.8v9.3H106.3z M103.9,86c0,0.3-0.1,0.4-0.4,0.4
	h-2.1c-0.3,0-0.4-0.1-0.4-0.4v-24c0-0.3,0.1-0.4,0.4-0.4h5.6c2.8,0,7.4,0.2,7.4,6.6c0,6.1-4,7.8-7.8,7.8h-2.6V86z"/>
<path fill="#FFFFFF" d="M134.6,72.8c2.7,0,5.1-0.6,5.1-4.5c0-4-2.6-4.1-4.7-4.1h-2.8v8.6H134.6z M143.9,85.9
	c0.1,0.1,0.1,0.3,0.1,0.4c0,0.1-0.1,0.2-0.4,0.3l-2.3,0.4c-0.3,0-0.4,0-0.5-0.3l-6-11.5h-2.6V86c0,0.3-0.1,0.4-0.4,0.4h-2.1
	c-0.3,0-0.4-0.1-0.4-0.4v-24c0-0.3,0.1-0.4,0.4-0.4h5.6c2.8,0,7.4,0.2,7.4,6.6c0,4-2.8,6-4.8,6.7L143.9,85.9z"/>
<path fill="#FFFFFF" d="M170.5,74c0-6.3-0.9-10.5-4.9-10.5c-4,0-4.9,4.2-4.9,10.5c0,6.3,0.8,10.5,4.9,10.5S170.5,80.4,170.5,74
	 M165.5,87c-5.8,0-8.2-5.2-8.2-12.9c0-7.8,2.4-12.9,8.2-12.9c5.8,0,8.2,5.2,8.2,12.9C173.7,81.8,171.3,87,165.5,87"/>
<path fill="#FFFFFF" d="M203.1,84.1c0,0.9,0,1.2-0.5,1.5c-1.3,0.8-3.7,1.3-5.9,1.3c-6.4,0-8.7-5.7-8.7-13.2c0-6.9,2.4-12.7,8.8-12.7
	c3.3,0,6,1.7,6,2.2c0,0.1-0.1,0.3-0.2,0.5l-0.5,1c-0.1,0.3-0.3,0.5-0.5,0.5c-0.4,0-1.8-1.8-4.8-1.8c-4,0-5.6,3.8-5.6,9.9
	c0,6.7,1.6,11.1,5.5,11.1c1.7,0,2.6-0.4,3.3-0.7v-7.6h-2.9c-0.3,0-0.4-0.1-0.4-0.4v-1.5c0-0.3,0.1-0.4,0.4-0.4h5.4
	c0.3,0,0.4,0.1,0.4,0.4V84.1z"/>
<path fill="#FFFFFF" d="M224.6,72.8c2.7,0,5.1-0.6,5.1-4.5c0-4-2.6-4.1-4.7-4.1h-2.8v8.6H224.6z M233.9,85.9
	c0.1,0.1,0.1,0.3,0.1,0.4c0,0.1-0.1,0.2-0.4,0.3l-2.3,0.4c-0.3,0-0.4,0-0.5-0.3l-6-11.5h-2.6V86c0,0.3-0.1,0.4-0.4,0.4h-2.1
	c-0.3,0-0.4-0.1-0.4-0.4v-24c0-0.3,0.1-0.4,0.4-0.4h5.6c2.8,0,7.4,0.2,7.4,6.6c0,4-2.8,6-4.8,6.7L233.9,85.9z"/>
<path fill="#FFFFFF" d="M256.3,68.5c-0.3-1.1-0.7-2.4-0.8-3.4h-0.1c-0.1,0.9-0.5,2.5-0.8,3.4l-2.2,8h6.1L256.3,68.5z M264.4,85.6
	c0.1,0.3,0.1,0.4,0.2,0.6c0,0.2-0.1,0.2-0.5,0.2h-2.2c-0.4,0-0.6-0.1-0.7-0.4l-2-7h-7.4l-1.9,7c-0.1,0.3-0.2,0.4-0.7,0.4H247
	c-0.4,0-0.5,0-0.5-0.2c0-0.2,0.1-0.4,0.2-0.6l7.3-23.6c0.1-0.4,0.1-0.4,0.5-0.4h2.1c0.3,0,0.4,0,0.5,0.4L264.4,85.6z"/>
<path fill="#FFFFFF" d="M297.6,86c0,0.3-0.1,0.4-0.4,0.4H295c-0.3,0-0.4-0.1-0.4-0.4L294,67.4c0-0.7,0-1.6,0-2.2l-0.1-0.1
	c0,0.8-0.1,1.7-0.4,2.6l-4.4,12.6c-0.1,0.3-0.2,0.4-0.5,0.4h-1.1c-0.3,0-0.4-0.1-0.5-0.4l-4.2-12.6c-0.3-0.9-0.4-1.8-0.4-2.6
	l-0.1,0.1c0,0.6,0.1,1.5,0,2.2L281.8,86c0,0.3-0.1,0.4-0.4,0.4h-2.1c-0.3,0-0.4-0.1-0.4-0.4l1.4-24c0-0.3,0.1-0.4,0.4-0.4h2.4
	c0.3,0,0.3,0.1,0.4,0.4l4.3,12.5c0.2,0.5,0.3,1.4,0.5,2.2h0.1c0.2-0.8,0.3-1.7,0.5-2.2L293,62c0.1-0.3,0.1-0.4,0.4-0.4h2.4
	c0.3,0,0.4,0.1,0.4,0.4L297.6,86z"/>
<path fill="#FFFFFF" d="M81.7,20c0.4-0.2,1.4-0.9,2.6-1.7v-4.7h-2.5c-1,2.3-2.2,5.8-2.2,5.8C79.1,21.1,81.7,20,81.7,20"/>
<path fill="#FFFFFF" d="M74.1,24.7c0.8,1.2,1.1-0.1,1.1-0.1c0.2-1.1,1.8-2.4,1.8-2.4c1.3-0.9,1.5-3.4,1.5-3.4
	c0.3-1.9,1.4-3.9,2.3-5.2h-5.9c-0.4,2.3-1.3,3.9-1.3,3.9C71.5,21.9,74.1,24.7,74.1,24.7"/>
<path fill="#FFFFFF" d="M81.5,32.7c-0.8,3-2.3,3.4-2.3,3.4C76.8,39,81.9,37,81.9,37c0.8-0.7,1.6-1.1,2.3-1.3v-4.8
	c-0.7,0.2-1.1,0.3-1.1,0.3C82,31.3,81.5,32.7,81.5,32.7"/>
<path fill="#FFFFFF" d="M77.9,39.1l-5.4,4.2c-1.7,1.3-1.9,3-1.9,3c-1.3,3.9,7.3,7.8,7.3,7.8c3.1,1.7,5.1,1.9,6.3,1.6V36.5
	c-1.3,0.7-2.3,1.6-2.3,1.6C80.3,39.3,77.9,39.1,77.9,39.1"/>
<path fill="#FFFFFF" d="M75.7,28.2c-0.2,1.5,1.1,1,1.1,1c0.9-0.5,4.6-3.8,4.6-3.8c1.9-1,1.8,0,1.8,0l-2.8,1.8c-1.9,1.1,0.1,1,0.1,1
	l3.5-1.1c0.1,0,0.2,0,0.3-0.1v-7.3c-1.9,1.7-5.4,2.8-5.4,2.8C75.1,25,75.7,28.2,75.7,28.2"/>
<path fill="#FFFFFF" d="M15.9,84.9c-1.5-0.2-3.5,0.3-5,0.8V87h2.7C15.2,85.9,15.9,84.9,15.9,84.9"/>
<path fill="#FFFFFF" d="M72.3,18.3c0.7-1.7,1.1-3.3,1.3-4.7h-3.3c0.7,1.9,0.8,4.7,0.8,4.7C71.9,19.9,72.3,18.3,72.3,18.3"/>
<path fill="#FFFFFF" d="M46.4,79.7C41.3,79,38.5,83,38.5,83c-1.5,1.7-1.6,3.1-1.3,4h17.7c-0.7-1.7-2-3.2-2-3.2
	C50.1,79.9,46.4,79.7,46.4,79.7"/>
<path fill="#FFFFFF" d="M74.1,32.3c-3.3,1.5-4.3,8.8-4.3,8.8c0.2,1.9,1.5,0.8,1.5,0.8l4.9-3.7c0.3-1.1,2.7-3.4,2.7-3.4
	c2-0.9,1.5-2.5,1.5-2.5c1-2,3-2.3,3-2.3c0.3,0,0.6,0,0.9-0.1v-2c-1.6,0.4-2.9,1-2.9,1L74.1,32.3z"/>
<path fill="#FFFFFF" d="M33,81.9L25.4,84c-1.3,0.4-4.7,0.8-4.7,0.8c-2.2,0.2-4.2,1.4-4.2,1.4c-0.3,0.3-0.6,0.6-1,0.8H33
	c1.9-2.3,2-5,2-5C34.4,81.7,33,81.9,33,81.9"/>
<path fill="#FFFFFF" d="M20.6,41.2c1,0.5,0.2-0.8,0.2-0.8c-2.8-3.7-5.3-5.5-5.3-5.5c3.5,0.6,6.1,4.7,6.1,4.7c1.6,2.5,6,4.2,6,4.2
	c3.5,1.6,11.2,6,11.2,6c0.9,0.1,0.8-1,0.8-1c-0.8-5.8-3.3-7.9-3.3-7.9c-1.4-1.5-6.8-2.3-6.8-2.3c-7.5-1.1-7.9-4.5-7.9-4.5
	c2.4,2.8,8.4,3.1,8.4,3.1l0.5,0c-0.7-0.5-0.5-2.4-0.5-2.4c0.1-1-0.8-2.4-0.8-2.4c-2.6-2.7-1.7-5.1-1.7-5.1c0.1,2,1.2,3.1,1.2,3.1
	c0.6,0.6,2.3,3.3,2.3,3.3c0.8,3.3,3.3,4.7,3.3,4.7c1.6,1.2,3.9,1.5,3.9,1.5l0.5-2.8c0.6-3.3-0.2-7.9-0.2-7.9
	c-1.2-3.5,0.1-4.8,0.1-4.8c-0.6,1.2,0.7,4,0.7,4c0.8,1.1,0.9,2,0.9,2c-0.7,3.7,0,5.3,0,5.3c0.2-1,2.6-3.1,2.6-3.1
	c2.1-2.9,1.5-6.3,1.5-6.3c1.4,1.7,0.4,5,0.4,5c0,1,0.8,0.4,0.8,0.4c1.3-0.5,3.1-2.5,3.1-2.5l-0.5,1c-0.8,1.5-3.1,2.9-3.1,2.9
	c-1.6,0.4-3.3,2.7-3.3,2.7c-2,3-0.5,7-0.5,7c0.7,1.3,1.9,0.6,1.9,0.6l5.8-3.9c0.8-0.5,2.8-2.6,2.8-2.6c-0.2,1.5-2.3,3.3-2.3,3.3
	c-0.9,0.8,0.9,0.6,0.9,0.6c3-0.1,3.7,1.6,3.7,1.6c-1-0.9-2.9-0.9-2.9-0.9c-2.4-0.3-7.7,3.2-7.7,3.2c-1.9,1.7-0.4,4.9-0.4,4.9
	c6.5,9.3,16.9,2,16.9,2c10.7-7.2-1.5-15-1.5-15c-2.9-1.9-6.8-0.6-6.8-0.6c-4.1-0.1,0.4-0.8,0.4-0.8c3.1-0.8-2.2-2-2.2-2
	c-3.2-1.5-0.5-1-0.5-1c1.7,0.2,0.9-0.9,0.9-0.9L47.9,27c-1.4-2.4,1.2,0.8,1.2,0.8c2.5,6.6,9,7,9,7c1.9,0.3,1.7-1.5,1.7-1.5
	c0.6-6.7-3.3-8.1-3.3-8.1c-4-2.1-4-5-4-5c0.5,2,3.5,3.9,3.5,3.9c0.9,0.6,1.2-0.5,1.2-0.5c-1-5.2,0.6-6.2,0.6-6.2
	C57.5,20,58.7,24,58.7,24c3.1,4,2.6,8.9,2.6,8.9C61,34.1,62,35.5,62,35.5l3,4.5c1.1,1.9,1.9-0.1,1.9-0.1c1.6-3.2,1-7.9,1-7.9
	c-0.7-3.8-3.5-9-3.5-9c-3.1-3.2-2.4-4.8-2.4-4.8c1.5,3.9,4,4.3,4,4.3c0.4-4.1,0.9,2,0.9,2c-0.1,1.7,0.6,1.7,0.6,1.7
	c1-0.1,0.6-3.4,0.6-3.4c-1-3.5,0.3-6.3,0.3-6.3C68.2,17,68.9,21,68.9,21c1,2.9,0.1,4.7,0.1,4.7C68.2,27.8,69,31,69,31
	c1.1,4.5,3.7-0.1,3.7-0.1c1.9-2.1,0.7-4.4,0.7-4.4c-1.6-2-2.3-6-2.3-6c-1.4-1.2-1.7-2.9-1.7-2.9c0.3-1.3,0.2-2.8-0.1-3.9H10.9v23.2
	c2.1,0,3.9,1,3.9,1C17,39.7,20.6,41.2,20.6,41.2"/>
<path fill="#FFFFFF" d="M19,82.8c1.2-0.4-0.4-1.4-0.4-1.4c-2.5-2.8-6.7-3.6-6.7-3.6c2-0.7,5.8,1.8,5.8,1.8c-0.7-2.6-3.6-3.7-3.6-3.7
	c3.7,0.2,6.1,5.4,6.1,5.4c1.5,1.7,4.3,1,4.3,1c2-0.7,9.6-3.3,9.6-3.3c1.3-0.5,0.3-1.4,0.3-1.4c-1.8-1.9-3.1-1.8-3.1-1.8
	c-2.3-0.3-7.5,1.9-7.5,1.9c-0.7,0.7-1.2,0.3-1.2,0.3c0.6-2.1,6-2.8,6-2.8c1.5-0.1,1.9-1.6,1.9-1.6c0.3-2-2.3-2.8-2.3-2.8
	c-2-0.3-5.4,1.5-5.4,1.5c-3.1,1.6-6.9,0-6.9,0c3.9,0.5,7.6-1.5,7.6-1.5c3.9-1.8-1.7-3.4-1.7-3.4c-1.6-0.3-3.5,0.3-3.5,0.3
	c-2.4,1.2-3.7,0.4-3.7,0.4l3-0.9c2.7-0.3-0.9-1.2-0.9-1.2c-1.5-0.3-1.7-0.9-1.7-0.9l4.7,1c4.9,0.3,5.7,2.5,5.7,2.5
	c0.8,1.1,2.5,1,2.5,1c2.9,0.4,3.9,4.1,3.9,4.1c2.8,3.3,7.7,2.7,7.7,2.7c6.6,0.9,7.3-5.3,7.3-5.3l0.8-6.3c1-7.8-7.5-9.4-7.5-9.4
	c-5.5-0.7-7.2,2.2-7.2,2.2c-1,1.7-2.5,1.8-2.5,1.8c-2.1,0.3-4.5,2.4-4.5,2.4c-3.8,2.5-10.3,2-10.3,2l8.8-2.2
	c1.7-0.5,1.5-1.8,1.5-1.8c-1.7-2.7-8.7-3.2-8.7-3.2c4.4-1.5,9.1,1.8,9.1,1.8c3.5,1.4,5.1-0.7,5.1-0.7c2.1-2.2-1-3.6-1-3.6
	c-4.4-2.2-4.7-4.5-4.7-4.5c1.2,1.8,5.9,4.1,5.9,4.1c3.6,2,6.1-0.4,6.1-0.4c0.7-0.4,0-1.2,0-1.2l-9-5.8c-3.2-1.6-5.1,0.1-5.1,0.1
	c-1.6,2.1-4,3.1-4,3.1c-1.5,0.8-2.6,0.2-2.6,0.2c2.3,0,4.2-2,4.2-2c0.7-0.6-0.4-0.6-0.4-0.6c-4.2,1.3-5.5,0.3-5.5,0.3
	c4.2,0.3,8.5-2.4,8.5-2.4c1.2-0.4-1.9-2.2-1.9-2.2c-1.2-1-5.5-1.5-5.5-1.5c-0.5-0.2-1.4,0.2-1.4,0.2c-0.9,0.3-2.8,0.2-2.8,0.2
	c-0.8-0.2-1.4-0.4-1.7-0.6v41.6c1.2,0.4,2.7,0.5,2.7,0.5C16.6,84.1,19,82.8,19,82.8"/>
<path fill="#FFFFFF" d="M14.6,41.1c1.9-0.3,1.7-1.1,1.7-1.1c-3.1-2.2-4.8-2.9-5.3-3.1v3.8C13,41.3,14.6,41.1,14.6,41.1"/>
<path fill="#FFFFFF" d="M10.6,40.7c0,0-0.3,0.5,0.3,1v-0.9C10.8,40.7,10.7,40.7,10.6,40.7"/>
<path fill="#FFFFFF" d="M10.7,36.9c0,0,0.1,0,0.2,0.1v-0.1C10.9,36.9,10.8,36.9,10.7,36.9"/>
<path fill="#FFFFFF" d="M69.1,60.9c-5.3-0.7-10.2,3-10.9,8.4c-0.7,5.3,3,10.2,8.4,10.9c5.3,0.7,10.2-3,10.9-8.3
	C78.1,66.5,74.4,61.6,69.1,60.9"/>
</svg>
