<?xml version="1.0" encoding="utf-8"?>
<!-- Generator: Adobe Illustrator 18.1.1, SVG Export Plug-In . SVG Version: 6.00 Build 0)  -->
<!DOCTYPE svg PUBLIC "-//W3C//DTD SVG 1.1//EN" "http://www.w3.org/Graphics/SVG/1.1/DTD/svg11.dtd">
<svg version="1.1" id="Layer_1" xmlns="http://www.w3.org/2000/svg" xmlns:xlink="http://www.w3.org/1999/xlink" x="0px" y="0px"
	 viewBox="0 0 100 53" enable-background="new 0 0 100 53" xml:space="preserve">
<g>
	<g>
		<path fill="#999999" d="M14,33.1c-1.1,0.1-2.1,0.3-3,0.9c-1.1,0.9-2,0.6-2.8-0.1c-0.5-0.4-0.9-1-1.2-1.6c-0.4-0.8-0.2-1.6,0.6-2
			c0.8-0.4,1.7-0.7,2.5-0.8c5-0.7,10-0.4,14.9,0.9c0.6,0.2,1.3,0.4,1.9,0.7c1.2,0.5,1.6,1.7,1.1,2.8c-0.6,1.4-1.8,2.3-3,3
			c-2.3,1.4-4.8,2.4-7.4,3.3c-1.1,0.4-1.1,0.4-0.9,1.5c0.3,1.1,0.7,2.3,1,3.4c0.2,0.6,0.4,1.1,0.5,1.7c0.3,1.4-0.2,2.2-1.7,2.3
			c-1.9,0.2-3.8-1.4-3.9-3.3c-0.2-3,0.1-5.9,0.6-8.8c0.2-1.1,0.4-2.2,0.6-3.4C14,33.5,14,33.3,14,33.1z M16.5,39.5
			c2.6-0.9,5-1.9,7-3.5c0.6-0.5,1.2-1,1.7-1.7c0.8-1,0.6-1.4-0.7-1.7c-2.7-0.5-5.3-0.2-8,0.1c-0.8,0.1-0.8,0.2-0.7,1
			c0.1,1.2,0.2,2.4,0.3,3.6C16.3,38,16.4,38.7,16.5,39.5z"/>
		<path fill="#999999" d="M24.4,46.8c1,0.1,1.9-0.1,2.6-0.6c1.3-0.9,2.5-1.9,3.7-2.8c0.3-0.3,0.6-0.6,1-0.8c0.7-0.5,1.2-1.1,1.5-1.9
			c0.5-1.1,1.4-1.6,2.4-1.3c1.1,0.4,1.6,1.3,1.4,2.5c-0.1,0.8-0.3,1.5-0.5,2.3c-0.2,0.8,0,1.4,0.4,2.1c0.3,0.5,0.5,1.1,0.7,1.6
			c0.2,0.5,0,0.7-0.5,0.7c-0.2,0-0.3,0-0.5,0c-1.4-0.3-3.9-2.6-3.9-4.1c0-0.1,0-0.1-0.1-0.3c-0.8,0.6-1.4,1.1-2.2,1.6
			c-1.3,0.8-2.6,1.5-4,2.1c-0.5,0.2-1.2,0.4-1.7,0.3c-1.6-0.2-2.6-1.6-2.2-3.4c0.6-2.6,2.1-4.6,4.3-6.1c1.8-1.2,3.8-1.9,5.9-1.9
			c0.3,0,0.6,0,0.8,0.2c0.3,0.2,0.6,0.6,0.7,0.9c0.1,0.4-0.1,0.7-0.5,1c-0.3,0.2-0.6,0.3-0.9,0.4c-3,1.6-5.9,3.4-7.8,6.5
			C24.8,46,24.6,46.4,24.4,46.8z"/>
		<path fill="#999999" d="M88.3,44c-0.4,0.3-0.7,0.5-1,0.7c-1.7,1.2-3.4,2.4-5.4,3.2c-0.5,0.2-1.1,0.4-1.7,0.4
			c-1.5,0-2.5-1.1-2.4-2.6c0.4-6.4,6.2-9.3,10.2-8.8c0.3,0,0.6,0.1,0.8,0.2c0.2,0.2,0.5,0.5,0.5,0.8c0,0.4-0.2,0.8-0.7,0.9
			c-2.5,0.3-4.5,1.6-6.1,3.4c-0.9,1-1.6,2.1-2.3,3.2c-0.2,0.3-0.2,0.8-0.2,1.2c0.4,0,1,0.1,1.3-0.1c2.7-1.5,5.4-3.2,7.1-6
			c0.2-0.3,0.5-0.7,0.7-1c0.4-0.4,0.8-0.9,1.4-0.7c0.7,0.2,1.5,0.6,1.6,1.5c0.1,0.9-0.1,1.8-0.1,2.7c0,1,0,2,0.1,2.9
			c0.1,0.7,0.4,1.3,1,1.7c0.1,0.1,0.2,0.2,0.2,0.3c-0.7,0.5-1.9,0.4-2.6-0.1c-0.9-0.6-1.3-1.5-1.7-2.5C88.7,45,88.5,44.5,88.3,44z"
			/>
		<path fill="#999999" d="M56.7,42.9c-0.1,1.2,0.6,1.9,1.7,2c1.4,0.1,2.6-0.3,3.8-0.8c1.4-0.5,2.7-1.1,4.1-1.6c0.3-0.1,0.7,0,1,0
			c0,0.4,0,0.8-0.2,1c-0.2,0.4-0.6,0.9-1,1.2c-2.3,1.8-4.8,3.1-7.6,3.7c-1.3,0.3-2.6,0.2-3.8-0.6c-1.3-1-1.7-2.9-0.9-4.6
			c1-2.3,2.8-3.9,4.9-5c1.3-0.7,2.7-1.2,4.1-1.4c0.6,0,1.3,0,1.9,0.2c1.7,0.6,2.1,2.4,0.8,3.7c-0.9,0.9-2.1,1.4-3.3,1.7
			c-1.6,0.5-3.2,0.6-4.9,0.6C57.2,42.9,57,42.9,56.7,42.9z M58.5,41.8c1.9-0.1,3.8-0.5,5.5-1.6c0.2-0.1,0.3-0.4,0.5-0.5
			c-0.2-0.2-0.4-0.3-0.6-0.5c-0.1,0-0.1-0.1-0.2-0.1c-2.5-0.8-4.9,0.5-6.3,2c-0.1,0.1-0.2,0.3-0.1,0.5c0,0.1,0.3,0.2,0.4,0.2
			C57.9,41.8,58.2,41.7,58.5,41.8z"/>
		<path fill="#999999" d="M48.8,38.5c-0.2,0.1-0.4,0.2-0.6,0.3c-1.3,0.9-2.3,2.1-3,3.5c-0.6,1.3-1.1,2.6-1.7,3.9
			c-0.2,0.5-0.4,0.9-0.7,1.3c-0.4,0.7-1.1,0.8-1.8,0.7c-0.8-0.1-1-0.6-1.1-1.2c-0.3-1.5,0.1-2.9,0.6-4.3c0.4-1,0.7-2,1-3
			c0.3-1.2,0.1-1.5-0.9-2c-0.4-0.2-0.8-0.5-1.2-0.8c1-0.6,1.9,0,2.8,0.2c2,0.6,2.5,2.1,2.2,4.1c0.1,0,0.1,0,0.2,0
			c0.1-0.2,0.3-0.4,0.4-0.5c1-1.4,2.2-2.6,3.8-3.3c0.5-0.2,1.1-0.3,1.6-0.4c0.7-0.1,1.3,0.2,1.3,0.9c0.1,0.7-0.1,1.5-0.2,2.2
			c-0.2,1.3-0.6,2.7-0.8,4c-0.2,1.1,0.1,2.3,0.5,3.3c0.1,0.3,0.1,0.8,0.2,1.1c-0.4-0.1-0.7-0.1-1.1-0.2c-2.3-0.9-3.2-2.7-2.7-5.3
			c0.2-1.3,0.6-2.5,1-3.7c0.1-0.2,0.1-0.4,0.2-0.7C48.8,38.6,48.8,38.6,48.8,38.5z"/>
		<path fill="#999999" d="M72.2,38.2c0.7-0.4,1.4-0.9,2.1-1.3c1.5-0.8,3-1.1,4.7-0.8c0.7,0.1,1.1,0.6,1.1,1.1c0,0.4-0.2,0.7-0.7,0.6
			c-0.1,0-0.2,0-0.3-0.1c-1.3-0.6-2.3,0-3.3,0.7c-1.8,1.4-2.9,3.2-3.1,5.5c-0.1,1.2-0.4,2.4-0.8,3.6c-0.3,1-1,1.4-1.7,1.3
			c-0.9-0.1-1.6-0.8-1.8-1.8c-0.2-1.2,0.1-2.4,0.5-3.6c0.7-2.1,1.2-4.3,1.3-6.6c0-0.3,0-0.5,0-0.8c0-0.1,0.1-0.4,0.1-0.4
			c0.1,0,0.4,0,0.5,0.1c0.5,0.6,0.9,1.3,1.4,2C72.1,38,72.2,38.1,72.2,38.2z"/>
		<path fill="#999999" d="M52.7,10.7c0,0.8-0.4,1.4-0.8,2c-1.1,1.7-2.6,2.8-4.7,3c-0.5,0.1-1.2-0.2-1.6-0.5
			c-0.6-0.4-1.2-0.5-1.8-0.2c-0.7,0.3-1.5,0.5-2.1,1c-1.9,1.8-1.4,5.4,0.8,7c1.6,1.2,3.4,1.9,5.4,2.3c3.3,0.7,6.4-0.1,9.2-2
			c0.5-0.3,0.9-0.7,1.3-1.1c0.3-0.3,0.6-0.6,0.5-1.1c0-0.1,0.2-0.3,0.3-0.4c0.1-0.1,0.3,0,0.4,0c0,0.2,0.1,0.4,0,0.5
			c-0.1,0.3-0.3,0.5-0.5,0.7c-1.7,2-3.9,3.2-6.4,3.6c-1.6,0.3-3.2,0.7-4.9,0.5c-2.8-0.3-5.4-1.1-7.4-3.3c-1.1-1.2-1.9-2.6-1.5-4.2
			c0.3-1.3,0.7-2.5,1.6-3.5c1.2-1.3,3.6-1.5,5.1-0.5c0.9,0.6,1.8,0.6,2.7,0.2c1.5-0.8,2.7-2,3.6-3.4c0.2-0.3,0.3-0.5,0.5-0.8
			C52.6,10.7,52.7,10.7,52.7,10.7z"/>
		<path fill="#999999" d="M47.5,21.7c0.2-0.3,0.3-0.6,0.6-0.9c1.7-1.9,3.6-3.8,5.9-4.9c2.1-1,4.3-1.7,6.5-2.4
			c0.7-0.2,1.5-0.1,2.2,0.1c1,0.2,1.3,1.1,0.7,2c-0.4,0.5-0.8,1-1.3,1.4c-1.3,1.2-2.7,2.4-4.1,3.5c-2.2,1.8-4.8,2.9-7.7,3
			c-1.7,0.1-3.4-0.1-4.8-1.2c-1.2-0.9-1.8-2-1.4-3.5c0.2-0.6,0.4-1.1,1-1.4c0.9-0.4,1.9-0.6,2.9-0.5c0.8,0.1,1.1,0.7,1,1.5
			c-0.2,0.8-1,1.4-2,1.4c0.3-0.2,0.5-0.3,0.8-0.4c0.7-0.4,0.9-1.2,0.5-1.8c-0.2-0.4-0.7-0.5-1.2-0.3c-1.2,0.6-1.6,1.6-1.6,2.8
			c0,0.4,0.3,1,0.6,1.3c1.1,1.2,2.6,1.7,4.2,1.7c1.4,0,2.6-0.4,3.8-0.9c2.7-1.1,4.8-3,6.8-4.9c0.3-0.3,0.6-0.5,0.9-0.8
			c0.2-0.1,0.4-0.3,0.4-0.4c0.1-0.3,0.3-0.7,0.2-1.1c0-0.2-0.5-0.3-0.8-0.3c-0.6,0-1.1,0.1-1.7,0.2c-1.7,0.5-3.4,1-5.1,1.6
			c-2.2,0.8-3.8,2.3-5.5,3.9c-0.4,0.4-0.8,0.9-1.3,1.3c-0.1,0.1-0.3,0.2-0.5,0.3C47.6,21.8,47.5,21.8,47.5,21.7z"/>
		<path fill="#999999" d="M66.4,5.4c-0.3,0.1-0.7,0.3-1,0.4c-1.3,0.6-2.6,1.2-4,1.4c-1.2,0.2-2.4,0.1-3.6-0.3
			c-1.2-0.4-2.4-0.9-3.6-1.3C52,4.8,49.8,5,47.7,6.1c-0.8,0.4-1.6,0.9-1.8,2c0,0-0.1,0-0.2,0.1c0-0.2,0-0.4,0-0.5
			c0.2-1,0.8-1.8,1.7-2.4c2.1-1.4,4.5-1.7,6.9-1c1.8,0.5,3.6,1,5.3,1.4c0.5,0.1,1.1,0.2,1.6,0.2c1.7,0.1,3.4,0,5-0.6
			C66.3,5.2,66.3,5.3,66.4,5.4z"/>
		<path fill="#999999" d="M49.4,8.6c0-0.6,0.4-1,0.8-1.3c1.8-1.1,3.7-0.9,5.4,0c1.8,0.9,3.5,1.1,5.5,0.9c1.8-0.2,3.4-0.7,5-1.4
			c0,0,0,0.1,0.1,0.1c-0.3,0.2-0.6,0.5-0.9,0.7c-0.4,0.3-1,0.5-1.3,0.9c-1,1-2.2,1.1-3.4,1.4c-1.9,0.5-3.6,0.1-5.2-1.1
			c-1.1-0.8-2.4-1.4-3.8-1.4c-0.8,0-1.4,0.1-1.8,0.9c0,0.1-0.1,0.1-0.2,0.2C49.6,8.6,49.5,8.6,49.4,8.6z"/>
		<path fill="#999999" d="M66.6,8.4c-0.1,0.2-0.2,0.4-0.3,0.6c-0.9,0.9-1.8,1.9-2.8,2.7c-1,0.8-2.1,1.1-3.4,1c-0.8-0.1-1.6,0-2.4,0
			c-1.7-0.2-3.1-1-4.3-2.2c-0.3-0.3-0.7-0.4-0.6-1c0.1,0,0.2,0,0.3,0.1c2.8,1.8,5.9,1.9,9.1,1.3c1.7-0.4,3-1.3,4.3-2.4
			C66.5,8.3,66.6,8.3,66.6,8.4z"/>
		<path fill="#999999" d="M58,16.2c-2.1,0.6-3.4,2.1-4.1,4.2c0.3-0.4,0.6-0.7,0.9-1.1c0.1,0.2,0.1,0.4,0.1,0.4
			c-0.4,0.5-0.9,1-1.3,1.4c0,0-0.4-0.1-0.4-0.2c0-0.5-0.1-1,0.1-1.4c0.4-1.3,1.2-2.3,2.5-2.8c0.5-0.2,1.1-0.4,1.6-0.7
			c0.2-0.1,0.4,0,0.5-0.1C57.9,16.1,58,16.1,58,16.2z"/>
		<path fill="#999999" d="M50.9,21.1c0.2-0.2,0.4-0.5,0.5-0.7c0.1,0,0.1,0.1,0.2,0.1c-0.4,0.6-0.8,1.3-1.2,1.8
			c-0.3,0.4-0.7,0.1-0.8-0.4c-0.1-0.8,0.1-1.5,0.6-2.1c0.7-0.8,1.6-1.4,2.6-1.8c0.2-0.1,0.4,0,0.6-0.1c-1.1,0.9-2.3,1.6-2.7,2.9
			C50.8,21,50.9,21,50.9,21.1z"/>
		<path fill="#999999" d="M58,18c0.8-0.6,1.6-1.1,2.3-1.6c0,0,0.1,0.1,0.1,0.1c0,0.1,0,0.2-0.1,0.2c-0.7,0.6-1.5,1.3-2.2,1.9
			c-0.2,0.1-0.5,0.1-0.7,0.1c-0.1,0-0.2-0.4-0.1-0.6c0.2-0.5,0.5-1,0.8-1.4c0.7-0.8,1.6-1.3,2.6-1.6c0.1,0,0.3,0,0.4,0
			c0,0,0,0.1,0.1,0.1c-0.3,0.2-0.5,0.4-0.8,0.5C59.3,16.1,58.6,17,58,18z"/>
		<path fill="#999999" d="M47.4,12.3c0.4,0,0.7,0,1,0c0.4-1.3,0.9-2.5,2.1-3.1c0.1,0,0.1,0.1,0.2,0.1c-0.2,0.4-0.5,0.7-0.7,1.1
			c-0.3,0.6-0.6,1.2-0.9,1.8c-0.2,0.3-0.5,0.6-0.8,0.6C48,12.9,47.6,12.8,47.4,12.3z"/>
		<path fill="#999999" d="M61,18.3c0.5,0.5,0.2,1.8-0.4,2.2c-0.5,0.4-0.9,0.3-1.2-0.2C60.3,20,60.8,19.2,61,18.3z"/>
		<path fill="#999999" d="M46.6,12.6c0.7,0.3,1.3,0.6,2.1,0.9c-0.2,0.2-0.3,0.3-0.4,0.3c-0.2,0.1-0.4,0.3-0.6,0.3
			c-0.3,0-0.6-0.1-0.7-0.3C46.7,13.5,46.7,13.1,46.6,12.6z"/>
		<path fill="#999999" d="M47.2,9.2c0.5,0.1,1,0.2,1.5,0.3c0.4,0.1,0.4,0.5,0.2,0.8c-0.2,0.3-0.5,0.2-0.8,0
			c-0.3-0.3-0.7-0.6-1.1-0.9C47.2,9.3,47.2,9.2,47.2,9.2z"/>
		<path fill="#999999" d="M51.1,10.2c0.1,0,0.3,0,0.5,0.1c0.2,0.1,0.4,0.3,0.5,0.5c0,0.1-0.1,0.3-0.1,0.3c-0.3,0-0.5,0-0.8-0.1
			c-0.2-0.1-0.3-0.2-0.5-0.3c-0.1-0.1-0.3-0.2-0.4-0.3c0.1-0.1,0.3-0.1,0.4-0.2C50.8,10.2,50.9,10.2,51.1,10.2z"/>
	</g>
</g>
</svg>
