<?xml version="1.0" encoding="utf-8"?>
<!-- Generator: Adobe Illustrator 18.1.1, SVG Export Plug-In . SVG Version: 6.00 Build 0)  -->
<!DOCTYPE svg PUBLIC "-//W3C//DTD SVG 1.1//EN" "http://www.w3.org/Graphics/SVG/1.1/DTD/svg11.dtd">
<svg version="1.1" id="Layer_1" xmlns="http://www.w3.org/2000/svg" xmlns:xlink="http://www.w3.org/1999/xlink" x="0px" y="0px"
	 viewBox="0 0 100 23" enable-background="new 0 0 100 23" xml:space="preserve">
<g>
	<path fill="#999999" d="M8.4,10.7l-0.9-0.5c-1-0.6-1.6-1.1-1.6-1.8c0-0.8,0.7-1.3,1.7-1.3c0.7,0,1.6,0.3,2.8,0.9l0.1,0.1l0-2.1
		c0,0,0,0,0,0c-1-0.5-2-0.7-3-0.7c-2.2,0-3.7,1.3-3.7,3.2c0,1.6,1,2.5,2.5,3.4l0.9,0.5C8.5,13.2,9,13.7,9,14.5c0,0.9-0.8,1.6-2,1.6
		c-1,0-2-0.4-3.3-1.2l0,0v2.4c0,0,0.2,0.1,0.2,0.1c1,0.5,2.1,0.7,3.3,0.7c2.5,0,4.2-1.4,4.2-3.6C11.2,12.9,10.4,11.9,8.4,10.7"/>
	<polygon fill="#999999" points="23.7,5.6 23.7,17.8 25.9,17.8 25.9,12.4 30.7,12.4 30.7,10.5 25.9,10.5 25.9,7.5 30.9,7.5 
		30.9,5.6 	"/>
	<polygon fill="#999999" points="34.5,12.4 39,12.4 39,10.5 34.5,10.5 34.5,7.5 39.4,7.5 39.4,5.6 32.3,5.6 32.3,17.8 39.5,17.8 
		39.5,15.8 34.5,15.8 	"/>
	<path fill="#999999" d="M73.4,5.6h-2.6c0,0-1.2,1.9-2.8,4.3c-0.1,0.2-0.2,0.3-0.3,0.5c0,0,0,0,0,0c0-0.1-0.1-0.3-0.3-0.5
		c-1.7-2.6-2.8-4.3-2.8-4.3h-2.6c0,0,4.5,6.6,4.5,6.7v5.5h2.2v-5.6C69.1,11.9,73.4,5.6,73.4,5.6"/>
	<path fill="#999999" d="M59.3,5.2h-0.2l-5.7,12.6h2.3l0.9-2.1h5.2l0.9,2.1H65L59.3,5.2 M57.3,13.9c0,0,1-2.4,1.7-3.9
		c0.1-0.3,0.2-0.6,0.2-0.6h0c0,0,0.1,0.3,0.2,0.6c0.7,1.6,1.7,3.9,1.7,3.9H57.3z"/>
	<path fill="#999999" d="M47.8,11c0.1-0.2,0.2-0.5,0.2-0.6h0c0,0.1,0.1,0.4,0.2,0.6c0.4,1,2.9,7.3,2.9,7.3h0.2l4.4-12.6h-2.3
		c0,0-1.6,5.1-2.2,6.8c-0.1,0.2-0.2,0.5-0.2,0.6l0,0c0-0.1-0.1-0.4-0.2-0.6c-0.4-1.1-2.8-7.2-2.8-7.2h-0.2c0,0-2.3,5.9-2.8,7.2
		C45.1,12.6,45,12.9,45,13l0,0c0-0.1-0.1-0.4-0.2-0.6c-0.5-1.7-2.2-6.8-2.2-6.8h-2.3l4.4,12.6h0.2C44.9,18.2,47.4,12.1,47.8,11"/>
	<path fill="#999999" d="M17.2,5.2H17l-5.7,12.6h2.3l0.9-2.1h5.2l0.9,2.1h2.3L17.2,5.2 M15.3,13.9c0,0,1-2.4,1.7-4
		c0.1-0.3,0.2-0.6,0.2-0.6h0c0,0,0.1,0.3,0.2,0.6c0.7,1.6,1.7,4,1.7,4H15.3z"/>
	<path fill="#999999" d="M85.6,16.9c0-3.4-5-3.7-5-8.5C80.6,5,83.3,3.3,86,3c-0.2,0-0.5,0-0.9,0c-0.6,0-1,0-1.5,0.1
		c-5,0.2-7.7,2.9-7.8,7c0,0.3,0,0.7,0,1.5c0,0.7,0,1.2,0,1.4c0.2,4,2.7,6.6,7.4,7C84,19.8,85.6,19.2,85.6,16.9"/>
	<path fill="#999999" d="M94.4,10c-0.2-3.9-2.6-6.5-7.1-7c-0.8,0.2-2.4,0.8-2.4,3c0,3.4,5,3.7,5,8.5c0,3-2.3,5.2-5.7,5.4
		c0.2,0,0.4,0,0.7,0c0.6,0,1,0,1.5,0c5-0.2,7.7-2.9,7.8-7c0-0.3,0-0.7,0-1.4C94.5,10.8,94.4,10.3,94.4,10"/>
	<path fill="#FFFFFF" d="M90,14.6c0-4.8-5-5.1-5-8.5c0-2.2,1.6-2.8,2.4-3c-0.3,0-0.5,0-0.8-0.1c-0.2,0-0.4,0-0.6,0
		c-2.7,0.3-5.4,2-5.4,5.5c0,4.8,5,5.1,5,8.5c0,2.3-1.7,2.9-2.4,3c0.1,0,0.3,0,0.4,0c0.3,0,0.5,0,0.8,0C87.8,19.8,90,17.6,90,14.6"/>
	<path fill="#999999" d="M94.5,19.1c0-0.5,0.4-1,1-1c0.5,0,1,0.4,1,1c0,0.5-0.4,1-1,1C94.9,20,94.5,19.6,94.5,19.1 M96.3,19.1
		c0-0.5-0.4-0.8-0.8-0.8c-0.5,0-0.8,0.4-0.8,0.8c0,0.5,0.4,0.8,0.8,0.8C95.9,19.9,96.3,19.5,96.3,19.1 M95.9,19.6h-0.2l-0.3-0.5
		h-0.2v0.5h-0.1v-1.1h0.5c0.1,0,0.2,0,0.3,0.1c0.1,0,0.1,0.1,0.1,0.2c0,0.2-0.1,0.3-0.3,0.3L95.9,19.6z M95.4,19
		c0.2,0,0.4,0,0.4-0.2c0-0.2-0.1-0.2-0.3-0.2h-0.3V19H95.4z"/>
</g>
</svg>
