<?xml version="1.0" encoding="utf-8"?>
<!-- Generator: Adobe Illustrator 18.1.1, SVG Export Plug-In . SVG Version: 6.00 Build 0)  -->
<!DOCTYPE svg PUBLIC "-//W3C//DTD SVG 1.1//EN" "http://www.w3.org/Graphics/SVG/1.1/DTD/svg11.dtd">
<svg version="1.1" id="Layer_1" xmlns="http://www.w3.org/2000/svg" xmlns:xlink="http://www.w3.org/1999/xlink" x="0px" y="0px"
	 viewBox="0 0 100 14" enable-background="new 0 0 100 14" xml:space="preserve">
<g>
	<g>
		<g>
			<path fill="#999999" d="M94.8,284.3h10.6l0.4-2.4l-7.7,0c-1.8,0-2.6-1.2-2.4-2.5l0.4-2.2c0.2-1.3,1.5-2.5,3.3-2.5h7.7
				c1.9,0,2.6,1.3,2.4,2.6l-10.6,0l-0.4,2.2l7.7,0c1.9,0,2.7,1.3,2.4,2.5c0,0-0.4,2.4-0.4,2.4c-0.2,1.2-1.5,2.5-3.3,2.5h-7.7
				C95.4,286.8,94.6,285.6,94.8,284.3z"/>
			<polygon fill="#999999" points="112.2,286.8 109.4,286.8 111.5,274.7 114.4,274.7 			"/>
			<polygon fill="#999999" points="238.8,286.8 236,286.8 238.1,274.7 241,274.7 			"/>
			<polygon fill="#999999" points="269.2,274.7 268.4,279.4 259.6,279.4 260.4,274.7 257.6,274.7 255.4,286.8 258.3,286.8 
				259.1,282.1 267.9,282.1 267.1,286.8 269.9,286.8 272.1,274.7 			"/>
			<polygon fill="#999999" points="195.8,284.4 197.5,274.7 194.6,274.7 192.5,286.8 203.4,286.8 203.8,284.4 			"/>
			<path fill="#999999" d="M125.7,282.2l-0.4,2.2l-8.5,0l1.3-7.1h11.3c0.2-1.3-0.3-2.5-2.3-2.5c-2,0-8.5,0-8.5,0
				c-1.9,0-3.1,1.3-3.3,2.5l-1.3,7.1c-0.2,1.2,0.5,2.5,2.4,2.5h8.3c2.2,0,3.1-1.2,3.4-2.5l0.7-3.9h-7.4l-0.3,1.8H125.7z"/>
			<path fill="#999999" d="M218.3,274.7H207l-2.1,12.1h11.3c1.4,0,3-1.1,3.3-2.5l1.3-7.1C221,276,219.8,274.7,218.3,274.7z
				 M216.6,284.3l-8.5,0l1.3-7.1h8.5L216.6,284.3z"/>
			<path fill="#999999" d="M243.4,284.4l1.3-7.1l11.3,0c0.2-1.3-0.6-2.6-2.4-2.6l-8.4,0c-1.9,0-3.1,1.3-3.3,2.5l-1.3,7.1
				c-0.2,1.3,0.5,2.5,2.4,2.5h8.3c1.9,0,3.1-1.2,3.3-2.5L243.4,284.4z"/>
			<polygon fill="#999999" points="138.8,283.9 135.5,274.7 131.1,274.7 129,286.8 131.8,286.8 133.4,277.7 136.7,286.8 
				139.9,286.8 146.4,277.7 144.8,286.8 147.6,286.8 149.8,274.7 145.4,274.7 			"/>
			<path fill="#999999" d="M153.4,284.7l-1.5,2.1h-3.1l8.7-12.1l3.5,0l4.4,12.1l-3.1,0l-0.8-2.1L153.4,284.7z M160.5,282.3l-1.8-5
				l-3.6,5H160.5z"/>
			<path fill="#999999" d="M179.5,284.7l-1.5,2.1h-3.1l8.7-12.1l3.5,0l4.4,12.1l-3.1,0l-0.8-2.1L179.5,284.7z M186.6,282.3l-1.8-5
				l-3.6,5H186.6z"/>
		</g>
	</g>
	<path fill="#999999" d="M235.3,282.2c0.2-1.1-0.9-1.1-0.9-1.1s1.1,0,1.3-1.1c0.4-2.1,0.1-0.5,0.5-2.9c0.2-1.3-0.7-2.5-2.4-2.5
		c-0.9,0-8.8,0-8.8,0c-1.5,0-2.6,0-2.6,0l-2.1,12.1h2.8l0.8-4.6c5.9,0,6.6,0,7.2,0c1.3,0,1.1,0.9,1.1,0.9l-0.7,3.8h2.9L235.3,282.2z
		 M232.9,280.1l-8.5,0l0.5-2.9l8.5,0L232.9,280.1z"/>
	<polygon fill="#999999" points="174.8,282.1 175.2,279.7 167.5,279.7 167.1,282.1 	"/>
</g>
<g>
	<g>
		<g>
			<path fill="#999999" d="M2.7,8.9h5.7l0.2-1.3l-4.1,0C3.4,7.6,3,7,3.1,6.3l0.2-1.2c0.1-0.7,0.8-1.4,1.8-1.4h4.1
				c1,0,1.4,0.7,1.3,1.4l-5.6,0L4.7,6.3l4.1,0c1,0,1.4,0.7,1.3,1.3c0,0-0.2,1.3-0.2,1.3c-0.1,0.7-0.8,1.3-1.8,1.3H4
				C3,10.2,2.6,9.6,2.7,8.9z"/>
			<polygon fill="#999999" points="12,10.2 10.4,10.2 11.6,3.8 13.1,3.8 			"/>
			<polygon fill="#999999" points="79.6,10.2 78.1,10.2 79.2,3.8 80.7,3.8 			"/>
			<polygon fill="#999999" points="95.8,3.8 95.4,6.3 90.7,6.3 91.1,3.8 89.6,3.8 88.5,10.2 90,10.2 90.4,7.7 95.1,7.7 94.7,10.2 
				96.2,10.2 97.3,3.8 			"/>
			<polygon fill="#999999" points="56.6,8.9 57.5,3.8 56,3.8 54.8,10.2 60.7,10.2 60.9,8.9 			"/>
			<path fill="#999999" d="M19.2,7.8L19,8.9l-4.5,0l0.7-3.8h6c0.1-0.7-0.2-1.4-1.2-1.4c-1.1,0-4.5,0-4.5,0c-1,0-1.6,0.7-1.7,1.4
				l-0.7,3.8c-0.1,0.7,0.3,1.3,1.3,1.3h4.5c1.2,0,1.7-0.7,1.8-1.3l0.4-2.1h-3.9l-0.2,1H19.2z"/>
			<path fill="#999999" d="M68.6,3.8h-6l-1.1,6.5h6c0.8,0,1.6-0.6,1.7-1.3l0.7-3.8C70,4.4,69.4,3.8,68.6,3.8z M67.7,8.9l-4.5,0
				l0.7-3.8h4.5L67.7,8.9z"/>
			<path fill="#999999" d="M82,8.9l0.7-3.8l6,0c0.1-0.7-0.3-1.4-1.3-1.4l-4.5,0c-1,0-1.6,0.7-1.7,1.4l-0.7,3.8
				c-0.1,0.7,0.3,1.3,1.3,1.3h4.5c1,0,1.7-0.7,1.8-1.3L82,8.9z"/>
			<polygon fill="#999999" points="26.2,8.7 24.4,3.8 22.1,3.8 20.9,10.2 22.4,10.2 23.3,5.4 25,10.2 26.8,10.2 30.2,5.4 29.3,10.2 
				30.9,10.2 32,3.8 29.7,3.8 			"/>
			<path fill="#999999" d="M33.9,9.1l-0.8,1.1h-1.7l4.6-6.5l1.8,0l2.4,6.5l-1.7,0l-0.4-1.1L33.9,9.1z M37.7,7.8l-1-2.7l-1.9,2.7
				H37.7z"/>
			<path fill="#999999" d="M47.9,9.1l-0.8,1.1h-1.7L50,3.8l1.8,0l2.4,6.5l-1.7,0l-0.4-1.1L47.9,9.1z M51.7,7.8l-1-2.7l-1.9,2.7H51.7
				z"/>
		</g>
	</g>
	<path fill="#999999" d="M77.7,7.8c0.1-0.6-0.5-0.6-0.5-0.6s0.6,0,0.7-0.6c0.2-1.1,0.1-0.3,0.3-1.5c0.1-0.7-0.4-1.4-1.3-1.4
		c-0.5,0-4.7,0-4.7,0c-0.8,0-1.4,0-1.4,0l-1.1,6.5h1.5l0.4-2.5c3.1,0,3.5,0,3.8,0c0.7,0,0.6,0.5,0.6,0.5l-0.4,2h1.5L77.7,7.8z
		 M76.4,6.6l-4.5,0l0.3-1.5l4.5,0L76.4,6.6z"/>
	<polygon fill="#999999" points="45.4,7.7 45.6,6.4 41.5,6.4 41.3,7.7 	"/>
</g>
</svg>
