<?xml version="1.0" encoding="utf-8"?>
<!-- Generator: Adobe Illustrator 18.1.1, SVG Export Plug-In . SVG Version: 6.00 Build 0)  -->
<!DOCTYPE svg PUBLIC "-//W3C//DTD SVG 1.1//EN" "http://www.w3.org/Graphics/SVG/1.1/DTD/svg11.dtd">
<svg version="1.1" id="Layer_1" xmlns="http://www.w3.org/2000/svg" xmlns:xlink="http://www.w3.org/1999/xlink" x="0px" y="0px"
	 viewBox="0 0 100 30" enable-background="new 0 0 100 30" xml:space="preserve">
<path fill="#999999" d="M78,15.6c0,6-4.3,10.5-10.3,10.5c-6.2,0-10.4-4.3-10.4-10.5c0-5.9,4.1-10.5,10.4-10.5
	C73.7,5.1,78,9.6,78,15.6 M72.7,15.6c0-3.5-1.4-6.7-5-6.7c-3.6,0-5,3.1-5,6.7c0,3.5,1.4,6.7,5,6.7C71.3,22.3,72.7,19.2,72.7,15.6
	 M41.7,13.7c-0.2-2.7-1.3-4.9-2.9-6.4c-1.6-1.4-3.8-2.2-6.5-2.2c-2,0-4.5,0.7-6.3,2.2c-2.2,1.8-3.9,4.6-3.9,8.4c0,3.3,1.1,5.9,3,7.7
	c1.9,1.8,4.5,2.7,7.8,2.7c2.6,0,5.8-1,7.2-1.8c0.5-0.3,0.6-0.4,0.5-0.9L39.7,21c-0.1-0.4-0.5-0.5-0.9-0.3c-0.6,0.3-1.1,0.5-1.7,0.8
	c-1.2,0.4-2.4,0.7-3.6,0.7c-2.5,0-3.9-0.7-4.9-1.9c-0.7-0.8-1.1-1.8-1.2-2.9H41c0.5,0,0.7-0.3,0.7-0.9v-1
	C41.7,14.9,41.7,14.2,41.7,13.7 M36.8,13.7h-9.4c0.1-0.7,0.3-1.3,0.6-1.9C28.9,10,30.4,9,32.4,9c2.7,0,4.4,1.8,4.4,4.6V13.7z
	 M46.5,8c1.5-2,3.9-2.9,7.8-2.9c0.9,0,2.1,0.1,2.8,0.3c0.5,0.1,0.5,0.5,0.5,0.9l-0.5,2.3c-0.1,0.4-0.2,0.5-0.6,0.5
	c-0.1,0-0.2,0-0.3,0C56,9.1,55,9,54.7,9c-1.9,0-2.9,0.5-3.6,1.2c-0.8,0.9-0.8,2.1-0.8,4.4v10.2c0,0.7-0.3,1-1,1h-3.1
	c-0.7,0-1-0.3-1-1v-10C45.1,11.2,45.4,9.5,46.5,8 M11.8,12.2c0.7-0.7,2.3-2.7,4.1-6.1c0.3-0.6,0.6-0.7,1-0.7h3.3
	c0.3,0,0.7,0.1,0.5,0.7c-1.3,3.9-4.3,7.4-6,9.2c1.8,1.7,5.1,5.8,6.6,9.8c0.1,0.4,0.1,0.8-0.7,0.8h-4c-0.4,0-0.7,0-1-0.7
	c-1-2.5-2.5-5-4.3-6.7c-1.9,2-3.4,4.6-4.4,6.7c-0.2,0.5-0.5,0.7-1,0.7H2.2c-0.2,0-0.5-0.3-0.3-0.7c1.1-3,3.3-6.7,6.3-9.5
	c-2.4-2.9-4.8-6.5-5.7-9.5C2.4,5.7,2.6,5.4,3,5.4h4.3c0.5,0,0.7,0.2,0.9,0.7C9.2,8.6,10.7,10.9,11.8,12.2 M88.6,12.2
	c0.7-0.7,2.3-2.7,4.1-6.1c0.3-0.6,0.6-0.7,1-0.7H97c0.3,0,0.7,0.1,0.5,0.7c-1.3,3.9-4.3,7.4-6,9.2c1.8,1.7,5.1,5.8,6.6,9.8
	c0.1,0.4,0.1,0.8-0.7,0.8h-4c-0.4,0-0.7,0-1-0.7c-1-2.5-2.5-5-4.3-6.7c-1.9,2-3.4,4.6-4.4,6.7c-0.2,0.5-0.5,0.7-1,0.7H79
	c-0.2,0-0.5-0.3-0.3-0.7c1.1-3,3.3-6.7,6.3-9.5c-2.4-2.9-4.8-6.5-5.7-9.5c-0.1-0.5,0.1-0.7,0.4-0.7h4.3c0.5,0,0.7,0.2,0.9,0.7
	C86.1,8.6,87.5,10.9,88.6,12.2"/>
</svg>
